<svg xmlns="http://www.w3.org/2000/svg" xmlns:xlink="http://www.w3.org/1999/xlink" width="1400" height="362" viewBox="0 0 1400 362">
  <defs>
    <clipPath id="clip-path">
      <rect id="Rectángulo_2975" data-name="Rectángulo 2975" width="1400" height="362" transform="translate(20 259.15)" fill="none"/>
    </clipPath>
  </defs>
  <g id="Capa_2" data-name="Capa 2" transform="translate(-20 -259.15)">
    <g id="Grupo_12265" data-name="Grupo 12265" clip-path="url(#clip-path)">
      <g id="Grupo_12263" data-name="Grupo 12263" opacity="0.2">
        <path id="Trazado_10351" data-name="Trazado 10351" d="M592.2,191.36H581.06V180.23a2.7,2.7,0,0,0-2.69-2.7h-8.2a2.71,2.71,0,0,0-2.7,2.7v11.13H556.33a2.71,2.71,0,0,0-2.69,2.7v8.2a2.7,2.7,0,0,0,2.69,2.7h11.14V216.1a2.71,2.71,0,0,0,2.7,2.7h8.2a2.71,2.71,0,0,0,2.69-2.7V205H592.2a2.7,2.7,0,0,0,2.7-2.7v-8.2a2.71,2.71,0,0,0-2.7-2.74Z" transform="translate(20 259.15)" fill="#fff"/>
        <path id="Trazado_10352" data-name="Trazado 10352" d="M510.28,136.79H496.8V123.32a3.27,3.27,0,0,0-3.27-3.26h-9.91a3.27,3.27,0,0,0-3.27,3.26v13.47H466.88a3.27,3.27,0,0,0-3.26,3.27V150a3.27,3.27,0,0,0,3.26,3.26h13.47v13.48a3.28,3.28,0,0,0,3.27,3.26h9.91a3.28,3.28,0,0,0,3.27-3.26v-13.5h13.48a3.27,3.27,0,0,0,3.26-3.26v-9.92a3.28,3.28,0,0,0-3.26-3.27Z" transform="translate(20 259.15)" fill="#fff"/>
        <path id="Trazado_10353" data-name="Trazado 10353" d="M1175.54,132.46h11.13v11.13a2.71,2.71,0,0,0,2.7,2.7h8.2a2.71,2.71,0,0,0,2.7-2.7V132.46h11.14a2.71,2.71,0,0,0,2.69-2.7v-8.2a2.7,2.7,0,0,0-2.69-2.7h-11.14V107.72a2.71,2.71,0,0,0-2.7-2.7h-8.2a2.71,2.71,0,0,0-2.7,2.7v11.14h-11.13a2.7,2.7,0,0,0-2.7,2.7v8.2a2.71,2.71,0,0,0,2.7,2.7Z" transform="translate(20 259.15)" fill="#fff"/>
        <path id="Trazado_10354" data-name="Trazado 10354" d="M939.41,168.74h11.14v11.14a2.7,2.7,0,0,0,2.7,2.69h8.2a2.71,2.71,0,0,0,2.7-2.69V168.74h11.13A2.71,2.71,0,0,0,978,166v-8.2a2.71,2.71,0,0,0-2.7-2.7H964.15V144a2.71,2.71,0,0,0-2.7-2.7h-8.2a2.7,2.7,0,0,0-2.7,2.7v11.13H939.41a2.71,2.71,0,0,0-2.7,2.7V166a2.71,2.71,0,0,0,2.7,2.74Z" transform="translate(20 259.15)" fill="#fff"/>
        <path id="Trazado_10355" data-name="Trazado 10355" d="M792.29,257.61h11.14v11.13a2.7,2.7,0,0,0,2.7,2.7h8.2a2.71,2.71,0,0,0,2.7-2.7V257.61h11.13a2.7,2.7,0,0,0,2.7-2.7v-8.2a2.71,2.71,0,0,0-2.7-2.7H817V232.87a2.71,2.71,0,0,0-2.7-2.7h-8.2a2.71,2.71,0,0,0-2.7,2.7V244H792.29a2.71,2.71,0,0,0-2.7,2.7v8.2A2.71,2.71,0,0,0,792.29,257.61Z" transform="translate(20 259.15)" fill="#fff"/>
        <path id="Trazado_10356" data-name="Trazado 10356" d="M630.66,125.85H641.8V137a2.7,2.7,0,0,0,2.7,2.69h8.2a2.71,2.71,0,0,0,2.7-2.69V125.85h11.13a2.7,2.7,0,0,0,2.7-2.7V115a2.71,2.71,0,0,0-2.7-2.7H655.4V101.12a2.71,2.71,0,0,0-2.7-2.7h-8.2a2.7,2.7,0,0,0-2.7,2.7v11.13H630.66A2.71,2.71,0,0,0,628,115v8.2a2.71,2.71,0,0,0,2.66,2.65Z" transform="translate(20 259.15)" fill="#fff"/>
        <path id="Trazado_10357" data-name="Trazado 10357" d="M556.59,65.46h11.14V76.6a2.7,2.7,0,0,0,2.7,2.69h8.2a2.7,2.7,0,0,0,2.69-2.69V65.46h11.14a2.71,2.71,0,0,0,2.7-2.7v-8.2a2.71,2.71,0,0,0-2.7-2.69H581.32V40.73a2.7,2.7,0,0,0-2.69-2.7h-8.2a2.7,2.7,0,0,0-2.7,2.7V51.87H556.59a2.71,2.71,0,0,0-2.7,2.69v8.2a2.71,2.71,0,0,0,2.7,2.7Z" transform="translate(20 259.15)" fill="#fff"/>
        <path id="Trazado_10358" data-name="Trazado 10358" d="M699.15,78.08h11.14V89.22a2.71,2.71,0,0,0,2.7,2.7h8.2a2.71,2.71,0,0,0,2.7-2.7V78.08H735a2.7,2.7,0,0,0,2.7-2.69V67.18a2.7,2.7,0,0,0-2.7-2.69H723.89V53.35a2.71,2.71,0,0,0-2.7-2.7H713a2.7,2.7,0,0,0-2.7,2.7V64.49H699.15a2.71,2.71,0,0,0-2.7,2.69v8.21a2.71,2.71,0,0,0,2.7,2.69Z" transform="translate(20 259.15)" fill="#fff"/>
        <path id="Trazado_10359" data-name="Trazado 10359" d="M868.06,80.88h9.56v9.56a2.32,2.32,0,0,0,2.31,2.31h7a2.33,2.33,0,0,0,2.32-2.31V80.88h9.56a2.32,2.32,0,0,0,2.31-2.32v-7a2.33,2.33,0,0,0-2.31-2.32h-9.56v-9.6A2.33,2.33,0,0,0,887,57.33h-7a2.32,2.32,0,0,0-2.31,2.31V69.2h-9.56a2.33,2.33,0,0,0-2.32,2.32v7a2.32,2.32,0,0,0,2.25,2.36Z" transform="translate(20 259.15)" fill="#fff"/>
        <path id="Trazado_10360" data-name="Trazado 10360" d="M1076.83,81.8H1088V92.94a2.7,2.7,0,0,0,2.7,2.69h8.2a2.7,2.7,0,0,0,2.69-2.69V81.8h11.14a2.7,2.7,0,0,0,2.7-2.7V70.9a2.71,2.71,0,0,0-2.7-2.7h-11.14V57.07a2.7,2.7,0,0,0-2.69-2.7h-8.2a2.7,2.7,0,0,0-2.7,2.7V68.2h-11.14a2.71,2.71,0,0,0-2.7,2.7v8.2a2.71,2.71,0,0,0,2.67,2.7Z" transform="translate(20 259.15)" fill="#fff"/>
        <path id="Trazado_10361" data-name="Trazado 10361" d="M1046.43,205.46h11.14V216.6a2.71,2.71,0,0,0,2.7,2.69h8.2a2.71,2.71,0,0,0,2.7-2.69V205.46h11.13a2.7,2.7,0,0,0,2.7-2.7v-8.2a2.71,2.71,0,0,0-2.7-2.7h-11.13V180.73a2.71,2.71,0,0,0-2.7-2.7h-8.2a2.71,2.71,0,0,0-2.7,2.7v11.13h-11.14a2.71,2.71,0,0,0-2.69,2.7v8.2A2.7,2.7,0,0,0,1046.43,205.46Z" transform="translate(20 259.15)" fill="#fff"/>
        <path id="Trazado_10362" data-name="Trazado 10362" d="M1010.8,143h15.31v15.3a3.72,3.72,0,0,0,3.71,3.71h11.27a3.72,3.72,0,0,0,3.71-3.71V143h15.31a3.72,3.72,0,0,0,3.71-3.71V128a3.72,3.72,0,0,0-3.71-3.71H1044.8V109a3.72,3.72,0,0,0-3.71-3.71h-11.27a3.72,3.72,0,0,0-3.71,3.71v15.31H1010.8a3.72,3.72,0,0,0-3.71,3.71V139.3A3.72,3.72,0,0,0,1010.8,143Z" transform="translate(20 259.15)" fill="#fff"/>
        <path id="Trazado_10363" data-name="Trazado 10363" d="M685.73,202.56h16.9v16.9a4.1,4.1,0,0,0,4.09,4.09h12.44a4.11,4.11,0,0,0,4.1-4.09v-16.9h16.89a4.1,4.1,0,0,0,4.09-4.09V186a4.1,4.1,0,0,0-4.09-4.09H723.26V165a4.12,4.12,0,0,0-4.1-4.1H706.72a4.11,4.11,0,0,0-4.09,4.1v16.9h-16.9a4.09,4.09,0,0,0-4.09,4.09v12.44a4.09,4.09,0,0,0,4.09,4.13Z" transform="translate(20 259.15)" fill="#fff"/>
        <path id="Trazado_10364" data-name="Trazado 10364" d="M809.16,180.41h16v16a3.9,3.9,0,0,0,3.89,3.88h11.79a3.9,3.9,0,0,0,3.89-3.88v-16h16a3.89,3.89,0,0,0,3.89-3.88v-11.8a3.9,3.9,0,0,0-3.89-3.89h-16v-16a3.9,3.9,0,0,0-3.89-3.89H829.08a3.9,3.9,0,0,0-3.89,3.89v16h-16a3.9,3.9,0,0,0-3.88,3.89v11.8a3.89,3.89,0,0,0,3.85,3.88Z" transform="translate(20 259.15)" fill="#fff"/>
        <path id="Trazado_10365" data-name="Trazado 10365" d="M1114.94,125.74h11.63a4.43,4.43,0,0,1,4.44,4.43v15.2h15.19a4.43,4.43,0,0,1,4.43,4.43v11.63a4.44,4.44,0,0,1-4.43,4.44H1131v15.19a4.44,4.44,0,0,1-4.44,4.43h-11.63a4.44,4.44,0,0,1-4.43-4.43V165.87h-15.2a4.44,4.44,0,0,1-4.43-4.44V149.8a4.43,4.43,0,0,1,4.43-4.43h15.2v-15.2a4.43,4.43,0,0,1,4.44-4.43Zm31.26,38.91a3.22,3.22,0,0,0,3.22-3.22V149.8a3.22,3.22,0,0,0-3.22-3.22h-16.41V130.17a3.22,3.22,0,0,0-3.22-3.22h-11.63a3.23,3.23,0,0,0-3.22,3.22v16.41h-16.41a3.22,3.22,0,0,0-3.21,3.22v11.63a3.22,3.22,0,0,0,3.21,3.22h16.41v16.41a3.22,3.22,0,0,0,3.22,3.21h11.63a3.22,3.22,0,0,0,3.22-3.21V164.65Z" transform="translate(20 259.15)" fill="#fff"/>
        <path id="Trazado_10366" data-name="Trazado 10366" d="M904.58,182.57h11.63a4.44,4.44,0,0,1,4.43,4.44V202.2h15.19a4.45,4.45,0,0,1,4.44,4.44v11.63a4.45,4.45,0,0,1-4.44,4.44H920.64v15.18a4.44,4.44,0,0,1-4.43,4.44H904.58a4.44,4.44,0,0,1-4.44-4.44V222.71H885a4.44,4.44,0,0,1-4.44-4.44V206.64A4.44,4.44,0,0,1,885,202.2h15.19V187A4.44,4.44,0,0,1,904.58,182.57Zm31.25,38.92a3.22,3.22,0,0,0,3.22-3.22V206.64a3.22,3.22,0,0,0-3.22-3.22h-16.4V187a3.22,3.22,0,0,0-3.22-3.22H904.58a3.22,3.22,0,0,0-3.22,3.22v16.41H885a3.22,3.22,0,0,0-3.22,3.22v11.63a3.22,3.22,0,0,0,3.22,3.22h16.41v16.4a3.22,3.22,0,0,0,3.22,3.22h11.63a3.22,3.22,0,0,0,3.22-3.22v-16.4Z" transform="translate(20 259.15)" fill="#fff"/>
        <path id="Trazado_10367" data-name="Trazado 10367" d="M622.15,212.45h11.63a4.43,4.43,0,0,1,4.43,4.44v15.19H653.4a4.44,4.44,0,0,1,4.44,4.43v11.64a4.44,4.44,0,0,1-4.44,4.43H638.21v15.19a4.43,4.43,0,0,1-4.43,4.43H622.15a4.44,4.44,0,0,1-4.44-4.43V252.58H602.52a4.44,4.44,0,0,1-4.43-4.43V236.51a4.44,4.44,0,0,1,4.43-4.43h15.19V216.89a4.44,4.44,0,0,1,4.44-4.44Zm31.25,38.92a3.22,3.22,0,0,0,3.22-3.22V236.51a3.22,3.22,0,0,0-3.22-3.22H637v-16.4a3.22,3.22,0,0,0-3.22-3.22H622.15a3.22,3.22,0,0,0-3.22,3.22v16.4H602.52a3.23,3.23,0,0,0-3.22,3.22v11.64a3.23,3.23,0,0,0,3.22,3.22h16.41v16.4a3.22,3.22,0,0,0,3.22,3.22h11.63a3.22,3.22,0,0,0,3.22-3.22v-16.4Z" transform="translate(20 259.15)" fill="#fff"/>
        <path id="Trazado_10368" data-name="Trazado 10368" d="M977.61,59.62h9.8a3.73,3.73,0,0,1,3.73,3.73v12.8h12.79a3.74,3.74,0,0,1,3.74,3.73v9.8a3.75,3.75,0,0,1-3.74,3.74H991.14v12.79a3.74,3.74,0,0,1-3.73,3.73h-9.8a3.74,3.74,0,0,1-3.73-3.73V93.42h-12.8a3.74,3.74,0,0,1-3.73-3.74v-9.8a3.73,3.73,0,0,1,3.73-3.73h12.8V63.35a3.73,3.73,0,0,1,3.73-3.73Zm26.32,32.77a2.71,2.71,0,0,0,2.72-2.71v-9.8a2.71,2.71,0,0,0-2.72-2.71H990.12V63.35a2.71,2.71,0,0,0-2.71-2.71h-9.8a2.71,2.71,0,0,0-2.71,2.71V77.17H961.08a2.71,2.71,0,0,0-2.71,2.71v9.8a2.71,2.71,0,0,0,2.71,2.71H974.9v13.82a2.72,2.72,0,0,0,2.71,2.71h9.8a2.72,2.72,0,0,0,2.71-2.71V92.39Z" transform="translate(20 259.15)" fill="#fff"/>
        <path id="Trazado_10369" data-name="Trazado 10369" d="M790.91,95.63h7.41a2.83,2.83,0,0,1,2.82,2.83v9.67h9.67a2.82,2.82,0,0,1,2.82,2.82v7.41a2.82,2.82,0,0,1-2.82,2.82h-9.67v9.67a2.83,2.83,0,0,1-2.82,2.83h-7.41a2.83,2.83,0,0,1-2.82-2.83v-9.67h-9.67a2.83,2.83,0,0,1-2.83-2.82V111a2.83,2.83,0,0,1,2.83-2.82h9.67V98.46a2.83,2.83,0,0,1,2.82-2.83Zm19.9,24.78a2.05,2.05,0,0,0,2.05-2V111a2.05,2.05,0,0,0-2.05-2H800.37V98.46a2.05,2.05,0,0,0-2-2h-7.41a2.05,2.05,0,0,0-2,2V108.9H778.42a2.05,2.05,0,0,0-2,2v7.41a2.05,2.05,0,0,0,2,2h10.44v10.44a2.05,2.05,0,0,0,2,2.05h7.41a2.05,2.05,0,0,0,2-2.05V120.41Z" transform="translate(20 259.15)" fill="#fff"/>
      </g>
      <path id="Trazado_10370" data-name="Trazado 10370" d="M1309.7,90.77a3.1,3.1,0,0,0,0-5.2l19-32.85h0a3,3,0,0,0,1.4.35,3.09,3.09,0,0,0,3.09-2.94h38a3.1,3.1,0,0,0,3.09,2.94,3,3,0,0,0,1.4-.35l19,32.89a3.11,3.11,0,0,0,0,5.2l-19,32.88a3.06,3.06,0,0,0-1.4-.35,3.1,3.1,0,0,0-3.1,2.94h-38a3.08,3.08,0,0,0-4.48-2.6ZM1111,205.5a3.1,3.1,0,0,0,0-5.2l19-32.88a3.07,3.07,0,0,0,4.49-2.6h38a3.11,3.11,0,0,0,3.09,3,3.19,3.19,0,0,0,1.41-.35l19,32.88a3.08,3.08,0,0,0,0,5.2l-19,32.88a3.09,3.09,0,0,0-4.49,2.6h-38a3.1,3.1,0,0,0-3.09-2.94,3,3,0,0,0-1.39.34Zm-47.27,71.12-19-32.87a3.1,3.1,0,0,0,0-5.2l19-32.88a3.09,3.09,0,0,0,4.49-2.6h38a3.09,3.09,0,0,0,4.49,2.6l19,32.87a3.11,3.11,0,0,0,0,5.21l-19,32.88a3.06,3.06,0,0,0-1.4-.35,3.1,3.1,0,0,0-3.1,3h-38a3.09,3.09,0,0,0-4.49-2.6ZM978.49,205.5a3.1,3.1,0,0,0,0-5.2l19-32.88a3,3,0,0,0,1.4.35,3.1,3.1,0,0,0,3.09-3h38a3.07,3.07,0,0,0,4.51,2.59l19,32.89a3.08,3.08,0,0,0,0,5.2l-19,32.88A3.19,3.19,0,0,0,1043,238a3.09,3.09,0,0,0-3.08,2.94h-38a3.08,3.08,0,0,0-4.48-2.6Zm265-153a3.08,3.08,0,0,0,1.38-2.58,3.12,3.12,0,0,0-1.38-2.58l19-32.89a3.06,3.06,0,0,0,1.38.34,3.1,3.1,0,0,0,3.09-2.95h38a3.11,3.11,0,0,0,3.1,2.95,3.071,3.071,0,0,0,1.41-.36l19,32.89a3.09,3.09,0,0,0,0,5.2l-19,32.89a3,3,0,0,0-1.4-.35,3.1,3.1,0,0,0-3.09,2.94h-38a3.09,3.09,0,0,0-4.45-2.62Zm-66.24,38.25a3.108,3.108,0,0,0,.01-5.16l19-32.89a3,3,0,0,0,1.37.33,3.1,3.1,0,0,0,3.09-2.94h38a3.078,3.078,0,0,0,4.52,2.58l19,32.88a3.1,3.1,0,0,0,0,5.24l-19,32.87a3.161,3.161,0,0,0-1.43-.36,3.09,3.09,0,0,0-3.09,2.94h-38a3.1,3.1,0,0,0-3.09-2.94,3,3,0,0,0-1.37.33ZM869.49,241.31h38a3.1,3.1,0,0,0,3.09,2.95,3.18,3.18,0,0,0,1.37-.33l19,32.87a3.12,3.12,0,0,0,0,5.18l-19,32.89a3.09,3.09,0,0,0-4.49,2.59h-38a3.11,3.11,0,0,0-3.09-3,3.26,3.26,0,0,0-1.4.35L846,282a3.1,3.1,0,0,0,0-5.25l19-32.88a3.08,3.08,0,0,0,4.54-2.58ZM1130,85.38,1111,52.5a3.12,3.12,0,0,0,0-5.16l19-32.89a3.06,3.06,0,0,0,1.38.34,3.11,3.11,0,0,0,3.09-2.95h38a3.11,3.11,0,0,0,3.1,2.95,3.25,3.25,0,0,0,1.42-.36l19,32.87a3.1,3.1,0,0,0,0,5.24l-19,32.88a3,3,0,0,0-1.42-.36,3.1,3.1,0,0,0-3.1,2.94h-38a3.09,3.09,0,0,0-3.09-2.94,3,3,0,0,0-1.38.32Zm-90,79.11h-38a3.13,3.13,0,0,0-3.1-3,3.329,3.329,0,0,0-1.4.35l-19-32.87a3.11,3.11,0,0,0,0-5.21l19-32.87a3.08,3.08,0,0,0,4.48-2.61h38a3.08,3.08,0,0,0,4.52,2.59l19,32.87a3.1,3.1,0,0,0,0,5.24l-19,32.87a3,3,0,0,0-1.4-.35,3.1,3.1,0,0,0-3.17,2.99ZM935.72,126.58h38a3.08,3.08,0,0,0,4.48,2.6l19,32.88a3.11,3.11,0,0,0,0,5.19l-19,32.88a3.24,3.24,0,0,0-1.39-.34,3.11,3.11,0,0,0-3.09,2.94h-38a3.1,3.1,0,0,0-3.09-2.94,3.05,3.05,0,0,0-1.42.36L912.37,167.5a3.07,3.07,0,0,0-.37-5.05l19.21-33.28a3.09,3.09,0,0,0,4.51-2.59Zm109-35.83a3.11,3.11,0,0,0,0-5.16l19-32.89a3,3,0,0,0,1.36.33,3.11,3.11,0,0,0,3.1-2.94h38a3.1,3.1,0,0,0,3.09,2.94,3.05,3.05,0,0,0,1.44-.37l19,32.88a3.1,3.1,0,0,0,0,5.25l-19,32.88a3,3,0,0,0-1.44-.37,3.1,3.1,0,0,0-3.09,2.94h-38a3.09,3.09,0,0,0-3.09-2.94,3,3,0,0,0-1.36.33Zm-132.64,77,18.82,32.6a3.11,3.11,0,0,0,0,5.16l-19,32.88a3.09,3.09,0,0,0-4.45,2.62h-38A3.1,3.1,0,0,0,866.4,238a3.05,3.05,0,0,0-1.44.37l-19-32.89a3.09,3.09,0,0,0,0-5.24l19-32.88a3,3,0,0,0,1.44.37,3.11,3.11,0,0,0,3.09-3h37.84a2.837,2.837,0,0,0,0,.29,3.1,3.1,0,0,0,4.79,2.61ZM864.65,238.6a3.09,3.09,0,0,0-1.38,2.58,3.16,3.16,0,0,0,1.37,2.58l-19,32.88a3.09,3.09,0,0,0-4.45,2.62h-38a3.09,3.09,0,0,0-3.09-2.94,3.05,3.05,0,0,0-1.44.37l-19-32.88a3.1,3.1,0,0,0,0-5.25l19-32.88a3.05,3.05,0,0,0,1.44.37,3.1,3.1,0,0,0,3.09-2.94h38a3.1,3.1,0,0,0,3.09,2.94,3,3,0,0,0,1.36-.33Zm132.49-153a3.11,3.11,0,0,0,0,5.21l-19,32.87a3.08,3.08,0,0,0-4.48,2.6h-38a3.07,3.07,0,0,0-4.51-2.59l-19-32.89a3.11,3.11,0,0,0,0-5.2l19-32.88a3.09,3.09,0,0,0,4.49-2.6h38a3.11,3.11,0,0,0,3.1,2.94,3,3,0,0,0,1.4-.35ZM581,282a3.1,3.1,0,0,0,0-5.2l19-32.86h0a3,3,0,0,0,1.4.34,3.11,3.11,0,0,0,3.1-2.94h38a3.1,3.1,0,0,0,3.09,2.95,3.15,3.15,0,0,0,1.4-.35l19,32.88a3.1,3.1,0,0,0,0,5.2l-19,32.88a3.19,3.19,0,0,0-1.41-.34,3.1,3.1,0,0,0-3.09,2.94h-38a3.094,3.094,0,0,0-4.5-2.6Zm-66.25-38.24a3.1,3.1,0,0,0,0-5.21l19-32.88a3,3,0,0,0,1.4.35,3.09,3.09,0,0,0,3.09-2.94h38a3.078,3.078,0,0,0,4.5,2.59l19,32.88a3.105,3.105,0,0,0-.01,5.21l-19,32.88a3,3,0,0,0-1.39-.35,3.1,3.1,0,0,0-3.1,3h-38a3.1,3.1,0,0,0-3.09-2.94,3,3,0,0,0-1.38.34Zm284-120.1-19-32.88a3.1,3.1,0,0,0,0-5.2l7.87-13.64,11.1-19.24a3.08,3.08,0,0,0,4.48-2.6h38a3.11,3.11,0,0,0,3.1,2.94,3,3,0,0,0,1.41-.36l19,32.9a3.08,3.08,0,0,0-1.42,2.59,3.12,3.12,0,0,0,1.42,2.61l-19,32.88a3.189,3.189,0,0,0-1.41-.35,3.1,3.1,0,0,0-3.09,2.94h-38a3.1,3.1,0,0,0-3.09-2.94,3,3,0,0,0-1.4.34ZM846,52.51a3.11,3.11,0,0,0,0-5.18l19-32.88a3.06,3.06,0,0,0,1.38.34,3.11,3.11,0,0,0,3.09-2.95h38a3.11,3.11,0,0,0,3.1,2.95,3.19,3.19,0,0,0,1.4-.35l19,32.87a3.1,3.1,0,0,0,0,5.22l-19,32.87a3.19,3.19,0,0,0-1.41-.34A3.09,3.09,0,0,0,907.43,88h-38A3.09,3.09,0,0,0,865,85.4ZM448.48,282a3.09,3.09,0,0,0,0-5.2l19-32.88a3,3,0,0,0,1.39.34,3.1,3.1,0,0,0,3.09-2.94h38a3.08,3.08,0,0,0,4.49,2.61l19,32.87a3.1,3.1,0,0,0,0,5.2l-19,32.88a3.09,3.09,0,0,0-4.49,2.6H472a3.1,3.1,0,0,0-3.09-2.94,3.19,3.19,0,0,0-1.41.34ZM581,129a3.1,3.1,0,0,0,0-5.2l7.88-13.66L600,90.93a3.329,3.329,0,0,0,1.4.35,3.1,3.1,0,0,0,3.09-2.94h38a3.07,3.07,0,0,0,4.49,2.6l19,32.88a3.1,3.1,0,0,0,0,5.2l-19,32.88a3.094,3.094,0,0,0-4.5,2.6h-38a3.08,3.08,0,0,0-3.09-2.94,3.18,3.18,0,0,0-1.4.34ZM117.28,396.73a3.08,3.08,0,0,0,1.43-2.6,3.15,3.15,0,0,0-1.41-2.61l19-32.87a3.189,3.189,0,0,0,1.41.34,3.1,3.1,0,0,0,3.09-2.94h38a3.1,3.1,0,0,0,3.09,2.94,3.14,3.14,0,0,0,1.4-.34l19,32.88a3.09,3.09,0,0,0,0,5.2l-19,32.88a2.84,2.84,0,0,0-1.4-.34,3.08,3.08,0,0,0-3.09,2.93h-38a3.1,3.1,0,0,0-3.09-2.94,3,3,0,0,0-1.4.35Zm85.23-5.37-19-32.88a3.1,3.1,0,0,0,0-5.2l19-32.88a3.149,3.149,0,0,0,1.4.35,3.1,3.1,0,0,0,3.09-2.94h38a3.11,3.11,0,0,0,3.09,2.95,3.19,3.19,0,0,0,1.41-.35l19,32.88a3.09,3.09,0,0,0,0,5.2l-19,32.88a3,3,0,0,0-1.4-.34A3.1,3.1,0,0,0,245,394H207a3.07,3.07,0,0,0-4.49-2.6ZM576.2,202.73h-38a3.09,3.09,0,0,0-3.09-2.94,3,3,0,0,0-1.4.35l-19-32.89a3.09,3.09,0,0,0,0-5.19l19-32.88a3,3,0,0,0,1.39.34,3.1,3.1,0,0,0,3.09-2.94h38a3.08,3.08,0,0,0,4.48,2.6l19,32.88a3.11,3.11,0,0,0,0,5.19l-19,32.89a3.053,3.053,0,0,0-4.47,2.59ZM713.48,52.5a3.1,3.1,0,0,0,0-5.16l19-32.88a3.08,3.08,0,0,0,4.46-2.62h38a3.08,3.08,0,0,0,4.52,2.59l19,32.87A3.12,3.12,0,0,0,797,49.92a3.07,3.07,0,0,0,1.43,2.61l-7.87,13.63L779.44,85.41a3,3,0,0,0-1.4-.35A3.1,3.1,0,0,0,775,88H737a3.09,3.09,0,0,0-4.49-2.6Zm-47.24,71.14-19-32.87a3.1,3.1,0,0,0,0-5.2l19-32.86a3.09,3.09,0,0,0,4.45-2.62h38A3.1,3.1,0,0,0,711.75,53a3.05,3.05,0,0,0,1.44-.37l19,32.91a3.1,3.1,0,0,0,0,5.2l-19,32.88a3.19,3.19,0,0,0-1.4-.35,3.11,3.11,0,0,0-3.1,2.94h-38a3.09,3.09,0,0,0-4.49-2.6Zm-284,120.11a3.11,3.11,0,0,0,0-5.21l19-32.88a3,3,0,0,0,1.4.35,3.11,3.11,0,0,0,3.09-2.94h38a3.1,3.1,0,0,0,3.09,2.94,3,3,0,0,0,1.4-.35l19,32.88a3.11,3.11,0,0,0,0,5.21l-19,32.87a3.08,3.08,0,0,0-4.48,2.61h-38a3.1,3.1,0,0,0-3.09-3,3,3,0,0,0-1.4.35Zm194-117.51h-38a3.1,3.1,0,0,0-3.09-2.94,3.19,3.19,0,0,0-1.38.33l-19-32.86a3.1,3.1,0,0,0,0-5.2l19-32.89a3,3,0,0,0,1.4.35,3.1,3.1,0,0,0,3.09-2.94h38A3.1,3.1,0,0,0,579.31,53a3,3,0,0,0,1.4-.35l19,32.88a3.1,3.1,0,0,0,0,5.21l-7.89,13.66-11.1,19.22a3,3,0,0,0-1.4-.35,3.1,3.1,0,0,0-3.1,2.97ZM70,391.36,51,358.48a3.1,3.1,0,0,0,0-5.2L70,320.4a3.25,3.25,0,0,0,1.39.35,3.11,3.11,0,0,0,3.1-2.94h37.84a2.4,2.4,0,0,0,0,.28,3.13,3.13,0,0,0,3.11,3.11,3.08,3.08,0,0,0,1.71-.52L136,353.28a3.11,3.11,0,0,0,0,5.2l-19,32.88a3.06,3.06,0,0,0-4.48,2.6h-38a3.1,3.1,0,0,0-3.1-2.94,3.14,3.14,0,0,0-1.42.34ZM3.79,429.61l-19-32.88a3.1,3.1,0,0,0,1.41-2.6,3.12,3.12,0,0,0-1.41-2.61l19-32.87a3.14,3.14,0,0,0,1.4.34,3.09,3.09,0,0,0,3.09-2.94h38a3.09,3.09,0,0,0,4.49,2.6l19,32.87a3.11,3.11,0,0,0,0,5.21l-19,32.88a3.07,3.07,0,0,0-1.41-.35,3.11,3.11,0,0,0-3.09,2.94h-38a3.11,3.11,0,0,0-3.1-2.94,3,3,0,0,0-1.38.35Zm-1.71,2.76a3.11,3.11,0,0,0,6.21.17h38a3.11,3.11,0,1,0,4.79-2.77l19-32.88a3.189,3.189,0,0,0,1.4.35,3.12,3.12,0,0,0,3.1-2.95h38a3.09,3.09,0,0,0,3.09,2.94,3,3,0,0,0,1.39-.34l19,32.88a3.1,3.1,0,1,0,4.79,2.77h38a3.1,3.1,0,1,0,4.79-2.77l19-32.88a3.08,3.08,0,0,0,4.48-2.6h38a3.1,3.1,0,1,0,6.2-.17,3.05,3.05,0,0,0-1.41-2.6l19-32.88a3.107,3.107,0,1,0,1.4-5.88,3.19,3.19,0,0,0-1.4.35l-19-32.88a3.1,3.1,0,1,0-4.79-2.77H207a3.09,3.09,0,0,0-4.5-2.6l-19-32.87a3.109,3.109,0,0,0-.02-5.22l19-32.87a3.33,3.33,0,0,0,1.4.35,3.11,3.11,0,0,0,3.1-2.95h38a3.09,3.09,0,0,0,4.49,2.6l19,32.88a3.129,3.129,0,1,0,4.78,2.77h38a3.1,3.1,0,1,0,4.79-2.77l19-32.88a3.08,3.08,0,0,0,4.5-2.6h38a3.07,3.07,0,0,0,4.49,2.6l19,32.88a3.1,3.1,0,1,0,4.79,2.77h38a3.1,3.1,0,0,0,3.09,2.94,3.06,3.06,0,0,0,1.4-.35l19,32.88A3.11,3.11,0,1,0,472,317.8h38a3.1,3.1,0,1,0,4.78-2.77l19-32.88a3,3,0,0,0,1.4.35,3.1,3.1,0,0,0,3.09-2.94h38a3.1,3.1,0,0,0,3.1,2.94,3,3,0,0,0,1.39-.35l19,32.88a3.11,3.11,0,1,0,4.79,2.77h38a3.1,3.1,0,1,0,4.79-2.77l19-32.88a3.06,3.06,0,0,0,1.4.35,3.11,3.11,0,1,0,0-6.22,3,3,0,0,0-1.4.35l-19-32.88a3.1,3.1,0,1,0-4.78-2.77h-38a3.094,3.094,0,0,0-4.5-2.6L581,205.5a3.1,3.1,0,0,0,0-5.2l19-32.89a3,3,0,0,0,1.41.36,3.1,3.1,0,0,0,3.09-3h38a3.11,3.11,0,1,0,4.79-2.78l19-32.88a3.078,3.078,0,0,0,4.5-2.59h38a3.11,3.11,0,1,0,4.79-2.77l19-32.88a3.34,3.34,0,0,0,1.41.35,3.11,3.11,0,0,0,3.09-3h38a3.1,3.1,0,0,0,3.09,3,3.15,3.15,0,0,0,1.4-.35l19,32.88a3.11,3.11,0,1,0,4.8,2.77h38a3.1,3.1,0,1,0,6.2-.17,3.07,3.07,0,0,0-1.41-2.6l19-32.88a3,3,0,0,0,1.39.35,3.11,3.11,0,0,0,3.1-3h38a3.06,3.06,0,0,0,4.5,2.58l19,32.9a3.1,3.1,0,0,0,0,5.18l-19.45,33.4a3.249,3.249,0,0,0-1.29-.29,3.13,3.13,0,0,0-3,2.5H869.49a3.1,3.1,0,1,0-4.83,2.75l-19,32.88a3.141,3.141,0,0,0-1.37-.33,3.1,3.1,0,0,0-3.09,2.94h-38a3.1,3.1,0,1,0-4.83,2.75l-19,32.88a3.12,3.12,0,1,0,0,5.57l19,32.88a3.11,3.11,0,1,0,4.84,2.75h38a3.1,3.1,0,0,0,3.1,2.94,3,3,0,0,0,1.36-.33l19,32.86a3.11,3.11,0,1,0,4.79,2.77h38a3.1,3.1,0,1,0,4.79-2.77l19-32.89a3,3,0,0,0,1.43.36,3.11,3.11,0,0,0,0-6.22,3,3,0,0,0-1.43.37l-19-32.88a3.1,3.1,0,0,0,0-5.25l19-32.88a3.051,3.051,0,0,0,1.44.37,3.09,3.09,0,0,0,3.09-2.94h38a3.09,3.09,0,0,0,4.49,2.6l19,32.87a3.11,3.11,0,1,0,4.79,2.77h38a3.11,3.11,0,0,0,3.09,2.95,3.19,3.19,0,0,0,1.41-.35l19,32.88a3.1,3.1,0,1,0,4.79,2.77h38a3.1,3.1,0,1,0,4.78-2.77l19-32.88a2.939,2.939,0,0,0,1.41.34,3.1,3.1,0,0,0,3.09-2.94h38a3.1,3.1,0,1,0,6.2-.17,3.14,3.14,0,0,0-1.41-2.6l19-32.88a3,3,0,0,0,1.4.35,3.11,3.11,0,1,0-1.41-5.87l-19-32.88a3.11,3.11,0,1,0-4.79-2.78h-38a3.1,3.1,0,1,0-4.79,2.77l-19,32.88a3.059,3.059,0,0,0-1.4-.35,3.11,3.11,0,0,0-3.1,2.94h-38a3.11,3.11,0,0,0-3.1-2.94,3,3,0,0,0-1.39.35l-19-32.89a3.11,3.11,0,0,0,0-5.19l19-32.88a3.07,3.07,0,0,0,4.47-2.6h38a3.1,3.1,0,1,0,4.83-2.75L1130,91a2.929,2.929,0,0,0,1.36.32,3.1,3.1,0,0,0,3.09-2.94h38a3.12,3.12,0,0,0,3.1,3,3,3,0,0,0,1.42-.37l19,32.88a3.1,3.1,0,1,0,4.75,2.79h38a3.1,3.1,0,0,0,6.2-.17,3.15,3.15,0,0,0-1.39-2.59l19-32.87a3.25,3.25,0,0,0,1.36.33,3.1,3.1,0,0,0,3.09-2.94h38a3.1,3.1,0,0,0,3.09,2.94,3.15,3.15,0,0,0,1.4-.35l19,32.87a3.11,3.11,0,1,0,4.78,2.78h38a3.11,3.11,0,1,0,4.79-2.77l19-32.88a2.94,2.94,0,0,0,1.41.34,3.105,3.105,0,1,0-1.4-5.87l-19-32.88a3.1,3.1,0,1,0-4.79-2.76h-38a3.1,3.1,0,0,0-3.09-2.94,3,3,0,0,0-1.4.35l-19-32.89a3.1,3.1,0,1,0-4.8-2.76h-38a3.1,3.1,0,0,0-3.09-2.95,3.2,3.2,0,0,0-1.38.34l-.29.16a3.1,3.1,0,0,0-.01,5.23l-19,32.89a3,3,0,0,0-1.43-.37,3.1,3.1,0,0,0-3.09,2.94h-38a3.1,3.1,0,0,0-3.09-2.94,3,3,0,0,0-1.37.33l-19-32.88a3.1,3.1,0,0,0,0-5.17l-.3-.16a3,3,0,0,0-1.42-.36,3.09,3.09,0,0,0-3.09,2.94h-38a3.1,3.1,0,1,0-4.76,2.78l-19,32.89a3.06,3.06,0,0,0-1.45-.37,3.1,3.1,0,0,0-3.09,2.94h-38a3.11,3.11,0,0,0-6.21.17,3.07,3.07,0,0,0,1.46,2.62l-19,32.89a3.05,3.05,0,0,0-1.44-.37,3.09,3.09,0,0,0-3.09,2.94h-38a3.09,3.09,0,0,0-4.49-2.6l-19-32.88a3.11,3.11,0,1,0-4.8-2.77h-38a3.1,3.1,0,0,0-3.09-2.94,3,3,0,0,0-1.39.34l-19-32.87a3.11,3.11,0,1,0-4.8-2.77h-38a3.1,3.1,0,1,0-4.76,2.78l-19,32.88a3.079,3.079,0,0,0-4.52,2.58h-38a3.1,3.1,0,0,0-3.09-2.94,3.23,3.23,0,0,0-1.39.33l-19-32.87a3.11,3.11,0,0,0,0-5.2l19-32.88a3.071,3.071,0,0,0,1.41.35A3.1,3.1,0,0,0,803-26.29h38a3.1,3.1,0,0,0,3.09,2.94,3.11,3.11,0,0,0,3.11-3.11,3.12,3.12,0,0,0-1.2-2.72l19-32.87a3.14,3.14,0,0,0,1.4.34,3.1,3.1,0,0,0,3.09-2.94h38a3.11,3.11,0,0,0,3.1,2.94,3.1,3.1,0,0,0,2.2-.9,3.1,3.1,0,0,0,.911-2.2,3.12,3.12,0,0,0-1.42-2.61l19-32.89a3.08,3.08,0,0,0,1.42.36,3.11,3.11,0,0,0,3.09-2.94v-.34a3.1,3.1,0,0,0-3.09-2.94,3,3,0,0,0-1.4.35l-19-32.88a3.13,3.13,0,0,0,1.42-2.61,3.1,3.1,0,0,0-1.42-2.6l-.29-.16a3.12,3.12,0,0,0-1.4-.35,3.1,3.1,0,0,0-3.09,2.95h-38a3.11,3.11,0,0,0-3.09-2.95,3.12,3.12,0,0,0-1.4.35l-19-32.88a3.1,3.1,0,0,0,1.42-2.6,3.1,3.1,0,0,0-1.42-2.6l19-32.88a3.11,3.11,0,0,0,1.4.34,3.11,3.11,0,0,0,3.11-3.11,3.13,3.13,0,0,0-3.11-3.11,3.12,3.12,0,0,0-1.4.35l-19-32.88a3.1,3.1,0,0,0,1.42-2.6,3.11,3.11,0,0,0-3.11-3.11,3.11,3.11,0,0,0-3.1,2.94h-38a3.08,3.08,0,0,0-3.08-2.94,3.12,3.12,0,0,0-2.243.91A3.12,3.12,0,0,0,797-256a3.15,3.15,0,0,0,1.41,2.61l-19,32.87a3.12,3.12,0,0,0-1.4-.35,3.13,3.13,0,0,0-3.11,3.11,3.12,3.12,0,0,0,3.11,3.11,3.11,3.11,0,0,0,1.4-.34l19,32.88a3.1,3.1,0,0,0-1.42,2.6,3.1,3.1,0,0,0,1.42,2.6l-19,32.88a3,3,0,0,0-1.4-.35,3.1,3.1,0,0,0-2.2.912,3.1,3.1,0,0,0-.9,2.2,3.1,3.1,0,0,0,.9,2.2,3.1,3.1,0,0,0,2.2.912,3.11,3.11,0,0,0,1.4-.34l19,32.88a3.1,3.1,0,0,0-1.42,2.6,3.09,3.09,0,0,0,1.41,2.6l-19,32.88a3,3,0,0,0-1.4-.35,3.11,3.11,0,0,0-3.09,3H737a3.11,3.11,0,0,0-3.1-3,3.26,3.26,0,0,0-1.4.35l-19-32.88a3.09,3.09,0,0,0,1.41-2.6,3.11,3.11,0,0,0-3.11-3.11,3.1,3.1,0,0,0-3.09,2.94h-38a3.1,3.1,0,0,0-3.09-2.94,3.11,3.11,0,0,0-3.11,3.11,3.09,3.09,0,0,0,1.41,2.6l-19,32.9a3,3,0,0,0-1.43-.37,3.11,3.11,0,0,0-3.09,3H604.46a3.11,3.11,0,0,0-3.1-3,3.12,3.12,0,0,0-1.4.35l-19-32.88a3.09,3.09,0,0,0,1.41-2.6,3.11,3.11,0,0,0-3.11-3.11,3.1,3.1,0,0,0-3.09,2.94h-38a3.11,3.11,0,0,0-3.1-2.94,3.06,3.06,0,0,0-1.4.35l-19-32.88a3.11,3.11,0,0,0,1.41-2.61,3.11,3.11,0,0,0-3.11-3.11,3.11,3.11,0,0,0-3.09,2.95H472a3.11,3.11,0,0,0-3.09-2.95,3.11,3.11,0,0,0-3.11,3.11,3.13,3.13,0,0,0,1.41,2.61l-19,32.88a3,3,0,0,0-1.4-.35,3.1,3.1,0,0,0-3.09,2.94h-38a3.1,3.1,0,0,0-3.09-2.94,3.11,3.11,0,0,0-3.11,3.11,3.09,3.09,0,0,0,1.41,2.6l-19,32.88a3.15,3.15,0,0,0-1.4-.35,3.1,3.1,0,0,0-3.09,3h-38a3.11,3.11,0,0,0-3.09-3,3.12,3.12,0,0,0-1.4.35l-19-32.88a3.1,3.1,0,0,0,1.42-2.6,3.11,3.11,0,0,0-3.11-3.11,3.09,3.09,0,0,0-3.09,2.94h-38a3.11,3.11,0,0,0-3.1-2.94,3.11,3.11,0,0,0-3.11,3.11,3.1,3.1,0,0,0,1.42,2.6l-19,32.88a3.12,3.12,0,0,0-1.4-.35,3.11,3.11,0,0,0-3.1,3.11,3.1,3.1,0,0,0,.9,2.2,3.1,3.1,0,0,0,2.2.912,3.11,3.11,0,0,0,1.4-.34l19,32.88a3.1,3.1,0,0,0-1.42,2.6,3.11,3.11,0,0,0,3.11,3.11,3.11,3.11,0,0,0,3.1-2.94h38a3.11,3.11,0,0,0,3.1,2.94,3,3,0,0,0,1.4-.35l19,32.88a3.1,3.1,0,1,0,4.79,2.77h38a3.11,3.11,0,0,0,3.09,2.95,3.07,3.07,0,0,0,1.41-.36l19,32.9a3.11,3.11,0,0,0,0,5.19L382,85.41A3.09,3.09,0,0,0,377.45,88h-38a3.1,3.1,0,1,0-4.78,2.77l-19,32.88a3,3,0,0,0-1.4-.35,3.11,3.11,0,0,0,0,6.22,3,3,0,0,0,1.4-.35l19,32.88a3.1,3.1,0,0,0,0,5.2l-19,32.89a3.15,3.15,0,0,0-1.4-.35,3.1,3.1,0,0,0-3.1,2.94h-38a3.1,3.1,0,0,0-3.09-2.94,3,3,0,0,0-1.4.35l-19-32.88a3.11,3.11,0,1,0-4.79-2.77H207a3.1,3.1,0,1,0-4.79,2.77l-19,32.87a3.09,3.09,0,0,0-4.49,2.6h-38A3.1,3.1,0,1,0,136,205.5l-19,32.88a3.11,3.11,0,1,0-1.4,5.88,3.259,3.259,0,0,0,1.4-.35l19,32.89a3.1,3.1,0,0,0,0,5.19l-19.21,33.28a3.18,3.18,0,0,0-1.31-.29,3.12,3.12,0,0,0-3,2.49H74.53a3.1,3.1,0,1,0-4.79,2.77l-19,32.88a3.07,3.07,0,0,0-4.49,2.59h-38a3.11,3.11,0,1,0-4.79,2.78l-19,32.88a3,3,0,0,0-1.4-.35A3.11,3.11,0,0,0-20,394.13a3.1,3.1,0,0,0,.912,2.2,3.1,3.1,0,0,0,2.2.9,3.11,3.11,0,0,0,1.4-.34l19,32.88A3.11,3.11,0,0,0,2.08,432.37ZM841.16-179.72h-38a3.09,3.09,0,0,0-3.09-2.94,3,3,0,0,0-1.39.35l-19-32.88a3.12,3.12,0,0,0,1.41-2.61,3.1,3.1,0,0,0-1.41-2.6l19-32.88a3,3,0,0,0,1.4.35,3.09,3.09,0,0,0,3.09-2.94h38a3.11,3.11,0,0,0,3.1,2.94,3,3,0,0,0,1.4-.35l19,32.88a3.1,3.1,0,0,0-1.41,2.6,3.12,3.12,0,0,0,1.41,2.61l-19,32.88a3.07,3.07,0,0,0-1.41-.35A3.1,3.1,0,0,0,841.16-179.72ZM864.93-67.58l-19-32.88a3.14,3.14,0,0,0,1.41-2.6,3.12,3.12,0,0,0-1.42-2.6l7.95-13.76,11-19.12a3.26,3.26,0,0,0,1.4.35,3.12,3.12,0,0,0,3.09-2.95h38a3.09,3.09,0,0,0,3.09,2.94,3.1,3.1,0,0,0,1.39-.34l19,32.88a3.09,3.09,0,0,0-1.4,2.6,3.11,3.11,0,0,0,1.4,2.6l-19,32.88a3.15,3.15,0,0,0-1.4-.35,3.11,3.11,0,0,0-3.09,3h-38a3.11,3.11,0,0,0-3.09-3,3,3,0,0,0-1.33.35Zm-23.77-35.65h-38a3.09,3.09,0,0,0-3.09-2.94,3,3,0,0,0-1.4.35l-19-32.88a3.1,3.1,0,0,0,1.41-2.6,3.12,3.12,0,0,0-1.41-2.61l19-32.88a3,3,0,0,0,1.39.35,3.09,3.09,0,0,0,3.09-2.95h38a3.1,3.1,0,0,0,3.09,2.94,3.07,3.07,0,0,0,1.41-.35l19,32.88a3.09,3.09,0,0,0-1.41,2.6,3.11,3.11,0,0,0,1.41,2.61l-7.94,13.75-11,19.13a3.06,3.06,0,0,0-1.4-.35A3.11,3.11,0,0,0,841.16-103.23Zm-61.45,41a3.11,3.11,0,0,0,1.41-2.61,3.08,3.08,0,0,0-1.42-2.6l19-32.88a3,3,0,0,0,1.4.35,3.1,3.1,0,0,0,3.09-2.94h38a3.11,3.11,0,0,0,3.1,2.94,3,3,0,0,0,1.39-.35l19,32.88a3.1,3.1,0,0,0-1.41,2.6,3.09,3.09,0,0,0,1.41,2.6l-19,32.88a3.1,3.1,0,0,0-1.39-.34,3.09,3.09,0,0,0-3.09,2.94h-38a3.08,3.08,0,0,0-3.09-2.94,3,3,0,0,0-1.4.35Zm-378.78,186a3.1,3.1,0,0,0,0,5.2l-19,32.88a3.18,3.18,0,0,0-1.4-.34,3.11,3.11,0,0,0-3.1,2.94h-38a3.11,3.11,0,0,0-3.1-2.94,3.18,3.18,0,0,0-1.4.34L316,129a3.09,3.09,0,0,0,0-5.2l19-32.88a3.19,3.19,0,0,0,1.4.35,3.12,3.12,0,0,0,3.1-3h38a3.09,3.09,0,0,0,3.09,3,3.15,3.15,0,0,0,1.4-.35Zm4.8-73.72h38A3.1,3.1,0,0,0,446.8,53a3,3,0,0,0,1.4-.35l19,32.88a3.11,3.11,0,0,0,0,5.21l-19,32.87a3.08,3.08,0,0,0-4.48,2.6h-38a3.1,3.1,0,0,0-3.09-3,3,3,0,0,0-1.4.35l-19-32.88a3.1,3.1,0,0,0,0-5.2l19-32.89a3.06,3.06,0,0,0,1.4.35,3.1,3.1,0,0,0,3.1-2.85Zm63.14,111.46a3.11,3.11,0,0,0-1.4.34l-19-32.87a3.1,3.1,0,0,0,0-5.21l19-32.88a3.08,3.08,0,0,0,4.5-2.59h38a3.08,3.08,0,0,0,4.47,2.7l19,32.86a3.1,3.1,0,0,0,0,5.2l-19,32.88a3.09,3.09,0,0,0-4.49,2.6H472a3.1,3.1,0,0,0-3.13-2.99Zm-134.22-229a3.1,3.1,0,0,0-1.41,2.6,3.11,3.11,0,0,0,1.41,2.61l-.5.87-18.48,32a3,3,0,0,0-1.4-.35,3.11,3.11,0,0,0-3.1,2.94h-38a3.11,3.11,0,0,0-3.1-2.94,3,3,0,0,0-1.4.35l-19-32.88a3.08,3.08,0,0,0,1.41-2.6,3.07,3.07,0,0,0-1.41-2.61l19-32.88a3,3,0,0,0,1.4.35,3.11,3.11,0,0,0,3.1-2.94h38a3.09,3.09,0,0,0,3.09,2.94,3,3,0,0,0,1.4-.35ZM400.9-29.17a3.09,3.09,0,0,0-1.41,2.6A3.1,3.1,0,0,0,400.9-24l-19,32.88a3,3,0,0,0-1.4-.34,3.1,3.1,0,0,0-3.09,2.94h-38a3.11,3.11,0,0,0-3.09-2.95,3,3,0,0,0-1.4.35L316-24a3.09,3.09,0,0,0,1.41-2.6,3.08,3.08,0,0,0-1.42-2.6l19-32.88a3.19,3.19,0,0,0,1.41.34,3.1,3.1,0,0,0,3.09-2.94h38a3.11,3.11,0,0,0,3.1,2.94,3.1,3.1,0,0,0,1.39-.34Zm4.79,2.77h38a3.08,3.08,0,0,0,3.09,2.94,3.07,3.07,0,0,0,1.41-.35l19,32.88a3.1,3.1,0,0,0,0,5.21l-19,32.86a3.08,3.08,0,0,0-4.46,2.61h-38a3.08,3.08,0,0,0-4.52-2.58l-19-32.9a3.09,3.09,0,0,0,0-5.19l19-32.89a3,3,0,0,0,1.4.35,3.1,3.1,0,0,0,3.08-2.94Zm61.46-41a3.11,3.11,0,0,0-1.4,2.59,3.12,3.12,0,0,0,1.4,2.6l-19,32.88a3.14,3.14,0,0,0-1.4-.34,3.1,3.1,0,0,0-3.09,2.94h-38a3.1,3.1,0,0,0-3.09-2.94,3,3,0,0,0-1.4.35l-19-32.88a3.11,3.11,0,0,0,1.42-2.6,3.09,3.09,0,0,0-1.42-2.61l19-32.88a3,3,0,0,0,1.39.35,3.11,3.11,0,0,0,3.1-2.94h38a3.1,3.1,0,0,0,3.09,2.94,3.1,3.1,0,0,0,1.39-.34Zm66.26-38.25a3.1,3.1,0,0,0-1.42,2.6,3.1,3.1,0,0,0,1.42,2.6l-19,32.87a3.1,3.1,0,0,0-1.39-.34A3.1,3.1,0,0,0,510-65H472a3.11,3.11,0,0,0-3.09-3,3.15,3.15,0,0,0-1.4.35l-19-32.88a3.09,3.09,0,0,0,1.41-2.6,3.09,3.09,0,0,0-1.41-2.6l19-32.88a3.11,3.11,0,0,0,1.4.34,3.1,3.1,0,0,0,3.09-2.94h38a3.1,3.1,0,0,0,3,3.01,3.11,3.11,0,0,0,1.4-.34Zm47.27,5.36,19,32.88a3.12,3.12,0,0,0-1.42,2.61,3.11,3.11,0,0,0,1.41,2.59l-19,32.89a3,3,0,0,0-1.4-.35,3.1,3.1,0,0,0-3.09,2.94h-38a3.1,3.1,0,0,0-3.09-2.94,3,3,0,0,0-1.4.35l-19-32.88a3.12,3.12,0,0,0,1.42-2.61,3.13,3.13,0,0,0-1.41-2.6l19-32.87a3.07,3.07,0,0,0,1.39.34,3.1,3.1,0,0,0,3.09-2.94h38a3.1,3.1,0,0,0,3.09,2.94,3,3,0,0,0,1.41-.36ZM665.9-29.18a3.1,3.1,0,0,0-1.44,2.61A3.1,3.1,0,0,0,665.9-24l-19,32.88a3.06,3.06,0,0,0-4.5,2.59h-38a3.11,3.11,0,0,0-3.1-2.95,3.19,3.19,0,0,0-1.4.35L581-24a3.12,3.12,0,0,0,1.42-2.6,3.15,3.15,0,0,0-1.41-2.6l19-32.89a3.06,3.06,0,0,0,1.4.35,3.11,3.11,0,0,0,3.1-2.94H642.4a3.1,3.1,0,0,0,3.1,2.94,3,3,0,0,0,1.41-.36Zm66.25-38.24a3.13,3.13,0,0,0-1.41,2.6,3.09,3.09,0,0,0,1.42,2.6l-8,13.79-11,19.1a3,3,0,0,0-1.4-.35,3.09,3.09,0,0,0-3.09,2.94h-38a3.11,3.11,0,0,0-3.1-2.94,3.14,3.14,0,0,0-1.37.33l-19-32.88a3.1,3.1,0,0,0,1.39-2.58,3.09,3.09,0,0,0-1.38-2.59l19-32.9a3.07,3.07,0,0,0,1.41.35,3.1,3.1,0,0,0,3.09-3h38a3.11,3.11,0,0,0,3.09,3,3,3,0,0,0,1.4-.35ZM774.93,11.5h-38a3.12,3.12,0,0,0-3.1-2.95,3,3,0,0,0-1.38.35L713.47-24a3.09,3.09,0,0,0,1.41-2.6,3.09,3.09,0,0,0-1.41-2.6l8-13.79,11-19.09a3.14,3.14,0,0,0,1.4.34,3.11,3.11,0,0,0,3.1-2.94h38a3.1,3.1,0,0,0,3.1,2.94,3,3,0,0,0,1.39-.34l19,32.88a3.15,3.15,0,0,0-1.41,2.6A3.12,3.12,0,0,0,798.4-24l-19,32.88a3.19,3.19,0,0,0-1.4-.32,3.09,3.09,0,0,0-3.07,2.94ZM642.47,88h-38A3.09,3.09,0,0,0,600,85.4L581,52.52a3.1,3.1,0,1,0-4.79-2.77h-38a3.1,3.1,0,1,0-4.79,2.76l-19,32.88A3.09,3.09,0,0,0,510,88H472a3.09,3.09,0,0,0-4.49-2.6l-19-32.88a3.1,3.1,0,0,0,0-5.22l19-32.86a3.29,3.29,0,0,0,1.4.35,3.12,3.12,0,1,0-1.4-5.88L448.46-24a3.09,3.09,0,0,0,1.41-2.6,3.09,3.09,0,0,0-1.41-2.6l19-32.89a3.11,3.11,0,0,0,1.42.35A3.1,3.1,0,0,0,472-64.65h38a3.1,3.1,0,0,0,3,2.94,3.11,3.11,0,0,0,1.4-.34l19,32.88a3.09,3.09,0,0,0-1.41,2.6,3.11,3.11,0,0,0,3.11,3.11,3.1,3.1,0,0,0,3.09-2.94h38a3.1,3.1,0,0,0,3.09,2.94,3.07,3.07,0,0,0,1.41-.35l19,32.88a3.1,3.1,0,1,0,4.78,2.77h38a3.1,3.1,0,1,0,4.79-2.77l19-32.87a3.06,3.06,0,0,0,1.38.34,3.12,3.12,0,0,0,3.1-2.94h38a3.09,3.09,0,0,0,3.09,2.95,3,3,0,0,0,1.4-.35l19,32.87a3.1,3.1,0,0,0,0,5.24l-19,32.88a3.05,3.05,0,0,0-1.44-.37,3.1,3.1,0,0,0-3.09,2.94h-38a3.1,3.1,0,1,0-6.2.17,3.06,3.06,0,0,0,1.46,2.62L647,85.4a3.09,3.09,0,0,0-4.49,2.6ZM510,241H472a3.07,3.07,0,0,0-4.49-2.59l-19-32.88a3.11,3.11,0,1,0-4.8-2.76h-38a3.1,3.1,0,0,0-3.09-2.94,3,3,0,0,0-1.4.35l-19-32.88a3.1,3.1,0,0,0,1.42-2.61,3.14,3.14,0,0,0-1.42-2.6l19-32.88a3,3,0,0,0,1.39.35,3.1,3.1,0,0,0,3.1-2.94h38a3.069,3.069,0,0,0,4.49,2.59l19,32.88a3.11,3.11,0,1,0,4.78,2.77h38a3.07,3.07,0,0,0,4.51,2.59l19,32.89a3.1,3.1,0,0,0,0,5.2l-19,32.88A3.09,3.09,0,0,0,510,241ZM316,205.5a3.11,3.11,0,0,0,0-5.2l19-32.89a3.06,3.06,0,0,0,4.5-2.59h38a3.11,3.11,0,0,0,3.1,3,3,3,0,0,0,1.39-.35l19,32.88a3.1,3.1,0,0,0,0,5.2l-19,32.88a3.26,3.26,0,0,0-1.4-.35,3.09,3.09,0,0,0-3.08,2.95h-38a3.09,3.09,0,0,0-3.09-2.94,3,3,0,0,0-1.39.34Zm-47.27,71.13-19-32.88a3.1,3.1,0,0,0,0-5.21l8.07-14,10.92-18.92a3,3,0,0,0,1.4.35,3.1,3.1,0,0,0,3.09-2.94h38a3.1,3.1,0,0,0,3.09,2.94,3,3,0,0,0,1.4-.35l19,32.88a3.1,3.1,0,0,0,0,5.21l-19,32.88a3.076,3.076,0,0,0-4.5,2.65h-38a3.1,3.1,0,0,0-3.09-3,3,3,0,0,0-1.39.39ZM183.5,205.5a3.09,3.09,0,0,0,0-5.2l19-32.89a3,3,0,0,0,1.4.35,3.1,3.1,0,0,0,3.09-2.94h38a3.08,3.08,0,0,0,3.09,2.94,3,3,0,0,0,1.4-.35l19,32.89a3.09,3.09,0,0,0,0,5.2l-8.07,14-10.92,18.91A3.09,3.09,0,0,0,245,241H207a3.11,3.11,0,0,0-3.1-2.94,3.18,3.18,0,0,0-1.4.34Zm-4.76,73.72h-38a3.07,3.07,0,0,0-4.51-2.59l-19-32.89a3.1,3.1,0,0,0,0-5.21l19-32.88a3.06,3.06,0,0,0,1.4.35,3.11,3.11,0,0,0,3.1-2.94h38a3.08,3.08,0,0,0,4.48,2.6l19,32.88a3.1,3.1,0,0,0,0,5.2l-19,32.87a3,3,0,0,0-1.37-.34,3.11,3.11,0,0,0-3.1,2.95Zm0,76.49h-38a3.07,3.07,0,0,0-4.49-2.59l-18.86-32.65a3.05,3.05,0,0,0,1.14-2.38,3.12,3.12,0,0,0-1.51-2.66l19.22-33.27a3.26,3.26,0,0,0,1.4.35,3.11,3.11,0,0,0,3.09-2.95h38a3.09,3.09,0,0,0,4.49,2.6l19,32.87a3.11,3.11,0,0,0,0,5.2l-19,32.89a3,3,0,0,0-1.39-.35A3.1,3.1,0,0,0,178.74,355.71Z" transform="translate(20 259.15)" fill="#fff" opacity="0.15"/>
      <path id="Trazado_10371" data-name="Trazado 10371" d="M1219.82,95.43a2.69,2.69,0,0,0,0-4.52l16.48-28.54h0a2.65,2.65,0,0,0,1.22.3,2.7,2.7,0,0,0,2.69-2.55h33a2.7,2.7,0,0,0,2.69,2.56,2.58,2.58,0,0,0,1.21-.3l16.5,28.57a2.69,2.69,0,0,0,0,4.52L1277.14,124a2.65,2.65,0,0,0-1.22-.3,2.69,2.69,0,0,0-2.69,2.55h-33a2.69,2.69,0,0,0-2.69-2.55,2.66,2.66,0,0,0-1.2.29Zm-172.7,99.71a2.69,2.69,0,0,0,1.23-2.26,2.73,2.73,0,0,0-1.23-2.26l16.5-28.57a2.78,2.78,0,0,0,1.22.3,2.69,2.69,0,0,0,2.68-2.56h33a2.7,2.7,0,0,0,2.69,2.56,2.78,2.78,0,0,0,1.22-.3l16.49,28.57a2.69,2.69,0,0,0,0,4.52l-16.5,28.57a2.78,2.78,0,0,0-1.22-.3,2.71,2.71,0,0,0-2.69,2.56h-33a2.7,2.7,0,0,0-2.68-2.56,2.84,2.84,0,0,0-1.21.3ZM1006,257l-16.49-28.57a2.7,2.7,0,0,0,0-4.52l16.5-28.57a2.839,2.839,0,0,0,1.21.3A2.71,2.71,0,0,0,1010,193h33a2.68,2.68,0,0,0,2.68,2.55,2.65,2.65,0,0,0,1.22-.3l16.49,28.57a2.74,2.74,0,0,0-1.23,2.26,2.7,2.7,0,0,0,1.23,2.27L1046.86,257a2.651,2.651,0,0,0-1.22-.3,2.69,2.69,0,0,0-2.69,2.56h-33a2.68,2.68,0,0,0-2.68-2.56,2.65,2.65,0,0,0-1.27.3Zm-74-61.86a2.69,2.69,0,0,0,0-4.52L948.48,162a2.66,2.66,0,0,0,1.22.31,2.7,2.7,0,0,0,2.69-2.56h33A2.67,2.67,0,0,0,989.3,162l16.49,28.58a2.7,2.7,0,0,0,0,4.52L989.3,223.68a2.53,2.53,0,0,0-1.22-.3,2.67,2.67,0,0,0-2.68,2.55h-33a2.7,2.7,0,0,0-2.68-2.56,2.89,2.89,0,0,0-1.22.3Zm230.28-133a2.7,2.7,0,0,0,0-4.48l16.49-28.59a2.88,2.88,0,0,0,1.21.3,2.7,2.7,0,0,0,2.68-2.56h33a2.69,2.69,0,0,0,3.92,2.25l16.49,28.58a2.7,2.7,0,0,0,0,4.52l-16.49,28.57a2.78,2.78,0,0,0-1.22-.3,2.69,2.69,0,0,0-2.69,2.56h-33a2.68,2.68,0,0,0-2.68-2.56,2.65,2.65,0,0,0-1.19.29Zm-57.57,33.24a2.71,2.71,0,0,0,0-4.49l16.49-28.57a2.78,2.78,0,0,0,1.19.28,2.7,2.7,0,0,0,2.69-2.56h33a2.7,2.7,0,0,0,2.69,2.56,2.6,2.6,0,0,0,1.24-.32l16.5,28.58a2.69,2.69,0,0,0,0,4.55L1162,124a2.78,2.78,0,0,0-1.24-.31,2.69,2.69,0,0,0-2.69,2.56h-33a2.71,2.71,0,0,0-2.69-2.56,2.86,2.86,0,0,0-1.19.29ZM837.26,226.26h33a2.69,2.69,0,0,0,2.68,2.56,2.72,2.72,0,0,0,1.2-.29l16.49,28.58a2.67,2.67,0,0,0-1.21,2.24,2.7,2.7,0,0,0,1.2,2.25l-16.5,28.59a2.53,2.53,0,0,0-1.22-.3,2.68,2.68,0,0,0-2.68,2.55h-33a2.71,2.71,0,0,0-2.69-2.56,2.76,2.76,0,0,0-1.22.31l-16.49-28.56a2.68,2.68,0,0,0,0-4.55l16.49-28.58a2.67,2.67,0,0,0,3.94-2.24ZM1063.63,90.75l-16.5-28.57a2.7,2.7,0,0,0,0-4.48l16.5-28.58a2.64,2.64,0,0,0,1.19.28,2.7,2.7,0,0,0,2.69-2.55h33a2.67,2.67,0,0,0,2.68,2.55,2.62,2.62,0,0,0,1.24-.31l16.49,28.57a2.7,2.7,0,0,0-1.25,2.28,2.67,2.67,0,0,0,1.25,2.27l-16.5,28.58a2.6,2.6,0,0,0-1.24-.32A2.7,2.7,0,0,0,1100.5,93h-33a2.69,2.69,0,0,0-2.69-2.56,2.59,2.59,0,0,0-1.18.31ZM985.39,159.5h-33a2.66,2.66,0,0,0-3.91-2.25L932,128.67a2.69,2.69,0,0,0,0-4.52l16.49-28.57a2.66,2.66,0,0,0,3.89-2.26h33a2.71,2.71,0,0,0,2.69,2.56,2.6,2.6,0,0,0,1.24-.32l16.49,28.57a2.7,2.7,0,0,0,0,4.55l-16.5,28.57a2.73,2.73,0,0,0-1.23-.31,2.68,2.68,0,0,0-2.68,2.56Zm-90.57-32.95h33a2.69,2.69,0,0,0,2.69,2.55,2.72,2.72,0,0,0,1.2-.29l16.49,28.57a2.71,2.71,0,0,0,0,4.51l-16.49,28.57a2.68,2.68,0,0,0-3.89,2.27h-33a2.67,2.67,0,0,0-3.92-2.24l-16.38-28.37a2.68,2.68,0,0,0-.33-4.4l16.7-28.92a2.621,2.621,0,0,0,1.24.31,2.68,2.68,0,0,0,2.69-2.56Zm94.74-31.14a2.7,2.7,0,0,0,0-4.48l16.49-28.58a2.65,2.65,0,0,0,1.19.29,2.7,2.7,0,0,0,2.69-2.56h33a2.67,2.67,0,0,0,3.94,2.24l16.49,28.57a2.69,2.69,0,0,0,0,4.56L1046.87,124a2.56,2.56,0,0,0-1.26-.32,2.7,2.7,0,0,0-2.68,2.56h-33a2.7,2.7,0,0,0-2.69-2.55,2.64,2.64,0,0,0-1.19.28Zm-115.28,66.9,16.36,28.33a2.67,2.67,0,0,0-1.2,2.24,2.72,2.72,0,0,0,1.2,2.25l-16.5,28.57a2.521,2.521,0,0,0-1.19-.28,2.67,2.67,0,0,0-2.68,2.55h-33a2.69,2.69,0,0,0-2.68-2.56,2.86,2.86,0,0,0-1.25.32l-16.5-28.57a2.69,2.69,0,0,0,0-4.56L833.33,162a2.61,2.61,0,0,0,1.25.32,2.69,2.69,0,0,0,2.68-2.56h32.89a1.932,1.932,0,0,0,0,.24,2.69,2.69,0,0,0,4.15,2.28Zm-41.21,61.57a2.69,2.69,0,0,0-1.2,2.24,2.73,2.73,0,0,0,1.19,2.24l-16.49,28.57a2.73,2.73,0,0,0-1.18-.28,2.7,2.7,0,0,0-2.69,2.56h-33a2.7,2.7,0,0,0-2.69-2.56,2.83,2.83,0,0,0-1.26.32L759.26,228.4a2.7,2.7,0,0,0,1.27-2.28,2.73,2.73,0,0,0-1.27-2.28l16.5-28.58a2.61,2.61,0,0,0,1.25.33A2.71,2.71,0,0,0,779.7,193h33a2.69,2.69,0,0,0,2.68,2.55,2.64,2.64,0,0,0,1.19-.28Zm115.14-133a2.7,2.7,0,0,0,0,4.53L931.72,124a2.72,2.72,0,0,0-1.2-.29,2.68,2.68,0,0,0-2.69,2.55h-33a2.68,2.68,0,0,0-2.68-2.56,2.64,2.64,0,0,0-1.23.31L874.4,95.43a2.69,2.69,0,0,0,0-4.51l16.5-28.58a2.639,2.639,0,0,0,1.21.3,2.71,2.71,0,0,0,2.69-2.56h33a2.7,2.7,0,0,0,2.69,2.56,2.75,2.75,0,0,0,1.22-.3ZM586.55,261.61a2.7,2.7,0,0,0,0-4.52L603,228.53h0a2.78,2.78,0,0,0,1.22.3,2.7,2.7,0,0,0,2.68-2.56h33a2.67,2.67,0,0,0,3.9,2.26l16.5,28.57a2.69,2.69,0,0,0,0,4.52L643.8,290.2a2.47,2.47,0,0,0-1.21-.3,2.69,2.69,0,0,0-2.7,2.55H607a2.7,2.7,0,0,0-2.68-2.56,2.79,2.79,0,0,0-1.22.31ZM529,228.38a2.71,2.71,0,0,0,0-4.53l16.5-28.57a2.58,2.58,0,0,0,1.21.3,2.69,2.69,0,0,0,2.69-2.55h33a2.7,2.7,0,0,0,2.69,2.55,2.78,2.78,0,0,0,1.22-.3l16.5,28.57a2.71,2.71,0,0,0,0,4.53L586.3,257a2.65,2.65,0,0,0-1.22-.3,2.7,2.7,0,0,0-2.69,2.56h-33a2.68,2.68,0,0,0-3.89-2.27ZM775.76,124,759.27,95.44a2.69,2.69,0,0,0,0-4.52l6.84-11.86,9.65-16.71a2.66,2.66,0,0,0,1.2.29,2.7,2.7,0,0,0,2.69-2.56h33a2.67,2.67,0,0,0,3.92,2.25l16.51,28.59a2.68,2.68,0,0,0,0,4.51L816.58,124a2.65,2.65,0,0,0-1.22-.3,2.7,2.7,0,0,0-2.69,2.56h-33a2.69,2.69,0,0,0-2.69-2.55,2.65,2.65,0,0,0-1.22.29Zm41.08-61.83a2.69,2.69,0,0,0,1.2-2.24,2.72,2.72,0,0,0-1.2-2.25l16.49-28.57a2.65,2.65,0,0,0,1.2.28,2.7,2.7,0,0,0,2.69-2.55h33a2.71,2.71,0,0,0,2.69,2.56,2.83,2.83,0,0,0,1.22-.31l16.49,28.57a2.69,2.69,0,0,0,0,4.53L874.15,90.77a2.79,2.79,0,0,0-1.23-.3A2.69,2.69,0,0,0,870.24,93h-33a2.7,2.7,0,0,0-2.69-2.56,2.61,2.61,0,0,0-1.21.3ZM471.4,261.61a2.7,2.7,0,0,0,0-4.52l16.48-28.57a2.61,2.61,0,0,0,1.21.3,2.7,2.7,0,0,0,2.69-2.56h33a2.7,2.7,0,0,0,2.69,2.56,2.61,2.61,0,0,0,1.21-.3l16.49,28.57a2.69,2.69,0,0,0,0,4.52l-16.5,28.57a2.84,2.84,0,0,0-1.21-.3,2.71,2.71,0,0,0-2.69,2.56h-33a2.67,2.67,0,0,0-2.68-2.55,2.62,2.62,0,0,0-1.22.3ZM586.57,128.67a2.69,2.69,0,0,0,0-4.52l6.85-11.87,9.65-16.7a2.74,2.74,0,0,0,1.21.3A2.69,2.69,0,0,0,607,93.32h33a2.67,2.67,0,0,0,3.9,2.26l16.5,28.57a2.69,2.69,0,0,0,0,4.52l-16.5,28.58a2.66,2.66,0,0,0-1.22-.31A2.7,2.7,0,0,0,640,159.5H607a2.69,2.69,0,0,0-2.69-2.56,2.62,2.62,0,0,0-1.21.31Zm-403,232.65a2.7,2.7,0,0,0,0-4.52l16.49-28.57a2.75,2.75,0,0,0,1.22.3A2.68,2.68,0,0,0,204,326h33a2.71,2.71,0,0,0,2.69,2.56,2.74,2.74,0,0,0,1.21-.3l16.49,28.57a2.69,2.69,0,0,0,0,4.52L240.9,389.9a2.661,2.661,0,0,0-1.22-.31,2.7,2.7,0,0,0-2.69,2.56H204a2.71,2.71,0,0,0-2.69-2.56,2.78,2.78,0,0,0-1.22.3Zm74.06-4.66-16.5-28.57a2.7,2.7,0,0,0,0-4.53L257.65,295a2.61,2.61,0,0,0,1.21.3,2.7,2.7,0,0,0,2.7-2.56h33a2.7,2.7,0,0,0,2.69,2.56,2.61,2.61,0,0,0,1.21-.3L315,323.56a2.69,2.69,0,0,0,0,4.52l-16.5,28.58a2.47,2.47,0,0,0-1.21-.3,2.69,2.69,0,0,0-2.69,2.55h-33a2.71,2.71,0,0,0-2.69-2.56,2.59,2.59,0,0,0-1.26.31ZM582.39,192.74h-33a2.66,2.66,0,0,0-3.9-2.26L529,161.9a2.7,2.7,0,0,0,0-4.51l16.5-28.57a2.73,2.73,0,0,0,1.21.29,2.7,2.7,0,0,0,2.69-2.55h33a2.68,2.68,0,0,0,3.89,2.26l16.5,28.57a2.69,2.69,0,0,0,0,4.51l-16.5,28.58a2.65,2.65,0,0,0-1.22-.3A2.7,2.7,0,0,0,582.39,192.74ZM701.7,62.18a2.71,2.71,0,0,0,0-4.49l16.5-28.57a2.641,2.641,0,0,0,1.19.28,2.7,2.7,0,0,0,2.69-2.55h33A2.69,2.69,0,0,0,759,29.1l16.5,28.56a2.71,2.71,0,0,0,0,4.55l-6.83,11.84L759,90.77a2.75,2.75,0,0,0-1.22-.3A2.69,2.69,0,0,0,755.11,93h-33a2.67,2.67,0,0,0-3.9-2.26ZM660.64,124,644.15,95.44a2.71,2.71,0,0,0,0-4.53l16.48-28.55a2.73,2.73,0,0,0,1.18.28,2.7,2.7,0,0,0,2.69-2.56h33a2.7,2.7,0,0,0,2.69,2.56,2.6,2.6,0,0,0,1.24-.32l16.51,28.59a2.73,2.73,0,0,0-1.22,2.26A2.69,2.69,0,0,0,718,95.43L701.45,124a2.61,2.61,0,0,0-1.21-.3,2.69,2.69,0,0,0-2.69,2.55h-33a2.71,2.71,0,0,0-2.69-2.56,2.59,2.59,0,0,0-1.22.31ZM413.82,228.38a2.68,2.68,0,0,0,1.24-2.27,2.71,2.71,0,0,0-1.23-2.26l16.5-28.57a2.64,2.64,0,0,0,1.21.3,2.69,2.69,0,0,0,2.69-2.55h33a2.69,2.69,0,0,0,2.69,2.55,2.58,2.58,0,0,0,1.21-.3l16.5,28.57a2.7,2.7,0,0,0,0,4.53L471.14,257a2.61,2.61,0,0,0-1.21-.3,2.68,2.68,0,0,0-2.68,2.56h-33a2.7,2.7,0,0,0-2.69-2.56,2.62,2.62,0,0,0-1.22.3ZM582.41,126.27h-33a2.68,2.68,0,0,0-3.89-2.26L529,95.44a2.71,2.71,0,0,0,0-4.53l16.5-28.57a2.65,2.65,0,0,0,1.22.3,2.7,2.7,0,0,0,2.69-2.56h33a2.69,2.69,0,0,0,2.69,2.56,2.58,2.58,0,0,0,1.21-.3l16.5,28.57a2.7,2.7,0,0,0,0,4.53L596,107.31,586.31,124a2.58,2.58,0,0,0-1.21-.3A2.7,2.7,0,0,0,582.41,126.27ZM142.52,356.66,126,328.08a2.71,2.71,0,0,0,1.23-2.26,2.75,2.75,0,0,0-1.24-2.26L142.53,295a2.67,2.67,0,0,0,3.9-2.25h32.89a2.414,2.414,0,0,0,0,.25,2.71,2.71,0,0,0,2.7,2.7,2.66,2.66,0,0,0,1.48-.44l16.36,28.32a2.69,2.69,0,0,0,0,4.52l-16.5,28.58a2.58,2.58,0,0,0-1.21-.3,2.68,2.68,0,0,0-2.68,2.55h-33a2.7,2.7,0,0,0-2.69-2.55,2.65,2.65,0,0,0-1.26.28ZM85,389.9,68.5,361.32a2.69,2.69,0,0,0,0-4.52L85,328.23a2.75,2.75,0,0,0,1.22.3A2.69,2.69,0,0,0,88.86,326h33a2.71,2.71,0,0,0,2.69,2.56,2.78,2.78,0,0,0,1.22-.3l16.5,28.57a2.69,2.69,0,0,0,0,4.52l-16.5,28.57a2.78,2.78,0,0,0-1.22-.3,2.7,2.7,0,0,0-2.68,2.56h-33a2.69,2.69,0,0,0-2.68-2.56,2.63,2.63,0,0,0-1.19.28Zm-1.49,2.4a2.7,2.7,0,0,0,5.39.14h33A2.7,2.7,0,1,0,126,390l16.49-28.58a2.65,2.65,0,0,0,1.22.3,2.7,2.7,0,0,0,2.69-2.56h33a2.7,2.7,0,0,0,2.69,2.55,2.61,2.61,0,0,0,1.21-.3L199.83,390a2.674,2.674,0,1,0,4.16,2.41h33a2.7,2.7,0,1,0,4.16-2.41l16.5-28.57a2.58,2.58,0,0,0,1.21.3,2.68,2.68,0,0,0,2.68-2.56h33a2.7,2.7,0,1,0,4.16-2.41l16.5-28.57a2.71,2.71,0,1,0,0-4.81l-16.5-28.57a2.7,2.7,0,1,0-4.16-2.41h-33a2.7,2.7,0,0,0-2.69-2.55,2.62,2.62,0,0,0-1.22.3l-16.5-28.58a2.69,2.69,0,0,0,0-4.53l16.48-28.56a2.78,2.78,0,0,0,1.22.3,2.69,2.69,0,0,0,2.69-2.56h33a2.66,2.66,0,0,0,3.9,2.25l16.5,28.58a2.7,2.7,0,1,0,4.16,2.41h33a2.7,2.7,0,1,0,4.17-2.41l16.49-28.57a2.78,2.78,0,0,0,1.22.3,2.7,2.7,0,0,0,2.69-2.56h33a2.69,2.69,0,0,0,2.69,2.56,2.74,2.74,0,0,0,1.21-.3l16.49,28.57a2.7,2.7,0,1,0,4.16,2.41h33a2.68,2.68,0,0,0,2.68,2.55,2.651,2.651,0,0,0,1.22-.3l16.49,28.58a2.7,2.7,0,1,0,4.17,2.4h33a2.7,2.7,0,1,0,4.16-2.4l16.49-28.58a2.68,2.68,0,0,0,3.91-2.25h33a2.71,2.71,0,0,0,2.69,2.56,2.79,2.79,0,0,0,1.22-.31l16.5,28.57a2.709,2.709,0,1,0,4.15,2.44h33a2.7,2.7,0,1,0,4.16-2.41l16.5-28.57a2.579,2.579,0,0,0,1.21.3,2.7,2.7,0,1,0,0-5.4,2.65,2.65,0,0,0-1.22.3l-16.49-28.57A2.7,2.7,0,1,0,640,226H607a2.69,2.69,0,0,0-2.69-2.55,2.529,2.529,0,0,0-1.22.3l-16.5-28.58a2.7,2.7,0,0,0,0-4.52L603.05,162a2.67,2.67,0,0,0,3.92-2.25h33a2.7,2.7,0,1,0,4.16-2.41l16.49-28.57a2.78,2.78,0,0,0,1.22.3,2.7,2.7,0,0,0,2.69-2.55h33a2.7,2.7,0,1,0,4.16-2.41L718.2,95.57a2.66,2.66,0,0,0,3.91-2.25h33a2.69,2.69,0,0,0,2.68,2.56,2.66,2.66,0,0,0,1.22-.31l16.5,28.58a2.7,2.7,0,1,0,4.16,2.41h33a2.69,2.69,0,1,0,4.16-2.41l16.49-28.57a2.78,2.78,0,0,0,1.22.3,2.7,2.7,0,0,0,2.69-2.56h33a2.67,2.67,0,0,0,2.69,2.55,2.53,2.53,0,0,0,1.22-.3l16.5,28.59a2.68,2.68,0,0,0,0,4.5L874,157.59a2.63,2.63,0,0,0-1.12-.26,2.7,2.7,0,0,0-2.65,2.17H837.27a2.7,2.7,0,1,0-4.2,2.39l-16.49,28.57a2.82,2.82,0,0,0-1.2-.28,2.7,2.7,0,0,0-2.68,2.55h-33a2.7,2.7,0,1,0-4.2,2.39L759,223.7a2.74,2.74,0,0,0-1.18-.29,2.71,2.71,0,0,0,0,5.41,2.78,2.78,0,0,0,1.19-.28l16.49,28.57a2.7,2.7,0,1,0,4.2,2.39h33a2.71,2.71,0,0,0,2.69,2.56,2.781,2.781,0,0,0,1.19-.29l16.48,28.56a2.7,2.7,0,1,0,4.16,2.4h33a2.7,2.7,0,1,0,4.15-2.4l16.51-28.59a2.6,2.6,0,0,0,1.24.32,2.71,2.71,0,1,0,0-5.41,2.66,2.66,0,0,0-1.24.32L874.4,228.4a2.69,2.69,0,0,0,0-4.56l16.49-28.57a2.66,2.66,0,0,0,1.25.31,2.69,2.69,0,0,0,2.69-2.55h33a2.68,2.68,0,0,0,2.69,2.55,2.77,2.77,0,0,0,1.21-.29l16.49,28.56a2.7,2.7,0,1,0,4.16,2.41h33a2.7,2.7,0,0,0,2.69,2.56,2.62,2.62,0,0,0,1.22-.3l16.49,28.57a2.711,2.711,0,1,0,4.16,2.44h33a2.7,2.7,0,1,0,4.16-2.41l16.5-28.57a2.59,2.59,0,0,0,1.22.3,2.68,2.68,0,0,0,2.68-2.56h33a2.7,2.7,0,1,0,4.17-2.4l16.49-28.58a2.789,2.789,0,0,0,1.22.31,2.71,2.71,0,0,0,0-5.41,2.651,2.651,0,0,0-1.22.3l-16.49-28.57a2.7,2.7,0,1,0-4.17-2.42h-33a2.7,2.7,0,1,0-4.16,2.4l-16.49,28.58a2.68,2.68,0,0,0-3.91,2.25h-33a2.67,2.67,0,0,0-2.68-2.55,2.58,2.58,0,0,0-1.21.3l-16.5-28.58a2.69,2.69,0,0,0,0-4.51L1006,128.82a2.68,2.68,0,0,0,3.89-2.27h33a2.7,2.7,0,1,0,4.2-2.39l16.49-28.58a2.64,2.64,0,0,0,1.18.29,2.69,2.69,0,0,0,2.69-2.56h33a2.67,2.67,0,0,0,3.93,2.24l16.5,28.57a2.7,2.7,0,1,0,4.13,2.43h33a2.7,2.7,0,1,0,4.18-2.4l16.49-28.57a2.65,2.65,0,0,0,1.19.29,2.7,2.7,0,0,0,2.69-2.56h33a2.71,2.71,0,0,0,2.69,2.56,2.591,2.591,0,0,0,1.21-.31l16.5,28.57a2.7,2.7,0,1,0,4.15,2.42h33a2.7,2.7,0,1,0,4.16-2.41l16.49-28.57a2.7,2.7,0,1,0,.01-4.81l-16.5-28.57a2.67,2.67,0,1,0-4.16-2.4h-33a2.67,2.67,0,0,0-2.68-2.55,2.62,2.62,0,0,0-1.22.3L1219.82,29a2.7,2.7,0,1,0-4.17-2.4h-33A2.7,2.7,0,0,0,1180,24a2.79,2.79,0,0,0-1.2.29l-.26.14a2.7,2.7,0,0,0,0,4.54L1162,57.55a2.59,2.59,0,0,0-1.24-.31,2.67,2.67,0,0,0-2.68,2.55h-33a2.71,2.71,0,0,0-2.69-2.56,2.65,2.65,0,0,0-1.19.29L1104.7,29a2.7,2.7,0,0,0,0-4.5l-.25-.14a2.62,2.62,0,0,0-1.24-.31,2.68,2.68,0,0,0-2.68,2.55h-33a2.7,2.7,0,1,0-4.13,2.42L1046.89,57.6a2.54,2.54,0,0,0-1.26-.32,2.7,2.7,0,0,0-2.68,2.55h-33a2.7,2.7,0,1,0-4.13,2.43L989.3,90.79A2.67,2.67,0,0,0,985.37,93h-33a2.69,2.69,0,0,0-2.68-2.56,2.65,2.65,0,0,0-1.22.3L932,62.2a2.7,2.7,0,1,0-4.16-2.41h-33a2.68,2.68,0,0,0-3.89-2.26L874.41,29a2.7,2.7,0,1,0-4.16-2.41h-33A2.7,2.7,0,1,0,833.08,29l-16.5,28.57a2.62,2.62,0,0,0-1.24-.31,2.69,2.69,0,0,0-2.69,2.55h-33A2.71,2.71,0,0,0,777,57.23a2.57,2.57,0,0,0-1.2.3L759.26,29a2.68,2.68,0,0,0,0-4.51l16.5-28.57a2.78,2.78,0,0,0,1.22.3,2.7,2.7,0,0,0,2.69-2.56h33a2.7,2.7,0,0,0,2.69,2.56A2.7,2.7,0,0,0,818-6.54a2.7,2.7,0,0,0-1.23-2.26L833.3-37.37a2.78,2.78,0,0,0,1.22.3,2.7,2.7,0,0,0,2.69-2.55h33a2.69,2.69,0,0,0,2.68,2.55,2.7,2.7,0,0,0,1.916-.787,2.7,2.7,0,0,0,.794-1.913A2.71,2.71,0,0,0,874.38-42l16.5-28.58a2.67,2.67,0,0,0,1.23.31,2.71,2.71,0,0,0,2.69-2.56v-.29a2.7,2.7,0,0,0-2.69-2.56,2.78,2.78,0,0,0-1.22.3L874.39-104a2.72,2.72,0,0,0,1.24-2.26,2.71,2.71,0,0,0-1.23-2.26l-.26-.14a2.66,2.66,0,0,0-1.22-.31,2.71,2.71,0,0,0-2.69,2.56h-33a2.69,2.69,0,0,0-2.69-2.55,2.61,2.61,0,0,0-1.21.3l-16.5-28.58a2.69,2.69,0,0,0,1.23-2.26,2.7,2.7,0,0,0-1.23-2.26l16.5-28.57a2.61,2.61,0,0,0,1.21.3,2.7,2.7,0,0,0,1.916-.787,2.7,2.7,0,0,0,.794-1.913,2.7,2.7,0,0,0-.794-1.913,2.7,2.7,0,0,0-1.916-.787,2.49,2.49,0,0,0-1.21.3l-16.5-28.57a2.72,2.72,0,0,0,1.23-2.27,2.7,2.7,0,0,0-2.7-2.7,2.7,2.7,0,0,0-2.69,2.55h-33a2.7,2.7,0,0,0-2.69-2.56,2.7,2.7,0,0,0-2.7,2.7,2.73,2.73,0,0,0,1.22,2.27L759-175.11a2.79,2.79,0,0,0-1.22-.31,2.7,2.7,0,0,0-1.913.794,2.7,2.7,0,0,0-.787,1.916,2.7,2.7,0,0,0,2.7,2.7,2.78,2.78,0,0,0,1.22-.3l16.5,28.57a2.68,2.68,0,0,0-1.23,2.26,2.69,2.69,0,0,0,1.231,2.26L759-108.64a2.66,2.66,0,0,0-1.22-.31,2.71,2.71,0,0,0-2.7,2.71,2.7,2.7,0,0,0,2.7,2.7,2.78,2.78,0,0,0,1.22-.3l16.5,28.57A2.69,2.69,0,0,0,774.26-73a2.71,2.71,0,0,0,1.22,2.27L759-42.18a2.7,2.7,0,0,0-1.21-.29,2.68,2.68,0,0,0-2.68,2.55h-33a2.68,2.68,0,0,0-2.69-2.55,2.58,2.58,0,0,0-1.21.3l-16.5-28.57a2.72,2.72,0,0,0,1.2-2.26,2.7,2.7,0,0,0-.794-1.913A2.7,2.7,0,0,0,700.2-75.7a2.7,2.7,0,0,0-2.68,2.56h-33a2.68,2.68,0,0,0-2.68-2.56,2.71,2.71,0,0,0-2.72,2.7,2.76,2.76,0,0,0,1.23,2.26l-16.5,28.58a2.89,2.89,0,0,0-1.24-.32,2.71,2.71,0,0,0-2.69,2.56H607a2.71,2.71,0,0,0-2.69-2.56,2.79,2.79,0,0,0-1.22.31L586.55-70.74A2.73,2.73,0,0,0,587.77-73a2.7,2.7,0,0,0-2.7-2.7,2.7,2.7,0,0,0-2.69,2.56h-33a2.7,2.7,0,0,0-2.69-2.56,2.78,2.78,0,0,0-1.22.3L529-104a2.69,2.69,0,0,0,1.23-2.26,2.71,2.71,0,0,0-2.7-2.71,2.71,2.71,0,0,0-2.69,2.56h-33a2.7,2.7,0,0,0-2.69-2.55,2.7,2.7,0,0,0-2.7,2.7,2.69,2.69,0,0,0,1.23,2.26l-16.5,28.57a2.78,2.78,0,0,0-1.22-.3,2.7,2.7,0,0,0-2.69,2.56h-33a2.7,2.7,0,0,0-2.69-2.56,2.7,2.7,0,0,0-2.7,2.7,2.73,2.73,0,0,0,1.22,2.27L413.56-42.17a2.65,2.65,0,0,0-1.22-.3,2.7,2.7,0,0,0-2.69,2.55h-33A2.69,2.69,0,0,0,374-42.47a2.49,2.49,0,0,0-1.21.3l-16.5-28.58A2.69,2.69,0,0,0,357.47-73a2.7,2.7,0,0,0-2.7-2.7,2.7,2.7,0,0,0-2.69,2.56h-33a2.7,2.7,0,0,0-2.69-2.56,2.71,2.71,0,0,0-2.71,2.7,2.74,2.74,0,0,0,1.23,2.27L298.42-42.17a2.79,2.79,0,0,0-1.22-.31,2.72,2.72,0,0,0-2.7,2.71,2.7,2.7,0,0,0,2.7,2.7,2.78,2.78,0,0,0,1.22-.3L314.92-8.8a2.71,2.71,0,0,0-1.24,2.26,2.72,2.72,0,0,0,2.71,2.71,2.7,2.7,0,0,0,2.69-2.56h33a2.69,2.69,0,0,0,2.69,2.56A2.66,2.66,0,0,0,356-4.14l16.49,28.58a2.7,2.7,0,1,0,4.16,2.41h33a2.69,2.69,0,0,0,2.68,2.56,2.66,2.66,0,0,0,1.23-.3l16.5,28.59a2.7,2.7,0,0,0,0,4.51l-16.5,28.58a2.66,2.66,0,0,0-1.22-.31A2.71,2.71,0,0,0,409.68,93h-33a2.7,2.7,0,1,0-4.16,2.4L356,124a2.65,2.65,0,0,0-1.22-.3,2.7,2.7,0,1,0,0,5.4,2.65,2.65,0,0,0,1.22-.3l16.49,28.57a2.7,2.7,0,0,0,0,4.52L356,190.48a2.79,2.79,0,0,0-1.23-.3,2.7,2.7,0,0,0-2.69,2.55h-33a2.69,2.69,0,0,0-2.69-2.56,2.65,2.65,0,0,0-1.22.3L298.68,161.9a2.7,2.7,0,1,0-4.17-2.41h-33a2.7,2.7,0,1,0-4.16,2.41l-16.49,28.57a2.61,2.61,0,0,0-1.21-.3,2.7,2.7,0,0,0-2.69,2.55H204a2.691,2.691,0,1,0-5.38.14,2.65,2.65,0,0,0,1.22,2.26L183.35,223.7a2.66,2.66,0,0,0-1.22-.31,2.71,2.71,0,0,0,0,5.41,2.78,2.78,0,0,0,1.22-.3l16.5,28.58a2.69,2.69,0,0,0,0,4.51l-16.7,28.92a2.71,2.71,0,0,0-3.79,1.91H146.43a2.7,2.7,0,1,0-4.16,2.41l-16.5,28.57a2.78,2.78,0,0,0-1.22-.3,2.71,2.71,0,0,0-2.69,2.56h-33a2.7,2.7,0,1,0-4.16,2.41L68.21,356.66a2.56,2.56,0,0,0-1.22-.3,2.7,2.7,0,1,0,0,5.4,2.65,2.65,0,0,0,1.22-.3L84.7,390a2.7,2.7,0,0,0-1.23,2.3ZM812.65-139.62h-33a2.7,2.7,0,0,0-2.69-2.56,2.71,2.71,0,0,0-1.21.3l-16.51-28.57a2.7,2.7,0,0,0,1.23-2.26,2.69,2.69,0,0,0-1.231-2.26l16.5-28.58a2.529,2.529,0,0,0,1.22.3,2.68,2.68,0,0,0,2.68-2.55h33a2.71,2.71,0,0,0,2.69,2.56,2.71,2.71,0,0,0,1.21-.31L833.05-175a2.69,2.69,0,0,0-1.23,2.26,2.7,2.7,0,0,0,1.23,2.26l-16.5,28.57a2.71,2.71,0,0,0-1.21-.3A2.7,2.7,0,0,0,812.65-139.62Zm20.66,97.44-16.5-28.57A2.69,2.69,0,0,0,818-73a2.7,2.7,0,0,0-1.23-2.26l6.91-12,9.59-16.61a2.62,2.62,0,0,0,1.22.3,2.68,2.68,0,0,0,2.68-2.56h33a2.7,2.7,0,0,0,2.69,2.55,2.61,2.61,0,0,0,1.21-.3L890.56-75.3a2.66,2.66,0,0,0-1.15,2.3,2.68,2.68,0,0,0,1.21,2.26l-16.5,28.58a2.62,2.62,0,0,0-1.22-.3,2.7,2.7,0,0,0-2.69,2.56h-33a2.69,2.69,0,0,0-2.69-2.55,2.7,2.7,0,0,0-1.21.27Zm-20.66-31h-33A2.68,2.68,0,0,0,777-75.71a2.78,2.78,0,0,0-1.22.3L759.24-104a2.69,2.69,0,0,0,1.23-2.26,2.7,2.7,0,0,0-1.22-2.26l16.49-28.58a2.66,2.66,0,0,0,1.22.31,2.71,2.71,0,0,0,2.69-2.56h33a2.7,2.7,0,0,0,2.68,2.56,2.72,2.72,0,0,0,1.22-.3l16.5,28.57a2.71,2.71,0,0,0-1.23,2.26,2.73,2.73,0,0,0,1.23,2.26l-6.9,12-9.59,16.62a2.78,2.78,0,0,0-1.22-.3,2.7,2.7,0,0,0-2.69,2.53Zm-53.4,35.64a2.7,2.7,0,0,0,1.22-2.26,2.69,2.69,0,0,0-1.23-2.2l16.5-28.57a2.66,2.66,0,0,0,1.22.31,2.71,2.71,0,0,0,2.69-2.56h33a2.7,2.7,0,0,0,2.68,2.56,2.6,2.6,0,0,0,1.22-.31L833.05-42a2.69,2.69,0,0,0-1.23,2.26,2.69,2.69,0,0,0,1.23,2.26L816.55-8.94a2.74,2.74,0,0,0-1.21-.3,2.7,2.7,0,0,0-2.69,2.56h-33A2.71,2.71,0,0,0,777-9.24a2.78,2.78,0,0,0-1.22.3ZM430.08,124.15a2.69,2.69,0,0,0,0,4.52l-16.5,28.58a2.62,2.62,0,0,0-1.21-.31,2.69,2.69,0,0,0-2.69,2.56h-33a2.7,2.7,0,0,0-2.68-2.56,2.78,2.78,0,0,0-1.22.3l-16.5-28.57a2.69,2.69,0,0,0,0-4.52l16.5-28.58a2.66,2.66,0,0,0,1.22.31,2.71,2.71,0,0,0,2.69-2.56h33a2.69,2.69,0,0,0,2.69,2.56,2.62,2.62,0,0,0,1.21-.31Zm4.17-64.06h33a2.7,2.7,0,0,0,2.69,2.56,2.78,2.78,0,0,0,1.22-.3l16.49,28.57a2.71,2.71,0,0,0-1.22,2.26,2.65,2.65,0,0,0,1.22,2.26L471.15,124a2.73,2.73,0,0,0-1.21-.29,2.7,2.7,0,0,0-2.69,2.55h-33a2.7,2.7,0,0,0-2.69-2.56,2.64,2.64,0,0,0-1.21.3l-16.5-28.58a2.69,2.69,0,0,0,0-4.51l16.49-28.58a2.78,2.78,0,0,0,1.22.3,2.7,2.7,0,0,0,2.69-2.54Zm54.87,96.85a2.78,2.78,0,0,0-1.22.3l-16.49-28.57a2.69,2.69,0,0,0,0-4.52l16.5-28.57a2.78,2.78,0,0,0,1.22.3,2.71,2.71,0,0,0,2.69-2.56h33a2.71,2.71,0,0,0,2.69,2.56,2.65,2.65,0,0,0,1.19-.29l16.49,28.56a2.69,2.69,0,0,0,0,4.52L528.7,157.24a2.64,2.64,0,0,0-1.22-.29,2.7,2.7,0,0,0-2.69,2.55h-33a2.71,2.71,0,0,0-2.67-2.56ZM372.48-42a2.71,2.71,0,0,0-1.23,2.26,2.69,2.69,0,0,0,1.23,2.26l-.43.76L356-8.93a2.59,2.59,0,0,0-1.21-.31,2.7,2.7,0,0,0-2.69,2.56h-33a2.71,2.71,0,0,0-2.69-2.56,2.66,2.66,0,0,0-1.22.31l-16.5-28.58a2.69,2.69,0,0,0,1.23-2.26A2.7,2.7,0,0,0,298.68-42l16.49-28.6a2.78,2.78,0,0,0,1.22.3,2.71,2.71,0,0,0,2.69-2.56h33a2.7,2.7,0,0,0,2.69,2.56,2.71,2.71,0,0,0,1.21-.3ZM430.05-8.79a2.7,2.7,0,0,0-1.22,2.26,2.67,2.67,0,0,0,1.22,2.25L413.55,24.3a2.62,2.62,0,0,0-1.22-.3,2.69,2.69,0,0,0-2.68,2.55h-33A2.7,2.7,0,0,0,374,24a2.62,2.62,0,0,0-1.22.3L356.24-4.27a2.72,2.72,0,0,0,1.23-2.27,2.68,2.68,0,0,0-1.23-2.25l16.5-28.58a2.59,2.59,0,0,0,1.22.3,2.7,2.7,0,0,0,2.69-2.55h33a2.7,2.7,0,0,0,2.69,2.55,2.61,2.61,0,0,0,1.21-.3Zm4.17,2.4h33a2.7,2.7,0,0,0,2.69,2.56,2.78,2.78,0,0,0,1.22-.3l16.49,28.57a2.69,2.69,0,0,0,0,4.52L471.13,57.52a2.64,2.64,0,0,0-1.19-.28,2.7,2.7,0,0,0-2.69,2.55h-33a2.7,2.7,0,0,0-2.69-2.55,2.59,2.59,0,0,0-1.24.31L413.81,29a2.69,2.69,0,0,0,0-4.52L430.31-4.1a2.66,2.66,0,0,0,1.22.31,2.71,2.71,0,0,0,2.69-2.6ZM487.63-42a2.67,2.67,0,0,0-1.22,2.25,2.67,2.67,0,0,0,1.22,2.25L471.13-8.94a2.83,2.83,0,0,0-1.23-.3,2.7,2.7,0,0,0-2.68,2.56h-33a2.68,2.68,0,0,0-2.68-2.56,2.66,2.66,0,0,0-1.22.31l-16.5-28.58A2.69,2.69,0,0,0,415-39.77,2.69,2.69,0,0,0,413.81-42l16.5-28.57a2.77,2.77,0,0,0,1.21.3,2.71,2.71,0,0,0,2.7-2.56h33a2.69,2.69,0,0,0,2.68,2.56,2.71,2.71,0,0,0,1.21-.3Zm57.58-33.25A2.7,2.7,0,0,0,544-73a2.72,2.72,0,0,0,1.24,2.26l-16.5,28.57a2.57,2.57,0,0,0-1.21-.29,2.68,2.68,0,0,0-2.68,2.55h-33a2.7,2.7,0,0,0-2.69-2.55,2.65,2.65,0,0,0-1.22.3L471.4-70.74A2.72,2.72,0,0,0,472.63-73a2.69,2.69,0,0,0-1.23-2.26l16.49-28.57a2.65,2.65,0,0,0,1.22.3,2.7,2.7,0,0,0,2.69-2.55h33a2.7,2.7,0,0,0,2.69,2.55,2.58,2.58,0,0,0,1.21-.3Zm41.08,4.66L602.79-42a2.69,2.69,0,0,0-1.23,2.26,2.69,2.69,0,0,0,1.22,2.26L586.28-8.94a2.78,2.78,0,0,0-1.22-.3,2.71,2.71,0,0,0-2.69,2.56h-33a2.71,2.71,0,0,0-2.69-2.56,2.59,2.59,0,0,0-1.21.31L529-37.51a2.71,2.71,0,0,0,1.23-2.26A2.71,2.71,0,0,0,529-42l16.47-28.6a2.61,2.61,0,0,0,1.21.3,2.69,2.69,0,0,0,2.68-2.56h33a2.69,2.69,0,0,0,2.68,2.56,2.66,2.66,0,0,0,1.25-.31ZM660.34-8.8a2.67,2.67,0,0,0-1.25,2.27,2.72,2.72,0,0,0,1.25,2.27L643.85,24.3a2.83,2.83,0,0,0-1.23-.3,2.69,2.69,0,0,0-2.69,2.55h-33A2.7,2.7,0,0,0,604.25,24a2.78,2.78,0,0,0-1.22.3L586.54-4.27a2.7,2.7,0,0,0,1.23-2.27,2.71,2.71,0,0,0-1.23-2.25L603-37.37a2.65,2.65,0,0,0,1.22.3A2.7,2.7,0,0,0,607-39.62h33a2.7,2.7,0,0,0,2.69,2.55,2.67,2.67,0,0,0,1.23-.31ZM717.92-42a2.69,2.69,0,0,0-1.23,2.26,2.69,2.69,0,0,0,1.23,2.26l-6.91,12L701.42-8.94a2.78,2.78,0,0,0-1.22-.3,2.69,2.69,0,0,0-2.68,2.56h-33a2.69,2.69,0,0,0-2.68-2.56,2.69,2.69,0,0,0-1.2.29L644.11-37.52a2.72,2.72,0,0,0,1.2-2.25,2.72,2.72,0,0,0-1.2-2.25l16.5-28.59a2.66,2.66,0,0,0,1.22.31,2.68,2.68,0,0,0,2.68-2.56h33a2.69,2.69,0,0,0,2.69,2.56,2.78,2.78,0,0,0,1.22-.3Zm37.17,68.58h-33A2.7,2.7,0,0,0,719.38,24a2.58,2.58,0,0,0-1.21.3L701.68-4.27a2.74,2.74,0,0,0,1.23-2.27,2.68,2.68,0,0,0-1.23-2.25l6.92-12,9.58-16.6a2.71,2.71,0,0,0,1.21.3,2.71,2.71,0,0,0,2.7-2.55h33a2.68,2.68,0,0,0,2.68,2.55,2.58,2.58,0,0,0,1.21-.3l16.5,28.58a2.7,2.7,0,0,0-1.22,2.25,2.7,2.7,0,0,0,1.23,2.27L759,24.3a2.62,2.62,0,0,0-1.22-.3,2.68,2.68,0,0,0-2.69,2.55ZM640,93H607a2.7,2.7,0,0,0-2.69-2.56,2.74,2.74,0,0,0-1.21.3L586.57,62.2a2.7,2.7,0,1,0-4.16-2.41h-33a2.7,2.7,0,1,0-4.16,2.41l-16.5,28.57a2.78,2.78,0,0,0-1.22-.3A2.71,2.71,0,0,0,524.84,93h-33a2.7,2.7,0,0,0-2.69-2.56,2.78,2.78,0,0,0-1.22.3L471.41,62.2a2.7,2.7,0,0,0,0-4.54L487.88,29.1a2.62,2.62,0,0,0,1.22.3,2.7,2.7,0,1,0,0-5.4,2.65,2.65,0,0,0-1.22.3L471.38-4.27a2.72,2.72,0,0,0,1.23-2.27,2.71,2.71,0,0,0-1.23-2.26l16.5-28.58a2.7,2.7,0,0,0,1.23.31,2.7,2.7,0,0,0,2.69-2.55h33a2.68,2.68,0,0,0,2.68,2.55,2.62,2.62,0,0,0,1.22-.3L545.22-8.8A2.72,2.72,0,0,0,544-6.53a2.7,2.7,0,0,0,2.7,2.7,2.69,2.69,0,0,0,2.69-2.56h33a2.68,2.68,0,0,0,2.68,2.56,2.78,2.78,0,0,0,1.22-.3l16.5,28.57a2.7,2.7,0,1,0,4.16,2.4h33a2.67,2.67,0,0,0,2.68,2.55,2.7,2.7,0,0,0,1.48-5L660.59-4.12a2.72,2.72,0,0,0,1.2.29,2.7,2.7,0,0,0,2.69-2.56h33a2.69,2.69,0,0,0,2.69,2.56,2.66,2.66,0,0,0,1.22-.31l16.49,28.57a2.7,2.7,0,0,0,0,4.55L701.44,57.55a2.66,2.66,0,0,0-1.25-.31,2.69,2.69,0,0,0-2.69,2.55h-33a2.7,2.7,0,1,0-4.13,2.43L643.89,90.77a2.78,2.78,0,0,0-1.22-.3A2.71,2.71,0,0,0,640,93ZM524.82,226h-33a2.71,2.71,0,0,0-2.69-2.56,2.59,2.59,0,0,0-1.21.31l-16.5-28.58a2.7,2.7,0,1,0-4.17-2.4h-33a2.68,2.68,0,0,0-2.68-2.56,2.65,2.65,0,0,0-1.22.3l-16.5-28.57a2.69,2.69,0,0,0,0-4.53l16.5-28.57a2.67,2.67,0,0,0,3.9-2.25h33a2.7,2.7,0,0,0,2.69,2.55,2.58,2.58,0,0,0,1.21-.3l16.5,28.57a2.7,2.7,0,1,0,4.16,2.41h33a2.7,2.7,0,0,0,2.69,2.56,2.67,2.67,0,0,0,1.23-.31l16.5,28.58a2.69,2.69,0,0,0,0,4.52l-16.5,28.57a2.78,2.78,0,0,0-1.22-.3,2.71,2.71,0,0,0-2.69,2.56ZM356.26,195.14a2.69,2.69,0,0,0,0-4.52L372.76,162a2.66,2.66,0,0,0,3.91-2.25h33a2.68,2.68,0,0,0,2.68,2.56,2.78,2.78,0,0,0,1.22-.3l16.49,28.57a2.69,2.69,0,0,0,0,4.52l-16.5,28.57a2.77,2.77,0,0,0-1.21-.3,2.69,2.69,0,0,0-2.69,2.56h-33a2.67,2.67,0,0,0-3.9-2.26ZM315.18,257l-16.49-28.57a2.7,2.7,0,0,0,0-4.53l7-12.13,9.49-16.44a2.65,2.65,0,0,0,1.22.3,2.7,2.7,0,0,0,2.69-2.55h33a2.7,2.7,0,0,0,2.69,2.55,2.65,2.65,0,0,0,1.22-.3l16.49,28.58a2.7,2.7,0,0,0,0,4.52L356,257a2.65,2.65,0,0,0-1.22-.3,2.7,2.7,0,0,0-2.69,2.56h-33a2.7,2.7,0,0,0-2.69-2.56,2.65,2.65,0,0,0-1.22.3Zm-74.05-61.81a2.69,2.69,0,0,0,0-4.52L257.62,162a2.66,2.66,0,0,0,3.9-2.25h33a2.69,2.69,0,0,0,2.68,2.56,2.79,2.79,0,0,0,1.22-.31l16.5,28.58a2.69,2.69,0,0,0,0,4.52l-7,12.14-9.49,16.44a2.62,2.62,0,0,0-1.21-.31,2.69,2.69,0,0,0-2.69,2.56h-33a2.71,2.71,0,0,0-2.69-2.56,2.66,2.66,0,0,0-1.22.31ZM237,259.21H204a2.7,2.7,0,0,0-2.69-2.56,2.67,2.67,0,0,0-1.23.31l-16.51-28.58a2.69,2.69,0,0,0,0-4.52l16.5-28.58a2.65,2.65,0,0,0,1.22.3A2.68,2.68,0,0,0,204,193h33a2.7,2.7,0,0,0,2.69,2.55,2.61,2.61,0,0,0,1.21-.3l16.49,28.58a2.7,2.7,0,0,0,0,4.52L240.88,257a2.571,2.571,0,0,0-1.2-.3A2.7,2.7,0,0,0,237,259.21Zm0,66.47H204a2.69,2.69,0,0,0-2.68-2.56,2.78,2.78,0,0,0-1.22.3l-16.38-28.37a2.67,2.67,0,0,0,1-2.07,2.7,2.7,0,0,0-1.3-2.31l16.69-28.91a2.78,2.78,0,0,0,1.22.3A2.71,2.71,0,0,0,204,259.5h33a2.71,2.71,0,0,0,2.69,2.56,2.59,2.59,0,0,0,1.21-.31l16.51,28.58a2.67,2.67,0,0,0-1.24,2.26,2.71,2.71,0,0,0,1.23,2.26l-16.5,28.57a2.74,2.74,0,0,0-1.21-.3A2.71,2.71,0,0,0,237,325.68Z" transform="translate(20 259.15)" fill="#fff" opacity="0.3"/>
      <path id="Trazado_10372" data-name="Trazado 10372" d="M1129.94,100.1a2.29,2.29,0,0,0,0-3.84l14-24.24h0a2.25,2.25,0,0,0,1,.26,2.29,2.29,0,0,0,2.29-2.17h28a2.28,2.28,0,0,0,2.28,2.17,2.251,2.251,0,0,0,1-.26l14,24.27a2.29,2.29,0,0,0,0,3.84l-14,24.27a2.251,2.251,0,0,0-1-.26,2.28,2.28,0,0,0-2.28,2.17h-28a2.3,2.3,0,0,0-2.28-2.17,2.33,2.33,0,0,0-1,.25ZM983.26,184.78a2.29,2.29,0,0,0,0-3.84l14-24.27a2.25,2.25,0,0,0,1,.26,2.28,2.28,0,0,0,2.28-2.17h28a2.29,2.29,0,0,0,2.28,2.17,2.26,2.26,0,0,0,1-.26l14,24.27a2.31,2.31,0,0,0-1,1.92,2.28,2.28,0,0,0,1,1.92l-14,24.27a2.26,2.26,0,0,0-1-.26,2.29,2.29,0,0,0-2.28,2.17h-28a2.28,2.28,0,0,0-2.28-2.17,2.21,2.21,0,0,0-1,.26Zm-34.88,52.49-14-24.26a2.29,2.29,0,0,0,0-3.84l14-24.27a2.226,2.226,0,0,0,3.27-1.92h28a2.31,2.31,0,0,0,2.29,2.18,2.34,2.34,0,0,0,1-.26l14,24.27a2.29,2.29,0,0,0,0,3.84l-14,24.26a2.24,2.24,0,0,0-1-.25,2.29,2.29,0,0,0-2.29,2.17h-28a2.28,2.28,0,0,0-2.28-2.17,2.37,2.37,0,0,0-.99.25Zm-62.9-52.49a2.29,2.29,0,0,0,0-3.84l14-24.27a2.321,2.321,0,0,0,1,.26,2.28,2.28,0,0,0,2.28-2.17h28a2.27,2.27,0,0,0,3.32,1.91l14,24.27a2.29,2.29,0,0,0,0,3.84l-14,24.27a2.25,2.25,0,0,0-1-.26,2.28,2.28,0,0,0-2.28,2.17h-28a2.26,2.26,0,0,0-3.31-1.91ZM1081.05,71.86a2.3,2.3,0,0,0,0-3.81l14-24.27a2.32,2.32,0,0,0,1,.24,2.28,2.28,0,0,0,2.28-2.17h28a2.28,2.28,0,0,0,3.33,1.91l14,24.27a2.33,2.33,0,0,0-1,1.93,2.29,2.29,0,0,0,1,1.91l-14,24.27a2.24,2.24,0,0,0-1-.25,2.29,2.29,0,0,0-2.29,2.17h-28.05a2.28,2.28,0,0,0-3.29-1.93Zm-48.89,28.23a2.29,2.29,0,0,0,0-3.81l14-24.27a2.28,2.28,0,0,0,3.3-1.93h28a2.28,2.28,0,0,0,2.28,2.17,2.19,2.19,0,0,0,1-.27l14,24.27a2.28,2.28,0,0,0,0,3.87l-14,24.26a2.35,2.35,0,0,0-1.06-.27,2.29,2.29,0,0,0-2.28,2.18h-28a2.29,2.29,0,0,0-2.29-2.17,2.23,2.23,0,0,0-1,.24ZM805,211.21h28a2.28,2.28,0,0,0,2.28,2.17,2.24,2.24,0,0,0,1-.24l14,24.27a2.29,2.29,0,0,0,0,3.81l-14,24.28a2.25,2.25,0,0,0-1-.26,2.28,2.28,0,0,0-2.28,2.17H805a2.29,2.29,0,0,0-2.29-2.17,2.24,2.24,0,0,0-1,.25l-14-24.25a2.28,2.28,0,0,0,0-3.87l14-24.27a2.15,2.15,0,0,0,1.07.27,2.28,2.28,0,0,0,2.22-2.16ZM997.29,96.12l-14-24.26a2.35,2.35,0,0,0,1-1.9,2.29,2.29,0,0,0-1-1.91l14-24.27a2.28,2.28,0,0,0,3.29-1.93h28a2.29,2.29,0,0,0,2.28,2.17,2.341,2.341,0,0,0,1.06-.26L1046,68a2.28,2.28,0,0,0,0,3.87l-14,24.26a2.28,2.28,0,0,0-3.34,1.91h-28a2.29,2.29,0,0,0-2.29-2.17,2.32,2.32,0,0,0-1.08.25Zm-66.46,58.39h-28a2.29,2.29,0,0,0-2.29-2.17,2.25,2.25,0,0,0-1,.26l-14-24.27a2.29,2.29,0,0,0,0-3.84l14-24.26a2.33,2.33,0,0,0,1,.25,2.28,2.28,0,0,0,2.28-2.17h28a2.28,2.28,0,0,0,2.28,2.17,2.19,2.19,0,0,0,1-.27l14,24.27a2.28,2.28,0,0,0-1.06,1.93,2.31,2.31,0,0,0,1.06,1.93l-14,24.26a2.25,2.25,0,0,0-1-.26,2.29,2.29,0,0,0-2.27,2.17Zm-76.91-28h28a2.29,2.29,0,0,0,2.29,2.17,2.2,2.2,0,0,0,1-.25l14,24.27a2.3,2.3,0,0,0,0,3.83l-14,24.27a2.37,2.37,0,0,0-1-.26,2.31,2.31,0,0,0-2.29,2.18h-28a2.29,2.29,0,0,0-2.28-2.17,2.18,2.18,0,0,0-1,.26l-13.91-24.09a2.28,2.28,0,0,0-.27-3.74l14.18-24.56a2.17,2.17,0,0,0,1,.26,2.28,2.28,0,0,0,2.28-2.15Zm80.46-26.44a2.34,2.34,0,0,0,1-1.91,2.3,2.3,0,0,0-1-1.9l14-24.27a2.28,2.28,0,0,0,3.29-1.93h28A2.28,2.28,0,0,0,982,72.25a2.25,2.25,0,0,0,1.06-.27l14,24.26a2.29,2.29,0,0,0,0,3.88l-14,24.27a2.26,2.26,0,0,0-1.06-.28,2.29,2.29,0,0,0-2.28,2.18h-28a2.29,2.29,0,0,0-2.28-2.17,2.38,2.38,0,0,0-1,.24Zm-97.9,56.81L850.37,181a2.27,2.27,0,0,0-1,1.9,2.33,2.33,0,0,0,1,1.91l-14,24.26a2.28,2.28,0,0,0-3.29,1.93H805a2.29,2.29,0,0,0-2.28-2.17,2.22,2.22,0,0,0-1.06.27l-14-24.26a2.31,2.31,0,0,0,1.08-1.94,2.28,2.28,0,0,0-1.07-1.93l14-24.27a2.22,2.22,0,0,0,1.06.27,2.28,2.28,0,0,0,2.28-2.18H833a1.371,1.371,0,0,0,0,.21,2.3,2.3,0,0,0,3.53,1.93Zm-35,52.28a2.3,2.3,0,0,0,0,3.81l-14,24.27a2.23,2.23,0,0,0-1-.24,2.28,2.28,0,0,0-2.28,2.17h-28a2.28,2.28,0,0,0-2.28-2.17,2.2,2.2,0,0,0-1.06.27L738.8,213a2.28,2.28,0,0,0,0-3.87l14-24.27a2.26,2.26,0,0,0,3.35-1.89h28a2.27,2.27,0,0,0,3.29,1.94Zm97.78-112.9a2.343,2.343,0,0,0,0,3.84l-14,24.26a2.33,2.33,0,0,0-1-.25,2.3,2.3,0,0,0-2.29,2.17h-28a2.28,2.28,0,0,0-2.28-2.17,2.18,2.18,0,0,0-1,.27l-14-24.28a2.27,2.27,0,0,0,1-1.92,2.32,2.32,0,0,0-1-1.92L850.6,72a2.329,2.329,0,0,0,1,.25,2.29,2.29,0,0,0,2.29-2.17h28a2.28,2.28,0,0,0,2.28,2.17,2.25,2.25,0,0,0,1-.26Zm-307.14,145a2.29,2.29,0,0,0,0-3.84l14-24.25h0a2.25,2.25,0,0,0,1,.26,2.28,2.28,0,0,0,2.28-2.17h28a2.29,2.29,0,0,0,2.29,2.17,2.25,2.25,0,0,0,1-.26l14,24.27a2.27,2.27,0,0,0-1,1.92,2.33,2.33,0,0,0,1,1.93l-14,24.26a2.381,2.381,0,0,0-1-.26,2.29,2.29,0,0,0-2.29,2.17h-28a2.28,2.28,0,0,0-2.29-2.16,2.12,2.12,0,0,0-1,.25ZM543.23,213a2.3,2.3,0,0,0,0-3.85l14-24.26a2.38,2.38,0,0,0,1,.26,2.28,2.28,0,0,0,2.28-2.17h28a2.29,2.29,0,0,0,2.29,2.17,2.24,2.24,0,0,0,1-.25l14,24.27a2.26,2.26,0,0,0-1,1.92,2.29,2.29,0,0,0,1,1.92l-14,24.26a2.241,2.241,0,0,0-1-.25,2.28,2.28,0,0,0-2.28,2.17H560.54a2.29,2.29,0,0,0-2.28-2.17,2.24,2.24,0,0,0-1,.25Zm209.58-88.64-14-24.27a2.28,2.28,0,0,0,1.05-1.92,2.32,2.32,0,0,0-1.05-1.92l5.81-10.06,8.2-14.2a2.2,2.2,0,0,0,1,.25,2.29,2.29,0,0,0,2.28-2.17h28a2.28,2.28,0,0,0,2.28,2.17,2.33,2.33,0,0,0,1.05-.26l14,24.27a2.29,2.29,0,0,0,0,3.84l-14,24.27a2.22,2.22,0,0,0-1-.26,2.28,2.28,0,0,0-2.28,2.17h-28a2.29,2.29,0,0,0-2.28-2.18,2.26,2.26,0,0,0-1.06.28Zm34.88-52.51a2.28,2.28,0,0,0,1-1.9,2.31,2.31,0,0,0-1-1.91l14-24.27a2.32,2.32,0,0,0,1,.24A2.29,2.29,0,0,0,805,41.85h28.06A2.29,2.29,0,0,0,835.34,44a2.46,2.46,0,0,0,1-.26l14,24.26a2.3,2.3,0,0,0,0,3.85l-14,24.26a2.25,2.25,0,0,0-1-.25,2.28,2.28,0,0,0-2.27,2.17H805a2.28,2.28,0,0,0-2.28-2.17,2.21,2.21,0,0,0-1,.25ZM494.32,241.23a2.28,2.28,0,0,0,1.05-1.92,2.31,2.31,0,0,0-1-1.92l14-24.26a2.21,2.21,0,0,0,1,.25,2.29,2.29,0,0,0,2.28-2.17H539.7a2.29,2.29,0,0,0,2.28,2.17,2.21,2.21,0,0,0,1-.25l14,24.26a2.29,2.29,0,0,0-1,1.92,2.25,2.25,0,0,0,1,1.92L543,265.5a2.27,2.27,0,0,0-3.32,1.92h-28a2.29,2.29,0,0,0-2.28-2.18,2.39,2.39,0,0,0-1,.26Zm97.81-112.9a2.28,2.28,0,0,0,0-3.84L598,114.4l8.19-14.18a2.27,2.27,0,0,0,3.32-1.91h28a2.29,2.29,0,0,0,2.28,2.17,2.41,2.41,0,0,0,1-.25l14,24.26a2.29,2.29,0,0,0,0,3.84l-14,24.27a2.32,2.32,0,0,0-1-.26,2.29,2.29,0,0,0-2.28,2.17h-28a2.27,2.27,0,0,0-3.32-1.91ZM249.89,325.92a2.29,2.29,0,0,0,0-3.85l14-24.26a2.38,2.38,0,0,0,1,.25,2.29,2.29,0,0,0,2.28-2.17h28a2.28,2.28,0,0,0,2.28,2.17,2.33,2.33,0,0,0,1-.25l14,24.26a2.29,2.29,0,0,0,0,3.84l-14,24.27a2.25,2.25,0,0,0-1-.26,2.28,2.28,0,0,0-2.28,2.18h-28a2.3,2.3,0,0,0-2.29-2.17,2.251,2.251,0,0,0-1,.26Zm62.9-4-14-24.26a2.29,2.29,0,0,0,0-3.84l14-24.27a2.249,2.249,0,0,0,1,.26,2.29,2.29,0,0,0,2.28-2.18h28a2.27,2.27,0,0,0,2.28,2.17,2.12,2.12,0,0,0,1-.25l14,24.26a2.3,2.3,0,0,0,0,3.85l-14,24.26a2.371,2.371,0,0,0-1-.25,2.28,2.28,0,0,0-2.28,2.17h-28a2.26,2.26,0,0,0-3.31-1.92ZM588.58,182.74h-28a2.29,2.29,0,0,0-2.28-2.18,2.26,2.26,0,0,0-1,.26l-14-24.27a2.29,2.29,0,0,0,0-3.83l14-24.27a2.2,2.2,0,0,0,1,.25,2.28,2.28,0,0,0,2.28-2.17H588.6a2.28,2.28,0,0,0,2.28,2.17,2.37,2.37,0,0,0,1-.25l14,24.27a2.29,2.29,0,0,0,0,3.83l-14,24.27a2.25,2.25,0,0,0-1-.26,2.3,2.3,0,0,0-2.3,2.18ZM689.91,71.86a2.3,2.3,0,0,0,0-3.81l14-24.27a2.23,2.23,0,0,0,1,.24,2.29,2.29,0,0,0,2.29-2.17h28A2.27,2.27,0,0,0,737.53,44a2.33,2.33,0,0,0,1.05-.26l14,24.27a2.28,2.28,0,0,0,0,3.85l-5.8,10.06-8.21,14.21a2.13,2.13,0,0,0-1-.26,2.28,2.28,0,0,0-2.28,2.17h-28A2.28,2.28,0,0,0,705,95.89a2.24,2.24,0,0,0-1,.25ZM655,124.37,641,100.1a2.29,2.29,0,0,0,0-3.84L655,72a2.23,2.23,0,0,0,1,.24,2.28,2.28,0,0,0,2.28-2.17h28a2.29,2.29,0,0,0,2.29,2.17,2.25,2.25,0,0,0,1.06-.27l14,24.28a2.3,2.3,0,0,0-1,1.92,2.25,2.25,0,0,0,1,1.92l-14,24.27a2.25,2.25,0,0,0-1-.26,2.29,2.29,0,0,0-2.29,2.17h-28a2.29,2.29,0,0,0-2.28-2.17,2.22,2.22,0,0,0-1.06.27ZM445.42,213a2.29,2.29,0,0,0,0-3.84l14-24.27a2.38,2.38,0,0,0,1,.26,2.3,2.3,0,0,0,2.29-2.17h28a2.28,2.28,0,0,0,2.28,2.17,2.12,2.12,0,0,0,1-.25l14,24.27a2.28,2.28,0,0,0-1,1.91,2.32,2.32,0,0,0,1,1.93l-14,24.26a2.12,2.12,0,0,0-1-.25,2.28,2.28,0,0,0-2.28,2.17h-28a2.29,2.29,0,0,0-2.28-2.17,2.25,2.25,0,0,0-1,.25ZM588.6,126.29H560.54a2.28,2.28,0,0,0-2.28-2.17,2.19,2.19,0,0,0-1,.25l-14-24.26a2.29,2.29,0,0,0,0-3.84l14-24.27a2.26,2.26,0,0,0,1,.26,2.29,2.29,0,0,0,2.28-2.17h28a2.29,2.29,0,0,0,2.28,2.17,2.22,2.22,0,0,0,1-.26l14,24.27a2.29,2.29,0,0,0,0,3.84l-5.81,10.08-8.19,14.19a2.32,2.32,0,0,0-1-.26,2.29,2.29,0,0,0-2.22,2.17ZM215,322l-14-24.27a2.27,2.27,0,0,0,1.05-1.92,2.31,2.31,0,0,0-1.05-1.92l14-24.26a2.31,2.31,0,0,0,1,.25,2.28,2.28,0,0,0,2.28-2.17h27.93a1.486,1.486,0,0,0,0,.21,2.3,2.3,0,0,0,2.3,2.3,2.25,2.25,0,0,0,1.25-.38l13.89,24.06a2.28,2.28,0,0,0,0,3.83l-14,24.27a2.25,2.25,0,0,0-1-.26,2.3,2.3,0,0,0-2.28,2.18h-28A2.28,2.28,0,0,0,215,322Zm-48.89,28.23-14-24.27a2.28,2.28,0,0,0,0-3.84l14-24.27a2.27,2.27,0,0,0,3.32-1.91h28a2.28,2.28,0,0,0,2.28,2.17,2.34,2.34,0,0,0,1-.25l14,24.26a2.31,2.31,0,0,0-1,1.92,2.28,2.28,0,0,0,1.05,1.92l-14,24.27a2.27,2.27,0,0,0-3.32,1.92h-28a2.27,2.27,0,0,0-3.32-1.91Zm-1.26,2a2.291,2.291,0,0,0,4.58.12h28a2.29,2.29,0,1,0,3.54-2L215,326a2.42,2.42,0,0,0,1,.26,2.29,2.29,0,0,0,2.28-2.17h28a2.3,2.3,0,0,0,2.28,2.17,2.25,2.25,0,0,0,1-.26l14,24.27a2.29,2.29,0,1,0,3.53,2h28a2.29,2.29,0,1,0,3.53-2l14-24.27a2.2,2.2,0,0,0,1,.25,2.28,2.28,0,0,0,2.28-2.17h28a2.26,2.26,0,0,0,2.28,2.16,2.29,2.29,0,0,0,1.25-4.21l14-24.26a2.37,2.37,0,0,0,1,.25,2.3,2.3,0,1,0,0-4.59,2.25,2.25,0,0,0-1,.26l-14-24.27a2.272,2.272,0,1,0-3.57-2.04h-28a2.28,2.28,0,0,0-2.28-2.18,2.22,2.22,0,0,0-1,.26l-14-24.27a2.28,2.28,0,0,0,0-3.84l14-24.26a2.24,2.24,0,0,0,1,.25,2.29,2.29,0,0,0,2.29-2.17h28a2.28,2.28,0,0,0,2.28,2.17,2.25,2.25,0,0,0,1-.26l14,24.27a2.29,2.29,0,1,0,3.54,2.05h28a2.291,2.291,0,1,0,4.58-.13,2.32,2.32,0,0,0-1.05-1.92l14-24.27a2.25,2.25,0,0,0,1,.26,2.29,2.29,0,0,0,2.29-2.17h28a2.29,2.29,0,0,0,2.29,2.17,2.41,2.41,0,0,0,1-.25l14,24.26a2.29,2.29,0,1,0,3.54,2.05h28a2.27,2.27,0,0,0,3.32,1.91l14,24.27a2.29,2.29,0,1,0,3.53,2h28a2.29,2.29,0,1,0,3.53-2l14-24.27a2.32,2.32,0,0,0,1,.26A2.29,2.29,0,0,0,560,239.4h28a2.29,2.29,0,0,0,2.29,2.17,2.25,2.25,0,0,0,1-.26l14,24.27a2.272,2.272,0,1,0,3.57,2.04h28a2.292,2.292,0,1,0,3.58-2.04l14-24.27a2.25,2.25,0,0,0,1,.26,2.3,2.3,0,0,0,0-4.59,2.37,2.37,0,0,0-1,.25L641,213a2.29,2.29,0,1,0-3.53-2h-28a2.29,2.29,0,0,0-2.29-2.17,2.249,2.249,0,0,0-1,.26l-14-24.27a2.29,2.29,0,0,0,0-3.84l14-24.27a2.28,2.28,0,0,0,3.33-1.91h28a2.29,2.29,0,1,0,3.53-2l14-24.26a2.34,2.34,0,0,0,1,.25,2.29,2.29,0,0,0,2.28-2.17h28a2.29,2.29,0,1,0,3.54-2l14-24.27a2.25,2.25,0,0,0,1,.26,2.28,2.28,0,0,0,2.28-2.18h28a2.28,2.28,0,0,0,2.28,2.17,2.32,2.32,0,0,0,1-.26l14,24.27a2.29,2.29,0,1,0,3.54,2h28a2.29,2.29,0,1,0,3.53-2l14-24.27A2.346,2.346,0,0,0,805,98.31h28a2.29,2.29,0,0,0,2.28,2.17,2.33,2.33,0,0,0,1-.26l14,24.28a2.29,2.29,0,0,0,0,3.82L836.2,152.89a2.179,2.179,0,0,0-1-.22,2.3,2.3,0,0,0-2.25,1.84H805a2.29,2.29,0,1,0-3.56,2l-14,24.27a2.31,2.31,0,0,0-1-.24,2.28,2.28,0,0,0-2.28,2.17h-28a2.29,2.29,0,1,0-3.57,2l-14,24.27a2.31,2.31,0,1,0,0,4.11l14,24.27a2.24,2.24,0,0,0-1,1.9,2.29,2.29,0,0,0,4.57.13h28a2.29,2.29,0,0,0,2.28,2.17,2.38,2.38,0,0,0,1-.24l14,24.25a2.29,2.29,0,1,0,3.54,2h28a2.29,2.29,0,1,0,3.54-2l14-24.28a2.19,2.19,0,0,0,1,.27,2.3,2.3,0,1,0,0-4.59,2.19,2.19,0,0,0-1,.27l-14-24.27a2.28,2.28,0,0,0,0-3.87l14-24.27a2.23,2.23,0,0,0,1.06.28,2.29,2.29,0,0,0,2.28-2.18h28a2.3,2.3,0,0,0,2.29,2.18,2.25,2.25,0,0,0,1-.26l14,24.26a2.3,2.3,0,1,0,3.54,2.05h28a2.31,2.31,0,0,0,2.29,2.18,2.34,2.34,0,0,0,1-.26l14,24.26a2.29,2.29,0,1,0,3.53,2.05h28a2.29,2.29,0,1,0,3.54-2.05l14-24.27a2.13,2.13,0,0,0,1,.26,2.29,2.29,0,0,0,2.29-2.17h28a2.29,2.29,0,1,0,3.54-2l14-24.27a2.339,2.339,0,0,0,1,.26,2.3,2.3,0,0,0,0-4.59,2.09,2.09,0,0,0-1,.25l-14-24.27a2.29,2.29,0,1,0-3.54-2h-28a2.29,2.29,0,1,0-3.54,2.05l-14,24.26a2.129,2.129,0,0,0-1-.25,2.28,2.28,0,0,0-2.28,2.17h-28a2.31,2.31,0,0,0-2.29-2.18,2.42,2.42,0,0,0-1,.26l-14-24.27a2.333,2.333,0,0,0,0-3.83l14-24.26a2.32,2.32,0,0,0,1,.24,2.28,2.28,0,0,0,2.28-2.17h28a2.291,2.291,0,1,0,4.58-.12,2.32,2.32,0,0,0-1-1.9l14-24.28a2,2,0,0,0,1,.24,2.28,2.28,0,0,0,2.28-2.16h28a2.28,2.28,0,0,0,2.28,2.17,2.341,2.341,0,0,0,1-.27l14,24.26a2.29,2.29,0,1,0,3.51,2.06h28a2.29,2.29,0,1,0,3.55-2l14-24.27a2.25,2.25,0,0,0,1,.25,2.29,2.29,0,0,0,2.28-2.17h28.06a2.28,2.28,0,0,0,2.28,2.17,2.25,2.25,0,0,0,1-.26l14,24.26a2.29,2.29,0,1,0,3.52,2.05h28a2.29,2.29,0,1,0,3.54-2l14-24.27a2.251,2.251,0,0,0,1,.26,2.3,2.3,0,1,0,0-4.59,2.24,2.24,0,0,0-1,.25l-14-24.27a2.29,2.29,0,1,0-3.53-2h-28a2.29,2.29,0,0,0-2.28-2.18,2.26,2.26,0,0,0-1,.26l-14-24.27a2.3,2.3,0,1,0-3.55-2h-28a2.28,2.28,0,0,0-2.28-2.17,2.331,2.331,0,0,0-1,.25l-.21.12a2.27,2.27,0,0,0-1.06,1.93,2.3,2.3,0,0,0,1,1.93l-14,24.27a2.19,2.19,0,0,0-1-.27,2.28,2.28,0,0,0-2.28,2.17h-28a2.3,2.3,0,0,0-2.29-2.17,2.23,2.23,0,0,0-1,.24l-14-24.26a2.29,2.29,0,0,0,0-3.82l-.21-.12a2.22,2.22,0,0,0-1.06-.27,2.3,2.3,0,0,0-2.28,2.17h-28a2.29,2.29,0,0,0-4.57.12,2.26,2.26,0,0,0,1.06,1.93l-14,24.27a2.26,2.26,0,0,0-1.07-.27A2.29,2.29,0,0,0,979.5,70h-28a2.29,2.29,0,1,0-3.5,2.06L934,96.33a2.25,2.25,0,0,0-1.06-.27,2.28,2.28,0,0,0-2.28,2.17h-28a2.28,2.28,0,0,0-2.28-2.17,2.12,2.12,0,0,0-1,.25l-14-24.27A2.291,2.291,0,1,0,881.84,70h-28a2.29,2.29,0,0,0-2.29-2.17,2.33,2.33,0,0,0-1,.25l-14-24.26a2.323,2.323,0,1,0-3.58-2.05H805a2.29,2.29,0,1,0-3.51,2l-14,24.27a2.25,2.25,0,0,0-1.06-.27,2.28,2.28,0,0,0-2.28,2.17h-28a2.29,2.29,0,0,0-2.28-2.17,2.17,2.17,0,0,0-1,.25l-14-24.27a2.28,2.28,0,0,0,0-3.83l14-24.27a2.26,2.26,0,0,0,1,.26,2.3,2.3,0,0,0,2.28-2.18h28a2.29,2.29,0,1,0,3.53-2l14-24.27a2.25,2.25,0,0,0,1,.26,2.28,2.28,0,0,0,1.653-.667A2.28,2.28,0,0,0,805-14.6h28a2.28,2.28,0,0,0,2.28,2.17A2.28,2.28,0,0,0,836.9-13.1a2.28,2.28,0,0,0,.668-1.622,2.3,2.3,0,0,0-1-1.93l14-24.27a2.14,2.14,0,0,0,1,.26,2.28,2.28,0,0,0,2.28-2.17v-.25a2.28,2.28,0,0,0-2.28-2.17,2.42,2.42,0,0,0-1,.26l-14-24.27a2.27,2.27,0,0,0,1-1.92,2.3,2.3,0,0,0-1-1.92l-.21-.12a2.41,2.41,0,0,0-1-.25A2.29,2.29,0,0,0,833-71.3H805a2.29,2.29,0,0,0-2.29-2.17,2.25,2.25,0,0,0-1,.26l-14-24.27a2.29,2.29,0,0,0,1-1.92,2.27,2.27,0,0,0-1-1.92l14-24.27a2.12,2.12,0,0,0,1,.25,2.29,2.29,0,0,0,1.626-.667,2.29,2.29,0,0,0,.674-1.623,2.29,2.29,0,0,0-.674-1.623,2.29,2.29,0,0,0-1.626-.667,2.24,2.24,0,0,0-1,.25l-14-24.27a2.28,2.28,0,0,0,1.05-1.92,2.3,2.3,0,0,0-2.3-2.29,2.28,2.28,0,0,0-2.28,2.17h-28a2.29,2.29,0,0,0-2.28-2.17,2.3,2.3,0,0,0-2.3,2.3,2.31,2.31,0,0,0,1,1.92l-14,24.26a2.53,2.53,0,0,0-1-.26,2.29,2.29,0,0,0-1.623.674,2.29,2.29,0,0,0-.667,1.626,2.28,2.28,0,0,0,.668,1.622,2.28,2.28,0,0,0,1.622.668,2.24,2.24,0,0,0,1-.25l14,24.27a2.28,2.28,0,0,0-1,1.91,2.32,2.32,0,0,0,1,1.93l-14,24.26a2.24,2.24,0,0,0-1-.25,2.28,2.28,0,0,0-1.622.668,2.28,2.28,0,0,0-.668,1.622,2.29,2.29,0,0,0,.667,1.626,2.29,2.29,0,0,0,1.623.674,2.22,2.22,0,0,0,1-.26l14,24.27a2.31,2.31,0,0,0-1,1.92,2.29,2.29,0,0,0,1,1.92l-14,24.26a2.37,2.37,0,0,0-1-.25,2.28,2.28,0,0,0-2.28,2.17h-28A2.28,2.28,0,0,0,704.94-17a2.26,2.26,0,0,0-1,.26L689.89-41a2.29,2.29,0,0,0,1-1.92,2.28,2.28,0,0,0-.668-1.622,2.28,2.28,0,0,0-1.622-.668,2.28,2.28,0,0,0-2.28,2.17h-28a2.28,2.28,0,0,0-2.32-2.2,2.29,2.29,0,0,0-2.29,2.29,2.29,2.29,0,0,0,1,1.92l-14,24.28a2.22,2.22,0,0,0-1.06-.27,2.29,2.29,0,0,0-2.28,2.17h-28A2.29,2.29,0,0,0,607.15-17a2.25,2.25,0,0,0-1,.26L592.11-41a2.29,2.29,0,0,0,1-1.92,2.29,2.29,0,0,0-.667-1.626,2.29,2.29,0,0,0-1.623-.674,2.29,2.29,0,0,0-2.28,2.18h-28a2.3,2.3,0,0,0-2.29-2.17,2.25,2.25,0,0,0-1,.26l-14-24.27a2.27,2.27,0,0,0,1-1.92A2.29,2.29,0,0,0,542-73.47a2.28,2.28,0,0,0-2.28,2.17h-28a2.29,2.29,0,0,0-2.29-2.17,2.28,2.28,0,0,0-1.622.668,2.28,2.28,0,0,0-.668,1.622,2.3,2.3,0,0,0,1,1.92L494.1-45a2.25,2.25,0,0,0-1-.26,2.3,2.3,0,0,0-2.29,2.17h-28a2.29,2.29,0,0,0-2.28-2.17,2.31,2.31,0,0,0-2.3,2.3,2.3,2.3,0,0,0,1,1.92l-14,24.27a2.29,2.29,0,0,0-1-.26,2.29,2.29,0,0,0-2.28,2.17h-28A2.29,2.29,0,0,0,411.56-17a2.25,2.25,0,0,0-1,.26L396.52-41a2.29,2.29,0,0,0,1-1.92,2.29,2.29,0,0,0-.667-1.626,2.29,2.29,0,0,0-1.623-.674A2.28,2.28,0,0,0,393-43.08H365a2.3,2.3,0,0,0-2.29-2.17,2.3,2.3,0,0,0-2.29,2.3,2.29,2.29,0,0,0,1,1.92l-14,24.27a2.25,2.25,0,0,0-1-.26,2.3,2.3,0,0,0-2.3,2.29,2.3,2.3,0,0,0,2.3,2.3,2.25,2.25,0,0,0,1-.26l14,24.27a2.29,2.29,0,1,0,3.53,2h28a2.28,2.28,0,0,0,2.28,2.17,2.25,2.25,0,0,0,1-.26l14,24.27a2.29,2.29,0,1,0,3.53,2h28a2.28,2.28,0,0,0,2.4,2.24,2.32,2.32,0,0,0,1-.26l14,24.29a2.28,2.28,0,0,0,0,3.83l-14,24.27a2.26,2.26,0,0,0-1-.26,2.29,2.29,0,0,0-2.28,2.17h-28a2.29,2.29,0,1,0-3.53,2l-14,24.27a2.26,2.26,0,0,0-1-.26,2.3,2.3,0,0,0,0,4.59,2.38,2.38,0,0,0,1-.25l14,24.26a2.3,2.3,0,0,0,0,3.84l-14,24.27a2.27,2.27,0,0,0-3.32,1.92H365a2.3,2.3,0,0,0-2.28-2.18,2.26,2.26,0,0,0-1,.26l-14-24.27a2.25,2.25,0,0,0,1-1.92,2.29,2.29,0,0,0-4.57-.12h-28a2.29,2.29,0,1,0-3.53,2l-14,24.27a2.17,2.17,0,0,0-1-.26,2.3,2.3,0,0,0-2.29,2.18h-28a2.29,2.29,0,1,0-3.53,2l-14,24.27a2.25,2.25,0,0,0-1-.26,2.3,2.3,0,1,0,0,4.59,2.25,2.25,0,0,0,1-.26l14,24.28a2.334,2.334,0,0,0,0,3.83l-14.3,24.7a2.4,2.4,0,0,0-1-.21,2.3,2.3,0,0,0-2.26,1.84H218.33a2.29,2.29,0,1,0-3.53,2l-14,24.27a2.22,2.22,0,0,0-1-.26,2.29,2.29,0,0,0-2.28,2.17h-28a2.29,2.29,0,1,0-3.53,2.05L151.9,322a2.29,2.29,0,1,0-1,4.33,2.16,2.16,0,0,0,1-.25l14,24.27a2.28,2.28,0,0,0-1.04,1.87ZM784.14-99.53h-28a2.29,2.29,0,0,0-2.29-2.17,2.25,2.25,0,0,0-1,.26l-14-24.27a2.27,2.27,0,0,0,1-1.92,2.3,2.3,0,0,0-1-1.92l14-24.27a2.25,2.25,0,0,0,1,.26,2.29,2.29,0,0,0,2.29-2.17h28a2.28,2.28,0,0,0,2.28,2.17,2.25,2.25,0,0,0,1-.26l14,24.27a2.27,2.27,0,0,0-1,1.92,2.29,2.29,0,0,0,1,1.92l-14,24.27a2.25,2.25,0,0,0-1-.26,2.28,2.28,0,0,0-2.28,2.17Zm17.54,82.76L787.67-41a2.29,2.29,0,0,0,1-1.92,2.27,2.27,0,0,0-1-1.92L793.53-55l8.15-14.11a2.28,2.28,0,0,0,1,.26A2.3,2.3,0,0,0,805-71h28a2.29,2.29,0,0,0,2.28,2.17,2.25,2.25,0,0,0,1-.26l14,24.27a2.31,2.31,0,0,0-1,1.92,2.28,2.28,0,0,0,1,1.91l-14,24.28a2.25,2.25,0,0,0-1-.26A2.28,2.28,0,0,0,833-14.85H805A2.28,2.28,0,0,0,802.71-17a2.24,2.24,0,0,0-1.03.23Zm-17.55-26.3h-28a2.3,2.3,0,0,0-2.29-2.18,2.38,2.38,0,0,0-1,.26l-14-24.27a2.27,2.27,0,0,0,1-1.92,2.29,2.29,0,0,0-1-1.92l14-24.26a2.37,2.37,0,0,0,1,.25,2.29,2.29,0,0,0,2.29-2.17h28a2.28,2.28,0,0,0,2.28,2.17,2.24,2.24,0,0,0,1-.25l14,24.26a2.29,2.29,0,0,0-1,1.92,2.26,2.26,0,0,0,1,1.92L795.6-59.1,787.45-45a2.12,2.12,0,0,0-1-.25,2.29,2.29,0,0,0-2.32,2.18ZM738.78-12.8a2.34,2.34,0,0,0,1.05-1.93,2.32,2.32,0,0,0-1.05-1.92l14-24.26a2.25,2.25,0,0,0,1,.26,2.31,2.31,0,0,0,2.29-2.18h28a2.28,2.28,0,0,0,2.28,2.17,2.24,2.24,0,0,0,1-.25l14,24.26a2.29,2.29,0,0,0-1,1.93,2.26,2.26,0,0,0,1,1.92l-14,24.26a2.24,2.24,0,0,0-1-.25,2.28,2.28,0,0,0-2.28,2.17h-28a2.29,2.29,0,0,0-2.28-2.17,2.13,2.13,0,0,0-1,.25ZM459.23,124.49a2.29,2.29,0,0,0,0,3.84l-14,24.27a2.27,2.27,0,0,0-3.32,1.91h-28a2.28,2.28,0,0,0-2.28-2.17,2.34,2.34,0,0,0-1,.25l-14-24.26a2.29,2.29,0,0,0,0-3.84l14-24.27a2.32,2.32,0,0,0,1,.26,2.28,2.28,0,0,0,2.28-2.17h28a2.29,2.29,0,0,0,2.28,2.17,2.26,2.26,0,0,0,1-.26Zm3.54-54.41h28a2.29,2.29,0,0,0,2.28,2.17,2.32,2.32,0,0,0,1-.26l14,24.27A2.3,2.3,0,0,0,507,98.18a2.34,2.34,0,0,0,1,1.92l-14,24.27a2.25,2.25,0,0,0-1-.26,2.29,2.29,0,0,0-2.28,2.18h-28a2.29,2.29,0,0,0-2.28-2.18,2.25,2.25,0,0,0-1,.26l-14-24.27a2.29,2.29,0,0,0,0-3.84l14-24.27a2.25,2.25,0,0,0,1,.26,2.29,2.29,0,0,0,2.33-2.17Zm46.6,82.26a2.37,2.37,0,0,0-1,.25l-14-24.26a2.28,2.28,0,0,0,0-3.84l14-24.27a2.27,2.27,0,0,0,3.32-1.91h28.05a2.28,2.28,0,0,0,2.28,2.17,2.25,2.25,0,0,0,1-.25l14,24.26a2.26,2.26,0,0,0-1,1.92,2.29,2.29,0,0,0,1,1.92l-14,24.26a2.38,2.38,0,0,0-1-.25,2.29,2.29,0,0,0-2.28,2.17h-28a2.28,2.28,0,0,0-2.37-2.17Zm-99.06-169a2.29,2.29,0,0,0-1,1.93,2.31,2.31,0,0,0,1,1.92l-.37.64L396.3,11.46a2.37,2.37,0,0,0-1-.25,2.28,2.28,0,0,0-2.3,2.17H365a2.29,2.29,0,0,0-2.29-2.17,2.24,2.24,0,0,0-1,.25l-14-24.26a2.29,2.29,0,0,0,1-1.92,2.29,2.29,0,0,0-1-1.93l14-24.26a2.38,2.38,0,0,0,1,.26A2.31,2.31,0,0,0,365-42.83h28a2.28,2.28,0,0,0,2.28,2.17,2.12,2.12,0,0,0,1-.25ZM459.2,11.58a2.29,2.29,0,0,0,0,3.84l-14,24.27a2.25,2.25,0,0,0-1-.26,2.28,2.28,0,0,0-2.28,2.17h-28a2.28,2.28,0,0,0-2.28-2.17,2.25,2.25,0,0,0-1,.26l-14-24.27a2.25,2.25,0,0,0,1-1.92,2.29,2.29,0,0,0-1-1.92l14-24.27a2.25,2.25,0,0,0,1,.26,2.29,2.29,0,0,0,2.29-2.17h28a2.29,2.29,0,0,0,2.28,2.17,2.34,2.34,0,0,0,1-.25Zm3.54,2h28a2.29,2.29,0,0,0,2.28,2.18,2.26,2.26,0,0,0,1-.26l14,24.27a2.28,2.28,0,0,0,0,3.84l-14,24.25a2.24,2.24,0,0,0-1-.24,2.29,2.29,0,0,0-2.28,2.17h-28a2.29,2.29,0,0,0-2.28-2.17,2.22,2.22,0,0,0-1.06.27l-14-24.28a2.28,2.28,0,0,0,0-3.84l14-24.27a2.32,2.32,0,0,0,1,.26,2.29,2.29,0,0,0,2.34-2.14ZM508.1-16.64a2.29,2.29,0,0,0-1,1.92,2.28,2.28,0,0,0,1,1.91l-14,24.27a2.28,2.28,0,0,0-3.32,1.92h-28a2.29,2.29,0,0,0-2.28-2.17,2.21,2.21,0,0,0-1,.25l-14-24.26a2.3,2.3,0,0,0,1-1.92,2.3,2.3,0,0,0-1-1.93l14-24.26a2.28,2.28,0,0,0,1,.26,2.3,2.3,0,0,0,2.29-2.18h28.05a2.29,2.29,0,0,0,2.28,2.18,2.21,2.21,0,0,0,1-.26ZM557-44.87a2.31,2.31,0,0,0-1,1.92A2.32,2.32,0,0,0,557-41L543-16.77a2.29,2.29,0,0,0-1-.25,2.28,2.28,0,0,0-2.28,2.17H511.64A2.28,2.28,0,0,0,509.36-17a2.25,2.25,0,0,0-1,.26L494.32-41a2.29,2.29,0,0,0,1-1.92,2.27,2.27,0,0,0-1-1.92l14-24.27a2.25,2.25,0,0,0,1,.26A2.28,2.28,0,0,0,511.64-71h28A2.29,2.29,0,0,0,542-68.88a2.25,2.25,0,0,0,1-.26Zm34.9,4,14,24.26a2.3,2.3,0,0,0-1,1.93,2.29,2.29,0,0,0,1,1.91l-14,24.27a2.21,2.21,0,0,0-1-.25,2.28,2.28,0,0,0-2.28,2.17h-28a2.29,2.29,0,0,0-2.28-2.17,2.25,2.25,0,0,0-1,.25l-14-24.26a2.29,2.29,0,0,0,1-1.93,2.26,2.26,0,0,0-1-1.91l14-24.27a2.08,2.08,0,0,0,1,.25,2.29,2.29,0,0,0,2.29-2.17h28a2.29,2.29,0,0,0,2.28,2.18,2.46,2.46,0,0,0,.99-.3Zm62.89,52.48a2.29,2.29,0,0,0-1.07,1.93,2.33,2.33,0,0,0,1.06,1.93l-14,24.26a2.25,2.25,0,0,0-1-.26,2.29,2.29,0,0,0-2.29,2.17h-28a2.27,2.27,0,0,0-3.32-1.91l-14-24.27a2.28,2.28,0,0,0,1-1.92,2.31,2.31,0,0,0-1-1.92l14-24.27a2.25,2.25,0,0,0,1,.26,2.29,2.29,0,0,0,2.29-2.17h28a2.29,2.29,0,0,0,2.28,2.17,2.22,2.22,0,0,0,1-.27Zm48.89-28.22a2.32,2.32,0,0,0-1,1.93,2.3,2.3,0,0,0,1.05,1.92L697.81-2.63l-8.14,14.09a2.12,2.12,0,0,0-1-.25,2.29,2.29,0,0,0-2.29,2.17H658.3a2.27,2.27,0,0,0-3.3-1.93L641-12.82a2.28,2.28,0,0,0,1-1.9,2.3,2.3,0,0,0-1-1.91l14-24.28a2.13,2.13,0,0,0,1,.25,2.29,2.29,0,0,0,2.28-2.17h28a2.29,2.29,0,0,0,2.28,2.18,2.38,2.38,0,0,0,1-.26ZM735.25,41.6h-28a2.3,2.3,0,0,0-2.29-2.17,2.33,2.33,0,0,0-1,.25l-14-24.26a2.29,2.29,0,0,0,0-3.84l5.87-10.17,8.14-14.1a2.29,2.29,0,0,0,1,.26,2.29,2.29,0,0,0,2.28-2.17h28a2.28,2.28,0,0,0,2.28,2.17,2.37,2.37,0,0,0,1-.25l14,24.26a2.29,2.29,0,0,0,0,3.84l-14,24.27a2.27,2.27,0,0,0-3.32,1.91ZM637.49,98.06h-28a2.258,2.258,0,0,0-3.29-1.92l-14-24.27a2.321,2.321,0,1,0-3.58-2.04h-28a2.29,2.29,0,1,0-3.53,2L543,96.14a2.12,2.12,0,0,0-1-.25,2.28,2.28,0,0,0-2.28,2.17H511.66a2.29,2.29,0,0,0-2.28-2.17,2.41,2.41,0,0,0-1,.25l-14-24.26a2.3,2.3,0,0,0,0-3.86l14-24.25a2.37,2.37,0,0,0,1,.25,2.3,2.3,0,0,0,0-4.59,2.22,2.22,0,0,0-1,.26l-14-24.27a2.29,2.29,0,0,0,0-3.84l14-24.27a2.29,2.29,0,0,0,1,.26,2.29,2.29,0,0,0,2.29-2.17h28A2.28,2.28,0,0,0,542-12.43a2.25,2.25,0,0,0,1-.26l14,24.27a2.321,2.321,0,1,0,3.58,2.04h28a2.27,2.27,0,0,0,3.32,1.91l14,24.27a2.29,2.29,0,1,0,3.53,2h28a2.29,2.29,0,1,0,3.54-2l14-24.26a2.33,2.33,0,0,0,1,.25,2.3,2.3,0,0,0,2.28-2.18H686.3a2.28,2.28,0,0,0,3.33,1.92l14,24.26a2.3,2.3,0,0,0-1,1.93,2.27,2.27,0,0,0,1.06,1.93l-14,24.27a2.25,2.25,0,0,0-1.06-.27,2.29,2.29,0,0,0-2.29,2.17h-28a2.29,2.29,0,1,0-3.5,2.06l-14,24.25a2.24,2.24,0,0,0-1-.25,2.29,2.29,0,0,0-2.35,2.18ZM539.69,211H511.64a2.29,2.29,0,0,0-2.29-2.17,2.25,2.25,0,0,0-1,.26l-14-24.27a2.29,2.29,0,1,0-3.53-2h-28a2.3,2.3,0,0,0-2.29-2.18,2.25,2.25,0,0,0-1,.26l-14-24.26a2.3,2.3,0,0,0,0-3.85l14-24.27a2.25,2.25,0,0,0,1,.26,2.28,2.28,0,0,0,2.28-2.17h28a2.28,2.28,0,0,0,2.28,2.17,2.24,2.24,0,0,0,1-.25l14,24.26a2.29,2.29,0,1,0,3.53,2h28a2.28,2.28,0,0,0,3.33,1.91l14,24.27a2.29,2.29,0,0,0,0,3.84l-14,24.27a2.25,2.25,0,0,0-1-.26,2.29,2.29,0,0,0-2.26,2.18ZM396.54,184.78a2.34,2.34,0,0,0,1-1.92,2.3,2.3,0,0,0-1-1.92l14-24.27a2.234,2.234,0,0,0,3.28-1.91h28a2.29,2.29,0,0,0,2.28,2.17,2.34,2.34,0,0,0,1-.25l14,24.26a2.29,2.29,0,0,0,0,3.84l-14,24.27a2.25,2.25,0,0,0-1-.26,2.29,2.29,0,0,0-2.29,2.17h-28a2.29,2.29,0,0,0-2.29-2.17,2.21,2.21,0,0,0-1,.26Zm-34.89,52.49-14-24.26a2.29,2.29,0,0,0,0-3.84l5.95-10.31,8.06-14a2.15,2.15,0,0,0,1,.25A2.29,2.29,0,0,0,365,183h28a2.28,2.28,0,0,0,2.28,2.17,2.24,2.24,0,0,0,1-.25l14,24.27a2.28,2.28,0,0,0-1,1.91,2.32,2.32,0,0,0,1,1.93l-14,24.26a2.24,2.24,0,0,0-1-.25,2.28,2.28,0,0,0-2.28,2.17H365a2.28,2.28,0,0,0-2.28-2.17A2.25,2.25,0,0,0,361.65,237.27Zm-62.89-52.49a2.29,2.29,0,0,0,0-3.84l14-24.27a2.25,2.25,0,0,0,1,.26,2.31,2.31,0,0,0,2.29-2.17h28a2.28,2.28,0,0,0,2.28,2.17,2.25,2.25,0,0,0,1-.26l14,24.27a2.29,2.29,0,0,0,0,3.84l-5.95,10.31-8.06,14a2.25,2.25,0,0,0-1-.26,2.28,2.28,0,0,0-2.28,2.17h-28a2.28,2.28,0,0,0-2.28-2.17,2.25,2.25,0,0,0-1,.26Zm-3.52,54.41h-28a2.28,2.28,0,0,0-2.28-2.17,2.33,2.33,0,0,0-1.05.26l-14-24.27a2.29,2.29,0,0,0,0-3.84l14-24.27a2.24,2.24,0,0,0,1,.25,2.28,2.28,0,0,0,2.28-2.17h28a2.27,2.27,0,0,0,2.28,2.17,2.06,2.06,0,0,0,1-.25l14,24.27a2.3,2.3,0,0,0,0,3.84l-14,24.26a2.23,2.23,0,0,0-1-.25,2.29,2.29,0,0,0-2.23,2.17Zm0,56.45h-28a2.29,2.29,0,0,0-2.28-2.17,2.26,2.26,0,0,0-1,.26L250,269.63a2.28,2.28,0,0,0,.84-1.76,2.31,2.31,0,0,0-1.11-2l14.18-24.56a2.25,2.25,0,0,0,1,.26,2.28,2.28,0,0,0,2.28-2.17h28a2.29,2.29,0,0,0,2.29,2.17,2.25,2.25,0,0,0,1-.26l14,24.27a2.25,2.25,0,0,0-1,1.92,2.3,2.3,0,0,0,1,1.92l-14,24.26a2.329,2.329,0,0,0-1-.25,2.28,2.28,0,0,0-2.23,2.21Z" transform="translate(20 259.15)" fill="#fff"/>
      <g id="Grupo_12264" data-name="Grupo 12264" opacity="0.9">
        <path id="Trazado_10373" data-name="Trazado 10373" d="M774,212h-2.34v-2.33a.57.57,0,0,0-.57-.57h-1.72a.57.57,0,0,0-.57.57V212h-2.33a.57.57,0,0,0-.57.57v1.72a.57.57,0,0,0,.57.57h2.33v2.34a.57.57,0,0,0,.57.56H771a.57.57,0,0,0,.57-.56v-2.34H774a.57.57,0,0,0,.56-.57v-1.72A.57.57,0,0,0,774,212Z" transform="translate(20 259.15)" fill="#fff"/>
        <path id="Trazado_10374" data-name="Trazado 10374" d="M778.86,201.18H777c0-2.18-.81-4.41-6.81-4.41s-6.8,2.23-6.8,4.41H761.5c0-6.29,6.53-6.29,8.68-6.29S778.86,194.89,778.86,201.18Z" transform="translate(20 259.15)" fill="#fff"/>
        <path id="Trazado_10375" data-name="Trazado 10375" d="M778.4,202H762a5.63,5.63,0,0,0-5.63,5.64v11.42A5.63,5.63,0,0,0,762,224.7h16.4a5.64,5.64,0,0,0,5.64-5.64V207.67A5.64,5.64,0,0,0,778.4,202Zm-8.22,18.07a2.791,2.791,0,1,1,0,.03Z" transform="translate(20 259.15)" fill="#fff"/>
        <path id="Trazado_10376" data-name="Trazado 10376" d="M1166.71,100.76a7.79,7.79,0,0,1-10.85,0c-5.51.95-9.42,3.72-9.42,10h29.69C1176.13,104.48,1172.22,101.71,1166.71,100.76Z" transform="translate(20 259.15)" fill="#fff"/>
        <path id="Trazado_10377" data-name="Trazado 10377" d="M1153.68,90.94a7.4,7.4,0,0,0-.21,1.77,7.82,7.82,0,1,0,15.63,0,7.936,7.936,0,0,0-.21-1.77Z" transform="translate(20 259.15)" fill="#fff"/>
        <path id="Trazado_10378" data-name="Trazado 10378" d="M1165.53,81.6H1157a4.22,4.22,0,0,0-4.21,4.21l.85,4.25h15.21l.85-4.25a4.22,4.22,0,0,0-4.17-4.21Zm-4.25,7.55a3.32,3.32,0,1,1,3.32-3.32A3.32,3.32,0,0,1,1161.28,89.15Z" transform="translate(20 259.15)" fill="#fff"/>
        <path id="Trazado_10379" data-name="Trazado 10379" d="M1163.44,85h-1.34V83.67a.32.32,0,0,0-.32-.33h-1a.32.32,0,0,0-.32.33V85h-1.34a.33.33,0,0,0-.33.32v1a.32.32,0,0,0,.33.32h1.34V88a.32.32,0,0,0,.32.33h1a.32.32,0,0,0,.32-.33V86.64h1.34a.32.32,0,0,0,.32-.32v-1A.32.32,0,0,0,1163.44,85Z" transform="translate(20 259.15)" fill="#fff"/>
        <path id="Trazado_10380" data-name="Trazado 10380" d="M883,157.8a3.55,3.55,0,0,1-4.94,0,7.77,7.77,0,0,0-1,.24,6.251,6.251,0,0,1,1.45,4.32h8.81C887.3,159.49,885.53,158.23,883,157.8Z" transform="translate(20 259.15)" fill="#fff"/>
        <path id="Trazado_10381" data-name="Trazado 10381" d="M877.08,153.33a3.56,3.56,0,1,0,6.93,0Z" transform="translate(20 259.15)" fill="#fff"/>
        <path id="Trazado_10382" data-name="Trazado 10382" d="M882.47,149.07h-3.86a1.92,1.92,0,0,0-1.92,1.92l.39,1.93H884l.39-1.93a1.92,1.92,0,0,0-1.92-1.92Zm-1.93,3.44a1.51,1.51,0,1,1,1.51-1.51A1.51,1.51,0,0,1,880.54,152.51Z" transform="translate(20 259.15)" fill="#fff"/>
        <path id="Trazado_10383" data-name="Trazado 10383" d="M881.52,150.63h-.61V150a.14.14,0,0,0-.14-.14h-.45a.15.15,0,0,0-.15.14v.62h-.61a.15.15,0,0,0-.15.14v.45a.15.15,0,0,0,.15.15h.61V152a.15.15,0,0,0,.15.15h.45a.15.15,0,0,0,.14-.15v-.61h.61a.15.15,0,0,0,.15-.15v-.45a.14.14,0,0,0-.15-.16Z" transform="translate(20 259.15)" fill="#fff"/>
        <path id="Trazado_10384" data-name="Trazado 10384" d="M871.56,155.75a5.16,5.16,0,0,1-7.17,0c-3.65.63-6.23,2.45-6.23,6.61h19.62C877.78,158.2,875.2,156.38,871.56,155.75Z" transform="translate(20 259.15)" fill="#fff"/>
        <path id="Trazado_10385" data-name="Trazado 10385" d="M863,149.26a4.932,4.932,0,0,0-.14,1.17,5.17,5.17,0,0,0,10.33,0,4.932,4.932,0,0,0-.14-1.17Z" transform="translate(20 259.15)" fill="#fff"/>
        <path id="Trazado_10386" data-name="Trazado 10386" d="M870.78,143.08h-5.61a2.8,2.8,0,0,0-2.79,2.79l.57,2.8h10l.56-2.8a2.8,2.8,0,0,0-2.73-2.79Zm-2.81,5a3.463,3.463,0,1,1,.03-.01Z" transform="translate(20 259.15)" fill="#fff"/>
        <path id="Trazado_10387" data-name="Trazado 10387" d="M869.4,145.34h-.88v-.89a.21.21,0,0,0-.22-.21h-.65a.21.21,0,0,0-.22.21v.89h-.88a.21.21,0,0,0-.22.21v.65a.22.22,0,0,0,.22.22h.88v.88a.22.22,0,0,0,.22.22h.65a.22.22,0,0,0,.22-.22v-.88h.88a.21.21,0,0,0,.21-.22v-.65a.21.21,0,0,0-.21-.21Z" transform="translate(20 259.15)" fill="#fff"/>
        <path id="Trazado_10388" data-name="Trazado 10388" d="M857.88,157.8a3.54,3.54,0,0,1-2.47,1,3.5,3.5,0,0,1-2.47-1c-2.52.43-4.29,1.69-4.29,4.56h8.81a6.25,6.25,0,0,1,1.45-4.32,8.145,8.145,0,0,0-1.03-.24Z" transform="translate(20 259.15)" fill="#fff"/>
        <path id="Trazado_10389" data-name="Trazado 10389" d="M851.94,153.33a3.56,3.56,0,1,0,6.93,0Z" transform="translate(20 259.15)" fill="#fff"/>
        <path id="Trazado_10390" data-name="Trazado 10390" d="M857.34,149.07h-3.87a1.93,1.93,0,0,0-1.92,1.92l.39,1.93h6.93l.39-1.93a1.93,1.93,0,0,0-1.92-1.92Zm-1.93,3.44a1.51,1.51,0,1,1,1.51-1.51,1.51,1.51,0,0,1-1.51,1.51Z" transform="translate(20 259.15)" fill="#fff"/>
        <path id="Trazado_10391" data-name="Trazado 10391" d="M856.39,150.63h-.61V150a.15.15,0,0,0-.15-.14h-.45a.15.15,0,0,0-.15.14v.62h-.6a.15.15,0,0,0-.16.14v.45a.16.16,0,0,0,.16.15h.6V152a.15.15,0,0,0,.15.15h.45a.15.15,0,0,0,.15-.15v-.61h.61a.15.15,0,0,0,.15-.15v-.45a.15.15,0,0,0-.15-.16Z" transform="translate(20 259.15)" fill="#fff"/>
        <path id="Trazado_10392" data-name="Trazado 10392" d="M537.88,136.24l-1.13,2a1.252,1.252,0,1,0,2.17,1.25l1.13-2Z" transform="translate(20 259.15)" fill="#fff"/>
        <path id="Trazado_10393" data-name="Trazado 10393" d="M540.28,137.09l1.13-2a1.252,1.252,0,0,0-2.17-1.25l-1.13,2Z" transform="translate(20 259.15)" fill="#fff"/>
        <path id="Trazado_10394" data-name="Trazado 10394" d="M537,129.79l-2.18.58a1.252,1.252,0,1,0,.64,2.42l2.19-.59Z" transform="translate(20 259.15)" fill="#fff"/>
        <path id="Trazado_10395" data-name="Trazado 10395" d="M538.1,132.08l2.18-.58a1.253,1.253,0,1,0-.65-2.42l-2.18.59Z" transform="translate(20 259.15)" fill="#fff"/>
        <path id="Trazado_10396" data-name="Trazado 10396" d="M542.59,129.26l1.95,1.13a1.25,1.25,0,1,0,1.25-2.16l-1.95-1.13Z" transform="translate(20 259.15)" fill="#fff"/>
        <path id="Trazado_10397" data-name="Trazado 10397" d="M543.44,126.87l-2-1.13a1.25,1.25,0,0,0-1.25,2.16l2,1.13Z" transform="translate(20 259.15)" fill="#fff"/>
        <path id="Trazado_10398" data-name="Trazado 10398" d="M526.9,128h-2.2v-2.2a.53.53,0,0,0-.53-.53h-1.62a.54.54,0,0,0-.54.53V128h-2.2a.54.54,0,0,0-.53.54v1.62a.53.53,0,0,0,.53.53H522v2.2a.54.54,0,0,0,.54.54h1.62a.54.54,0,0,0,.53-.54v-2.2h2.2a.54.54,0,0,0,.54-.53v-1.62a.54.54,0,0,0-.53-.54Z" transform="translate(20 259.15)" fill="#fff"/>
        <path id="Trazado_10399" data-name="Trazado 10399" d="M527.61,118.09h-.11v-1.23h-8.28v1.23h-.11a5.45,5.45,0,0,0-5.45,5.44V135.1a5.45,5.45,0,0,0,5.45,5.45h8.5a5.44,5.44,0,0,0,5.44-5.45V123.53A5.44,5.44,0,0,0,527.61,118.09Zm-4.25,17.35a6.13,6.13,0,1,1,6.12-6.12A6.13,6.13,0,0,1,523.36,135.44Z" transform="translate(20 259.15)" fill="#fff"/>
        <rect id="Rectángulo_3270" data-name="Rectángulo 3270" width="9.96" height="5.43" rx="1.1" transform="translate(538.38 369.87)" fill="#fff"/>
        <path id="Trazado_10400" data-name="Trazado 10400" d="M771.49,96.94c4-3.61,7.9-7.51,7.9-14.91h-1.56c0,6.8-3.58,10.31-7.51,13.86-3.93-3.55-7.51-7.06-7.51-13.86h-1.55c0,7.4,3.91,11.3,7.9,14.91-4,3.61-7.9,7.5-7.9,14.91h1.55c0-6.81,3.58-10.32,7.51-13.86,3.93,3.54,7.51,7.05,7.51,13.86h1.56C779.39,104.44,775.48,100.55,771.49,96.94Z" transform="translate(20 259.15)" fill="#fff"/>
        <path id="Trazado_10401" data-name="Trazado 10401" d="M775.45,105.22a.53.53,0,0,1-.56.49h-9.14a.5.5,0,0,1,0-1h9.14a.53.53,0,0,1,.56.51Z" transform="translate(20 259.15)" fill="#fff"/>
        <path id="Trazado_10402" data-name="Trazado 10402" d="M776.79,109a.53.53,0,0,1-.55.49H764.41a.5.5,0,0,1,0-1h11.83a.53.53,0,0,1,.55.51Z" transform="translate(20 259.15)" fill="#fff"/>
        <path id="Trazado_10403" data-name="Trazado 10403" d="M772.74,101.49a.53.53,0,0,1-.55.49h-3.74a.5.5,0,0,1,0-1h3.74a.52.52,0,0,1,.55.51Z" transform="translate(20 259.15)" fill="#fff"/>
        <rect id="Rectángulo_3271" data-name="Rectángulo 3271" width="12.9" height="1.13" rx="0.55" transform="translate(783.88 343.51)" fill="#fff"/>
        <path id="Trazado_10404" data-name="Trazado 10404" d="M775.45,88.65a.53.53,0,0,1-.55.49h-9.15a.53.53,0,0,1-.56-.49.52.52,0,0,1,.56-.48h9.15a.52.52,0,0,1,.55.48Z" transform="translate(20 259.15)" fill="#fff"/>
        <path id="Trazado_10405" data-name="Trazado 10405" d="M772.74,92.38a.52.52,0,0,1-.55.49h-3.74a.5.5,0,0,1,0-1h3.74a.52.52,0,0,1,.55.51Z" transform="translate(20 259.15)" fill="#fff"/>
        <path id="Trazado_10406" data-name="Trazado 10406" d="M990.55,465.32v-9.79h-9.79v9.79h-9.78v9.78h9.78v9.79h9.79V475.1h9.79v-9.78Z" fill="#fff"/>
        <path id="Trazado_10407" data-name="Trazado 10407" d="M629.3,232.69a10.65,10.65,0,0,0,0,21.26Z" transform="translate(20 259.15)" fill="#fff"/>
        <path id="Trazado_10408" data-name="Trazado 10408" d="M630.62,232.69v21.25a10.65,10.65,0,0,0,0-21.25Z" transform="translate(20 259.15)" fill="#fff"/>
        <path id="Trazado_10409" data-name="Trazado 10409" d="M606.8,240.18V249a4.9,4.9,0,0,0,9.8,0v-8.86Z" transform="translate(20 259.15)" fill="#fff"/>
        <path id="Trazado_10410" data-name="Trazado 10410" d="M616.61,238.38v-8.86a4.9,4.9,0,0,0-9.8,0v8.86Z" transform="translate(20 259.15)" fill="#fff"/>
        <path id="Trazado_10411" data-name="Trazado 10411" d="M959.42,98.12a.58.58,0,0,1,.48.25l1.48,2.09.51-1.91,1.84-6.85a.57.57,0,0,1,.56-.43.59.59,0,0,1,.57.43L968,103.28l1.27-4.73.83-3.11a.57.57,0,0,1,.46-.42.58.58,0,0,1,.58.23l2,2.87h8A9.56,9.56,0,0,0,965.66,87.4a9.57,9.57,0,0,0-15.47,10.72Z" transform="translate(20 259.15)" fill="#fff"/>
        <path id="Trazado_10412" data-name="Trazado 10412" d="M972.82,99.29a.58.58,0,0,1-.48-.25L970.86,97l-.51,1.91-1.83,6.85a.59.59,0,0,1-.57.43.58.58,0,0,1-.56-.43l-3.1-11.59L963,98.86l-.85,3.11a.58.58,0,0,1-1,.18l-2-2.86h-8.29a9.182,9.182,0,0,0,1.31,1.63l13.52,13.52,13.52-13.52a9.122,9.122,0,0,0,1.3-1.63Z" transform="translate(20 259.15)" fill="#fff"/>
        <path id="Trazado_10413" data-name="Trazado 10413" d="M1083.08,95.73a2.41,2.41,0,0,0-2.27,1.62h-7.5l-2.73-3.86a.79.79,0,0,0-.79-.32.77.77,0,0,0-.62.57L1068,97.93l-1.7,6.38-4.17-15.6a.79.79,0,0,0-.76-.59.8.8,0,0,0-.77.59l-2.46,9.22-.7,2.58-2-2.83a.79.79,0,0,0-.64-.33h-7.92a2.4,2.4,0,1,0,0,1.58h7.51l2.72,3.86a.79.79,0,0,0,1.4-.25l1.14-4.2,1.71-6.37,4.17,15.6a.78.78,0,0,0,1.52,0l2.47-9.23.69-2.57,2,2.82a.77.77,0,0,0,.64.34h7.91a2.4,2.4,0,1,0,2.27-3.2Z" transform="translate(20 259.15)" fill="#fff"/>
        <path id="Trazado_10414" data-name="Trazado 10414" d="M622.79,127a1.5,1.5,0,1,0-1.49-1.49,1.5,1.5,0,0,0,1.49,1.49Z" transform="translate(20 259.15)" fill="#fff"/>
        <path id="Trazado_10415" data-name="Trazado 10415" d="M623.73,122.47a1.14,1.14,0,1,0-.813-.33,1.15,1.15,0,0,0,.813.33Z" transform="translate(20 259.15)" fill="#fff"/>
        <path id="Trazado_10416" data-name="Trazado 10416" d="M633.16,123.28a11.76,11.76,0,0,0-5.16-4.15v-7.7a.64.64,0,0,0,.63-.64.63.63,0,0,0-.63-.63h-9a.63.63,0,0,0-.63.63.64.64,0,0,0,.63.64v7.7a11.81,11.81,0,0,0-1.92,20.8l.11.07h12.65l.11-.07a11.82,11.82,0,0,0,3.24-16.65Zm-3.61,15.83H617.42a10.91,10.91,0,0,1,2.16-19.26l.28-.11v-8.31h7.25v8.31l.28.11a10.91,10.91,0,0,1,2.16,19.26Z" transform="translate(20 259.15)" fill="#fff"/>
        <path id="Trazado_10417" data-name="Trazado 10417" d="M622.77,129.9a1.764,1.764,0,0,0,0-.4,2,2,0,0,0-2.17-1.89,1.85,1.85,0,0,0-.41.07,1.449,1.449,0,0,0,.19-.71,1.49,1.49,0,1,0-1.49,1.49h.21a2,2,0,0,0-.39,1.33.506.506,0,0,0,0,.13h-5.36a10.08,10.08,0,0,0,4.49,8.4h11.21a10.08,10.08,0,0,0,4.49-8.4Zm-.39,7.25a2,2,0,0,1-2-2,2.116,2.116,0,0,1,0-.44,1.431,1.431,0,0,1-.29,0,1.63,1.63,0,1,1,1.63-1.63v.12a2.026,2.026,0,0,1,.65,4Zm4.48-2a1.618,1.618,0,1,0,0-.03Z" transform="translate(20 259.15)" fill="#fff"/>
        <path id="Trazado_10418" data-name="Trazado 10418" d="M513.33,241.58a2.33,2.33,0,0,0,1.13-1.69l5.49.47a3.43,3.43,0,0,0,.46,1.9,3.39,3.39,0,0,0,2.56,1.68h.25a3.49,3.49,0,0,0,1.89-.46,3.549,3.549,0,0,0,1-.9l9.3,6.56a2.65,2.65,0,1,0,.15-.21l-9.31-6.55a3.43,3.43,0,0,0-.59-4.44l8-9.62a2.9,2.9,0,0,0,3.23.21,2.931,2.931,0,0,0,1.15-1.22l.1-.22a2.93,2.93,0,0,0-3.11-4l-.24.05a2.91,2.91,0,0,0-1.89,4.31,2.759,2.759,0,0,0,.57.69l-8,9.62a3.43,3.43,0,0,0-2.94-.61l-.24.07a4.546,4.546,0,0,0-.65.28,3.48,3.48,0,0,0-1.68,2.56l-5.49-.48a2.24,2.24,0,0,0-.31-1.25,2.34,2.34,0,1,0-.84,3.2Z" transform="translate(20 259.15)" fill="#fff"/>
      </g>
    </g>
  </g>
</svg>
