<svg xmlns="http://www.w3.org/2000/svg" xmlns:xlink="http://www.w3.org/1999/xlink" width="496.078" height="283" viewBox="0 0 496.078 283">
  <defs>
    <linearGradient id="linear-gradient" x1="0.5" y1="1" x2="0.5" gradientUnits="objectBoundingBox">
      <stop offset="0.248" stop-color="#f4e9d4"/>
      <stop offset="1" stop-color="#e0cdaf"/>
    </linearGradient>
    <clipPath id="clip-path">
      <rect id="SVGID" width="51.169" height="47.331" transform="translate(777.413 -325)" fill="none"/>
    </clipPath>
    <clipPath id="clip-path-2">
      <rect id="SVGID-2" data-name="SVGID" width="51.169" height="51.169" transform="translate(857.364 -297.817)" fill="none"/>
    </clipPath>
    <clipPath id="clip-path-3">
      <rect id="SVGID-3" data-name="SVGID" width="40.153" height="59.92" transform="translate(929.18 -270.953)" fill="none"/>
    </clipPath>
  </defs>
  <g id="Grupo_14265" data-name="Grupo 14265" transform="translate(-764 -82)">
    <g id="Grupo_13680" data-name="Grupo 13680" transform="translate(137.078 407)">
      <path id="Trazado_12604" data-name="Trazado 12604" d="M1064.713-104H727.33L644-42h479Z" fill="url(#linear-gradient)"/>
      <g id="Grupo_13312" data-name="Grupo 13312">
        <g id="Grupo_13302" data-name="Grupo 13302">
          <path id="Trazado_12605" data-name="Trazado 12605" d="M744.274-128.846c-15.179-28.513-38.82-57.428-64.86-79.329a.623.623,0,0,0-.8.953c25.923,21.8,49.455,50.584,64.562,78.962A.623.623,0,0,0,744.274-128.846Z" fill="#f87314"/>
        </g>
        <g id="Grupo_13304" data-name="Grupo 13304">
          <path id="Trazado_12606" data-name="Trazado 12606" d="M679.013-207.7a176.637,176.637,0,0,0-25.2-17.8Z" fill="#f87314"/>
          <g id="Grupo_13303" data-name="Grupo 13303">
            <path id="Trazado_12607" data-name="Trazado 12607" d="M673.666-207.617c2.379.4,4.969.373,5.347-.081.889-1.069-1.01-8.84-7.405-13.514-5.042-3.616-12.373-4.946-17.795-4.287a47.005,47.005,0,0,0,6.109,9.909C663.551-211.318,667.334-208.687,673.666-207.617Z" fill="#f87314"/>
          </g>
        </g>
        <g id="Grupo_13305" data-name="Grupo 13305">
          <path id="Trazado_12608" data-name="Trazado 12608" d="M677.053-188.134c8.1-1.65,13.843-8.14,13.614-9.194-.2-.909-4.46-2.321-8.827-2.385-8.9-.1-14.99,5.167-20.784,7.966C662.768-189.363,669.54-186.575,677.053-188.134Z" fill="#f87314"/>
        </g>
        <g id="Grupo_13306" data-name="Grupo 13306">
          <path id="Trazado_12609" data-name="Trazado 12609" d="M696.843-172.338c7.1-3.06,9.7-8.434,9.33-9.038-.32-.518-2.7-.426-5.524-.391-3.1.053-4.449-.038-7.048.007-6.792.088-19.009,1.862-22.435,7.669a7.661,7.661,0,0,1,3.353.177C678.36-172.963,686.412-167.837,696.843-172.338Z" fill="#f87314"/>
        </g>
        <g id="Grupo_13307" data-name="Grupo 13307">
          <path id="Trazado_12610" data-name="Trazado 12610" d="M719.066-154.221a14.31,14.31,0,0,0,3.278-5.541c.772-3.119-.166-1.979-5.8-.481-2.571.725-4.328,1.066-10.29,2.333-11.013,2.619-16.273,4.164-19.72,4.123C688.794-146.943,707.851-142.244,719.066-154.221Z" fill="#f87314"/>
        </g>
        <g id="Grupo_13308" data-name="Grupo 13308">
          <path id="Trazado_12611" data-name="Trazado 12611" d="M732.052-136.625c3.917-.96,5.889-1.418,6.1-1.832.727-1.439-6.47-8.714-18.675-5.423-8.787,2.287-17.269,9.954-20.469,15.241C713.642-132.439,706.4-129.99,732.052-136.625Z" fill="#f87314"/>
        </g>
        <g id="Grupo_13309" data-name="Grupo 13309">
          <path id="Trazado_12612" data-name="Trazado 12612" d="M696.88-191.24c.586.118,2-1.187,2.425-1.6,10.19-10.338,6.527-28.414-10.152-30.247,1.932,5.508,2.8,6,3.8,14.292C693.595-202.808,695.723-191.474,696.88-191.24Z" fill="#f87314"/>
        </g>
        <g id="Grupo_13310" data-name="Grupo 13310">
          <path id="Trazado_12613" data-name="Trazado 12613" d="M715.6-181.772c-.317,1.313-2.034,9.179-1.384,9.728,1.462,1.278,15.333-4.785,15.3-19.125a21.01,21.01,0,0,0-3.85-12.28C719.5-192.132,717.2-188.495,715.6-181.772Z" fill="#f87314"/>
        </g>
        <g id="Grupo_13311" data-name="Grupo 13311">
          <path id="Trazado_12614" data-name="Trazado 12614" d="M732.022-160.674c-2.879,5.347-2.806,8.745-2.389,9.011,1.135.72,9.807-3.868,11.017-4.556,4.781-2.568,7.117-4.506,20.5-14.633C752.729-174.859,738.418-172.1,732.022-160.674Z" fill="#f87314"/>
        </g>
      </g>
      <path id="Trazado_12615" data-name="Trazado 12615" d="M1075.051-205.938c3.757-3.017,5.938-7.019,6.216-9.274-6.251,1.447-15.817-.09-24.329,8.511.221-.56,4.389-11.23,4.327-11.673,1.78-.679,6.813-4.731,8.643-10.8,1.762-5.642.681-12.762-1.215-16.933a48.668,48.668,0,0,0-6.441,8.473c-5.085,8.578-3.147,17.052-1.9,18.958l.007.01c-.025.336-2.971,8.172-7.739,19.588a53.94,53.94,0,0,0-3.048-13.834c-2.753-7.923-2.186-8.374-3.1-12.3a15.793,15.793,0,0,0-5.5,6.391,15.687,15.687,0,0,0,2.506,16.3c3,3.713,6.672,5.4,8.239,5.587-2.654,6.3-5.8,13.545-9.284,21.144a47.314,47.314,0,0,0-3.091-7.061c-2.6-4.858-5.487-7.658-13.876-15.191-2.013,5.43-.344,15.639,7.385,20.94,3.688,2.529,7.354,3.016,8.931,2.729-3.029,6.573-6.3,13.38-9.692,20.047-.454-2.856-3.575-9.656-11.535-12.638a23.2,23.2,0,0,0-11.251-1.115l1.239,6.275c1.159.682,2.376,1.409,3.589,2.157,6.035,3.711,14.745,6.725,17.244,6.717-2.821,5.489-5.726,10.865-8.657,15.915l1.405-.277q.687-1.2,1.4-2.478a52.962,52.962,0,0,0,5.41,1.132l22.73-4.488c-9.13-6.2-20.292-5.263-25.96-.611,2.988-5.521,6.241-11.871,9.559-18.661a11.491,11.491,0,0,0,3.191,4.584,16.292,16.292,0,0,0,4.019,2.613,17.708,17.708,0,0,0,12.617.741c7.275-2.147,12.349-8.4,12.785-11.886-4.879,2.115-25.54,2.933-27.393,2.878-1.976-.026-3.675-.244-4.6-.188,3.263-6.714,6.578-13.825,9.755-20.966,2.27,3.207,11.071,7.144,20.006,1.415,5.592-3.582,7.276-8.068,11.261-9.787-4.739-3.874-17.574,1.427-23.178,3.922-4,1.792-6.341,2.547-7.483,3.084,2.7-6.119,5.3-12.241,7.668-18.135C1057.874-202.6,1066.7-199.274,1075.051-205.938Z" fill="#fff"/>
      <g id="Grupo_13320" data-name="Grupo 13320">
        <path id="Trazado_12616" data-name="Trazado 12616" d="M960.651-120.861c-48.76-19.287-.357-111.219,43.06-135.791C1040.162-192.854,1026.54-94.8,960.651-120.861Z" fill="#f87314"/>
        <g id="Grupo_13313" data-name="Grupo 13313">
          <path id="Trazado_12617" data-name="Trazado 12617" d="M967.6-113.93a.846.846,0,0,0,.256.113.827.827,0,0,0,1-.6l35.4-141.023a.826.826,0,0,0-.6-1,.827.827,0,0,0-1,.6l-35.4,141.023A.827.827,0,0,0,967.6-113.93Z" fill="#f4f4ef"/>
        </g>
        <g id="Grupo_13314" data-name="Grupo 13314">
          <path id="Trazado_12618" data-name="Trazado 12618" d="M996.629-229.57a.827.827,0,0,0,.906.005l14.8-9.551a.826.826,0,0,0,.246-1.143.827.827,0,0,0-1.142-.246l-14.8,9.551a.827.827,0,0,0-.246,1.143A.837.837,0,0,0,996.629-229.57Z" fill="#f4f4ef"/>
        </g>
        <g id="Grupo_13315" data-name="Grupo 13315">
          <path id="Trazado_12619" data-name="Trazado 12619" d="M992.922-214.8a.829.829,0,0,0,.862.033.828.828,0,0,0,.317-1.126l-12.636-22.546a.826.826,0,0,0-1.125-.317.827.827,0,0,0-.317,1.125l12.636,22.546A.812.812,0,0,0,992.922-214.8Z" fill="#f4f4ef"/>
        </g>
        <g id="Grupo_13316" data-name="Grupo 13316">
          <path id="Trazado_12620" data-name="Trazado 12620" d="M988.329-196.206a.829.829,0,0,0,.729.092L1021.35-207.3a.827.827,0,0,0,.511-1.052.827.827,0,0,0-1.052-.51l-32.293,11.183a.826.826,0,0,0-.51,1.051A.826.826,0,0,0,988.329-196.206Z" fill="#f4f4ef"/>
        </g>
        <g id="Grupo_13317" data-name="Grupo 13317">
          <path id="Trazado_12621" data-name="Trazado 12621" d="M982.443-173.05a.827.827,0,0,0,.965-.037.827.827,0,0,0,.144-1.16L958.691-206.16a.826.826,0,0,0-1.16-.144.827.827,0,0,0-.144,1.16l24.861,31.913A.815.815,0,0,0,982.443-173.05Z" fill="#f4f4ef"/>
        </g>
        <g id="Grupo_13318" data-name="Grupo 13318">
          <path id="Trazado_12622" data-name="Trazado 12622" d="M977.475-153.258a.825.825,0,0,0,.518.135l42.012-3.1a.828.828,0,0,0,.764-.885.827.827,0,0,0-.886-.764l-42.012,3.1a.828.828,0,0,0-.764.886A.828.828,0,0,0,977.475-153.258Z" fill="#f4f4ef"/>
        </g>
        <g id="Grupo_13319" data-name="Grupo 13319">
          <path id="Trazado_12623" data-name="Trazado 12623" d="M972.139-132a.827.827,0,0,0,1.06-.124.828.828,0,0,0-.038-1.169l-31.733-29.725a.83.83,0,0,0-1.169.038.828.828,0,0,0,.038,1.169l31.733,29.725A.875.875,0,0,0,972.139-132Z" fill="#95c2dc"/>
        </g>
      </g>
      <g id="Grupo_13331" data-name="Grupo 13331">
        <g id="Grupo_13321" data-name="Grupo 13321">
          <path id="Trazado_12624" data-name="Trazado 12624" d="M985.38-110.432c12.019-14.128,48.071-48.287,83.64-74.834a.624.624,0,0,0-.737-1.006c-29.236,21.426-69.646,58.325-83.852,75.033A.623.623,0,0,0,985.38-110.432Z" fill="#ffb833"/>
        </g>
        <g id="Grupo_13323" data-name="Grupo 13323">
          <path id="Trazado_12625" data-name="Trazado 12625" d="M1068.652-185.769c9.27-6.793,17.879-12.719,28.348-18.13Z" fill="#ffb833"/>
          <g id="Grupo_13322" data-name="Grupo 13322">
            <path id="Trazado_12626" data-name="Trazado 12626" d="M1077.726-199.617c-7,4.616-9.711,12.983-9.074,13.848.808,1.1,12.3,1.342,21.05-8.132a56.555,56.555,0,0,0,7.3-10C1091.721-204.624,1083.427-203.458,1077.726-199.617Z" fill="#ffb833"/>
          </g>
        </g>
        <g id="Grupo_13324" data-name="Grupo 13324">
          <path id="Trazado_12627" data-name="Trazado 12627" d="M1055.1-175.383c.957-.106,2.552-3.532,2.945-4.443,5.158-11.712.8-20.458.341-27.8-2.42,1.06-6.154,4.823-8.265,10.014C1044.9-184.683,1053.919-175.259,1055.1-175.383Z" fill="#ffb833"/>
        </g>
        <g id="Grupo_13325" data-name="Grupo 13325">
          <path id="Trazado_12628" data-name="Trazado 12628" d="M1035.674-159.906c1.615.478.9-1.615,2.077-10.556.916-7.075,2.552-23.143-3.342-27.134-.59,5.012-5.028,8.382-7.16,15.806C1023.788-169.753,1031.373-161.18,1035.674-159.906Z" fill="#ffb833"/>
        </g>
        <g id="Grupo_13326" data-name="Grupo 13326">
          <path id="Trazado_12629" data-name="Trazado 12629" d="M1003.75-146.655a18.932,18.932,0,0,0,4.249,3.609c4.1,2.377,7.106,2.2,7.374,1.773.373-.584-.8-2.9-1.748-5.914-.8-2.4-6.266-24.283-6-30.651a7.545,7.545,0,0,1,.087-.834c-3.744,1.647-9.02,9.382-8.99,18.2A20.587,20.587,0,0,0,1003.75-146.655Z" fill="#ffb833"/>
        </g>
        <g id="Grupo_13327" data-name="Grupo 13327">
          <path id="Trazado_12630" data-name="Trazado 12630" d="M993.292-119.96c.328.055.908-.382,1.614-1.31,5.9-7.709,3.345-24.578-10.236-33.486a26.61,26.61,0,0,0-7.154-3.474c1.614,4.878,4.983,15.3,6,17.97C985.287-135.229,992.366-120.115,993.292-119.96Z" fill="#ffb833"/>
        </g>
        <g id="Grupo_13328" data-name="Grupo 13328">
          <path id="Trazado_12631" data-name="Trazado 12631" d="M1047.695-169.4c-.323.921,2.909,5.561,9.119,8.106,7.179,2.932,14.455,1.379,19-2.634a18.362,18.362,0,0,0,5.292-8.254c-4.678.287-4.992,1.069-14.738.638C1057.244-172.061,1048.031-170.362,1047.695-169.4Z" fill="#ffb833"/>
        </g>
        <g id="Grupo_13329" data-name="Grupo 13329">
          <path id="Trazado_12632" data-name="Trazado 12632" d="M1036.271-150.136c-3.141-.644-9.574-1.52-10.13-.861-.671.793.818,5.916,5.884,10.008,8.48,6.849,20.411,5.311,25.792,1.26C1046.631-146.57,1042.55-148.852,1036.271-150.136Z" fill="#ffb833"/>
        </g>
        <g id="Grupo_13330" data-name="Grupo 13330">
          <path id="Trazado_12633" data-name="Trazado 12633" d="M1005.526-132.045c-.643,1.372,6.389,11.57,13.276,17.724,5.218,4.657,10.066,9.482,10.827,10.2a25.637,25.637,0,0,0-4.81-19.793C1017.457-133.627,1006.074-133.209,1005.526-132.045Z" fill="#ffb833"/>
        </g>
      </g>
      <g id="Grupo_13336" data-name="Grupo 13336">
        <g id="Grupo_13333" data-name="Grupo 13333">
          <path id="Trazado_12634" data-name="Trazado 12634" d="M728.685-109.513h0v-154.3h0A11.387,11.387,0,0,0,717.3-252.426V-120.9A11.387,11.387,0,0,0,728.685-109.513Z" fill="#777"/>
          <path id="Trazado_12635" data-name="Trazado 12635" d="M977.3-109.629H725.725a4.537,4.537,0,0,1-4.625-4.444V-260.858a3.017,3.017,0,0,1,3.076-2.955H977.3a3.017,3.017,0,0,1,3.076,2.955v148.274A3.017,3.017,0,0,1,977.3-109.629Z" fill="#424242"/>
          <rect id="Rectángulo_3388" data-name="Rectángulo 3388" width="248.675" height="143.68" rx="10.66" transform="translate(726.376 -258.678)" fill="#f9f6f2"/>
          <g id="Grupo_13332" data-name="Grupo 13332">
            <path id="Trazado_12636" data-name="Trazado 12636" d="M971.436-114.177H729.991a.822.822,0,0,1-.822-.822.822.822,0,0,1,.822-.821H971.436a2.8,2.8,0,0,0,2.794-2.793V-255.064a.82.82,0,0,1,.821-.821.821.821,0,0,1,.822.821v136.451A4.441,4.441,0,0,1,971.436-114.177Z" fill="#777"/>
          </g>
        </g>
        <g id="Grupo_13335" data-name="Grupo 13335">
          <path id="Trazado_12637" data-name="Trazado 12637" d="M1061.649-101.632H730.377a5.987,5.987,0,0,1-5.987-5.987v-1.894h342.949a1.1,1.1,0,0,1,1.1,1.1h0A6.786,6.786,0,0,1,1061.649-101.632Z" fill="#424242"/>
          <path id="Trazado_12638" data-name="Trazado 12638" d="M835.73-101.632H730.377a5.987,5.987,0,0,1-5.987-5.987v-1.894H841.419a1.1,1.1,0,0,1,1.1,1.1h0A6.785,6.785,0,0,1,835.73-101.632Z" fill="#777"/>
          <g id="Grupo_13334" data-name="Grupo 13334">
            <path id="Trazado_12639" data-name="Trazado 12639" d="M801.625-104.11h-61.55a1.089,1.089,0,0,1-1.088-1.088h0a1.088,1.088,0,0,1,1.088-1.088h61.55a1.088,1.088,0,0,1,1.088,1.088h0A1.088,1.088,0,0,1,801.625-104.11Z" fill="#424242"/>
            <path id="Trazado_12640" data-name="Trazado 12640" d="M810.213-104.11h10.979a1.088,1.088,0,0,0,1.087-1.088h0a1.088,1.088,0,0,0-1.087-1.088H810.213a1.088,1.088,0,0,0-1.088,1.088h0A1.088,1.088,0,0,0,810.213-104.11Z" fill="#4e9ab6"/>
          </g>
        </g>
      </g>
      <g id="Grupo_13339" data-name="Grupo 13339">
        <g id="Grupo_13338" data-name="Grupo 13338">
          <g id="Grupo_13337" data-name="Grupo 13337">
            <path id="Trazado_12641" data-name="Trazado 12641" d="M656.269-99.705v16.359a.677.677,0,0,1-1.353,0V-99.705A.677.677,0,0,1,656.269-99.705Z" fill="#777"/>
          </g>
        </g>
      </g>
      <g id="Grupo_13341" data-name="Grupo 13341">
        <g id="Grupo_13340" data-name="Grupo 13340">
          <path id="Trazado_12642" data-name="Trazado 12642" d="M657.9-95.427h-4.609v-8.338l4.609.585Z" fill="#777"/>
        </g>
      </g>
      <g id="Grupo_13343" data-name="Grupo 13343">
        <g id="Grupo_13342" data-name="Grupo 13342">
          <path id="Trazado_12643" data-name="Trazado 12643" d="M635.115-144.068a2.414,2.414,0,0,1,2.962.389c1.934,1.962.615,10.6.913,12.549.929,6.056,1.972,12.83,5.757,17.856,5.029,6.676,12.853,5.621,19.936,3.228,1.347-.456,11.334-4.438,12.167-2.438,1.127,2.705-11.416,13.675-29.473,8.115a22.609,22.609,0,0,1-15.571-15.616C630.312-125.076,628.478-141.1,635.115-144.068Z" fill="#424242"/>
        </g>
      </g>
      <g id="Grupo_13346" data-name="Grupo 13346">
        <g id="Grupo_13345" data-name="Grupo 13345">
          <g id="Grupo_13344" data-name="Grupo 13344">
            <path id="Trazado_12644" data-name="Trazado 12644" d="M645.742-84.022h18.54a.676.676,0,0,1,0,1.352h-18.54A.676.676,0,0,1,645.742-84.022Z" fill="#777"/>
          </g>
        </g>
      </g>
      <g id="Grupo_13348" data-name="Grupo 13348">
        <g id="Grupo_13347" data-name="Grupo 13347">
          <path id="Trazado_12645" data-name="Trazado 12645" d="M646.156-84.3a2.678,2.678,0,0,1,2.678,2.677,2.678,2.678,0,0,1-2.678,2.678,2.678,2.678,0,0,1-2.677-2.678A2.678,2.678,0,0,1,646.156-84.3Z" fill="#777"/>
        </g>
      </g>
      <g id="Grupo_13350" data-name="Grupo 13350">
        <g id="Grupo_13349" data-name="Grupo 13349">
          <path id="Trazado_12646" data-name="Trazado 12646" d="M665.434-84.3a2.678,2.678,0,0,1,2.677,2.677,2.678,2.678,0,0,1-2.677,2.678,2.678,2.678,0,0,1-2.678-2.678A2.678,2.678,0,0,1,665.434-84.3Z" fill="#777"/>
        </g>
      </g>
      <g id="Grupo_13362" data-name="Grupo 13362">
        <g id="Grupo_13351" data-name="Grupo 13351">
          <path id="Trazado_12647" data-name="Trazado 12647" d="M700.52-129.316c3.005,7.514,8.555,22.969,14.266,32.287l-2.075,1.6s-11.29-13.112-16.474-23.482-1.014-15.854-1.014-15.854S697.514-136.83,700.52-129.316Z" fill="#d4936f"/>
        </g>
        <g id="Grupo_13352" data-name="Grupo 13352">
          <path id="Trazado_12648" data-name="Trazado 12648" d="M655.638-140.211c2.232,2.479,3.884,8.566,3.884,8.566a75.341,75.341,0,0,1,16.37-4.34c-2.029,5.861,3.663,19.443,3.663,19.443s-3.08,3.782-13.9,7.063c-11.893,3.607-20.208,1.578-23.589-10.82s2.781-19.912,2.781-19.912S653.406-142.691,655.638-140.211Z" fill="#232b59"/>
        </g>
        <g id="Grupo_13353" data-name="Grupo 13353">
          <path id="Trazado_12649" data-name="Trazado 12649" d="M655.41-167.375l4.026,1.747c10.764,12,.507,20.683-1.378,21.584s-2.42,3.833-2.42,3.833c-4.981,3.156-10.792,0-10.792,0a35.831,35.831,0,0,1,2.531-16.844C650.991-165.4,655.41-167.375,655.41-167.375Z" fill="#1aa6ab"/>
        </g>
        <g id="Grupo_13354" data-name="Grupo 13354">
          <path id="Trazado_12650" data-name="Trazado 12650" d="M664.52-181.881c5.016,1.95,1.394,11.982-3.065,11.982s-5.852-4.18-5.016-8.081C656.439-177.98,659.505-183.832,664.52-181.881Z" fill="#f5b48d"/>
        </g>
        <g id="Grupo_13355" data-name="Grupo 13355">
          <path id="Trazado_12651" data-name="Trazado 12651" d="M657.538-172.55l3.628,2.32-1.849,4.737-4.1-1.43,2.092-4.8Z" fill="#f5b48d"/>
        </g>
        <g id="Grupo_13356" data-name="Grupo 13356">
          <path id="Trazado_12652" data-name="Trazado 12652" d="M630.245-176.029c3.066-1.951,5.016.278,8.081-2.23s5.852-6.966,10.311-5.294c0,0,1.672,2.229,3.9,0s7.245-3.9,12.261-2.508,2.347,9.912,2.149,9.972.08-.777-1.592-2.449-3.9,4.459-6.409,2.509-2.735.387-2.735.387.529,3.166,1.214,3.9l-.676,1.3a14.207,14.207,0,0,0-7,1.664c-3.9,1.95-2.786,3.065-5.015,4.179s-1.951-.835-6.131,0-8.36,3.9-10.589-.835S627.18-174.079,630.245-176.029Z" fill="#232b59"/>
        </g>
        <g id="Grupo_13357" data-name="Grupo 13357">
          <path id="Trazado_12653" data-name="Trazado 12653" d="M660.192-164.027c8.855,2.48,15.861,10.136,19.787,9.775s18.747.667,27.451,3.924l-.414,3.081s-26.022-1.022-28.556-.01c-1.409.561-3.731-.44-5.069-.8-3-.818-5.952-1.851-8.867-2.957-3.143-1.192-12.483-2.628-13.166-7.252a5.583,5.583,0,0,1,1.23-3.949C654.405-164.857,657.567-164.762,660.192-164.027Z" fill="#1aa6ab"/>
        </g>
        <g id="Grupo_13358" data-name="Grupo 13358">
          <path id="Trazado_12654" data-name="Trazado 12654" d="M713.772-150.627c1.772,1.5,3.439,3.782,2.594,3.891s.026.573-.63.822-3.335-2.856-3.792-2.237-4.928.9-4.928.9a2.931,2.931,0,0,1,.414-3.081S712-152.126,713.772-150.627Z" fill="#f5b48d"/>
        </g>
        <g id="Grupo_13359" data-name="Grupo 13359">
          <path id="Trazado_12655" data-name="Trazado 12655" d="M694.208-137.431c1.8,3.005,9.157,37.4,15.469,45.812l-2.17,1.7s-16.906-19.3-18.371-32.672c0,0-7.666,3.8-9.581,6.049,0,0-7.2-11.854-3.663-19.443C675.892-135.985,692.4-140.437,694.208-137.431Z" fill="#f5b48d"/>
        </g>
        <g id="Grupo_13360" data-name="Grupo 13360">
          <path id="Trazado_12656" data-name="Trazado 12656" d="M709.677-91.619s3.531,3.789,5.154,3.557,2.784.541,2.706,1.044-2.01,1.121-3.943,1.585-2.706-1.237-3.4-1.585.31,3.131.31,3.131l-.825.541s-.412-1-1.34-3.17a8.921,8.921,0,0,1-.867-3.527Z" fill="#232b59"/>
        </g>
        <g id="Grupo_13361" data-name="Grupo 13361">
          <path id="Trazado_12657" data-name="Trazado 12657" d="M714.786-97.029s3.531,3.788,5.154,3.556,2.784.541,2.706,1.044-2.01,1.121-3.943,1.585-2.706-1.237-3.4-1.585.31,3.131.31,3.131l-.825.542s-.413-1.006-1.34-3.17a7.187,7.187,0,0,1-.735-3.5Z" fill="#232b59"/>
        </g>
      </g>
      <g id="Grupo_13363" data-name="Grupo 13363">
        <path id="Trazado_12658" data-name="Trazado 12658" d="M772.254-83.336h-1.105v-60.779H688.042V-81.36h-1.105v-64.032h85.317Z" fill="#66a6cd"/>
      </g>
      <g id="Grupo_13365" data-name="Grupo 13365">
        <g id="Grupo_13364" data-name="Grupo 13364">
          <path id="Trazado_12659" data-name="Trazado 12659" d="M729.35-147.057c.365.254-.294.44-.294.2a.8.8,0,0,1,.075-.294A.793.793,0,0,1,729.35-147.057Z" fill="#2d6c9c"/>
          <path id="Trazado_12660" data-name="Trazado 12660" d="M699.28-147.057h26.095c.7,0,2.886-.37,3.756-.1a.8.8,0,0,0-.075.294c0,.243.659.057.294-.2a.793.793,0,0,0-.219-.1c.145-.344.461-.766.58-1q5.412-10.7,10.825-21.4c.459-.908,1.82-.107,1.363.8q-5.79,11.446-11.578,22.893a.785.785,0,0,1-.682.391H699.28A.79.79,0,0,1,699.28-147.057Z" fill="#2d6c9c"/>
        </g>
      </g>
      <g id="Grupo_13367" data-name="Grupo 13367">
        <g id="Grupo_13366" data-name="Grupo 13366">
          <rect id="Rectángulo_3389" data-name="Rectángulo 3389" width="178.838" height="95.203" transform="translate(766.775 -229.777) rotate(0.145)" fill="#f4e9d4"/>
          <rect id="Rectángulo_3390" data-name="Rectángulo 3390" width="178.837" height="14.009" transform="translate(766.794 -237.244) rotate(0.145)" fill="#8e816b"/>
        </g>
        <path id="Trazado_12661" data-name="Trazado 12661" d="M893.558-179.553c-.054,21.251-16.909,38.436-37.648,38.384s-37.506-17.322-37.453-38.573,16.909-38.436,37.648-38.383S893.612-200.8,893.558-179.553Z" fill="#f4f4ef"/>
        <path id="Trazado_12662" data-name="Trazado 12662" d="M868.023-181.049l-20.969-12.477-.063,24.848Z" fill="#777"/>
        <path id="Trazado_12663" data-name="Trazado 12663" d="M783.719-229.26a4.562,4.562,0,0,1-4.518,4.606,4.563,4.563,0,0,1-4.494-4.629,4.562,4.562,0,0,1,4.517-4.6A4.563,4.563,0,0,1,783.719-229.26Z" fill="#f4f4ef"/>
        <path id="Trazado_12664" data-name="Trazado 12664" d="M797.389-229.26a4.562,4.562,0,0,1-4.518,4.606,4.563,4.563,0,0,1-4.494-4.629,4.562,4.562,0,0,1,4.517-4.6A4.562,4.562,0,0,1,797.389-229.26Z" fill="#f4f4ef"/>
      </g>
      <g id="_1" data-name="1">
        <path id="Trazado_12665" data-name="Trazado 12665" d="M837.1-178.145c.71.594,2.5,12.147,3.054,17.684.491,4.917.491,10.935.491,10.935L831.2-160.663S831.052-183.206,837.1-178.145Z" fill="#f4f4ef"/>
        <path id="Trazado_12666" data-name="Trazado 12666" d="M828.623-147.7l-1.429-11.9,16.111.955-.157,12.979Z" fill="#2d6c9c"/>
        <g id="Grupo_13368" data-name="Grupo 13368">
          <path id="Trazado_12667" data-name="Trazado 12667" d="M826.865-99.621c-.45-.073-.388,1.021-.224,1.108,1.1.58,3.794.657,5.917.808,2.48.177,4.48.247,5.242-.328.4-.3.445-.992-.442-1.42a61.439,61.439,0,0,0-6.16-.511C831.07-99.93,826.865-99.621,826.865-99.621Z" fill="#072b45"/>
          <path id="Trazado_12668" data-name="Trazado 12668" d="M831.311-107.159c.091,1.636-.367,4.1-.078,4.708.114.239,1.018,2.008.354,2.714a2.492,2.492,0,0,1-4.238-1.326,20.741,20.741,0,0,0,.518-5.707C827.867-107.58,831.262-108.026,831.311-107.159Z" fill="#f5b48d"/>
          <path id="Trazado_12669" data-name="Trazado 12669" d="M826.881-99.286c.178.627,9.182,1.642,10.474.8.686-.445.076-.953-.7-1.28-.9-.379-3.106-2.062-3.946-2.436-.691-.305-1.194-1.664-1.466-1.419a3.985,3.985,0,0,0-.461,2.2c.115.53.035.991-.2,1.062-1.323.4-2.711-1.83-3.068-1.724C827.051-101.943,826.7-99.923,826.881-99.286Z" fill="#0b3c5f"/>
        </g>
        <g id="Grupo_13369" data-name="Grupo 13369">
          <path id="Trazado_12670" data-name="Trazado 12670" d="M822.734-107.948a10.516,10.516,0,0,0-.018,5.874c.123.306,1.223,3.767-1.845,2.815-1.995-.619-1.917-2.136-1.831-2.365.793-2.106-.034-5.4-.034-6.148C819.006-108.6,823.04-108.745,822.734-107.948Z" fill="#f5b48d"/>
          <path id="Trazado_12671" data-name="Trazado 12671" d="M818.24-99.5c-.389-.087-.247,1.274-.141,1.414a12.819,12.819,0,0,0,4.441.551c2.031-.052,3.32-.16,3.484-.537a1.555,1.555,0,0,0-.44-1.325,21.744,21.744,0,0,0-3.813-.4C821.658-99.761,818.24-99.5,818.24-99.5Z" fill="#072b45"/>
          <path id="Trazado_12672" data-name="Trazado 12672" d="M822.172-103.094c.444.016,1.088,1,1.445,2.044.416.439,1.172.6,1.567,1.183.275.408.622,1.125.473,1.319-.518.676-7.113.562-7.35-.047-.307-.792.337-1.516.43-2.3.085-.715,0-1.072.25-1.45.078-.117.274-.046.267.178-.015.494-.091,1.366.622,1.466C820.491-102.51,821.441-103.119,822.172-103.094Z" fill="#0b3c5f"/>
        </g>
        <path id="Trazado_12673" data-name="Trazado 12673" d="M835.92-154.073a126.544,126.544,0,0,0,.022,22.832q-.174,1.072-.351,2.151c-1.82,11.145-3.545,21.169-4.114,23.919-.218,1.05-3.556.562-3.7-.5-.565-4.138-3.112-12.709-2.629-16.537a35.559,35.559,0,0,1,2.369-6.832c1.077-2.588-4.093-17.147-.061-28.563C828.545-160.692,835.92-154.073,835.92-154.073Z" fill="#255981"/>
        <path id="Trazado_12674" data-name="Trazado 12674" d="M828.612-154.283s-4.708,43.1-5.6,48.957c-.162,1.06-3.9.9-4.1-.158-.781-4.1-3.773-12.528-3.49-16.376a35.459,35.459,0,0,1,2.008-6.947c.39-1.095-.4-4.189-1.215-8.265-1.15-5.752-.456-13.072,1.551-19.869C818.692-160.082,828.612-154.283,828.612-154.283Z" fill="#275c85"/>
        <path id="Trazado_12675" data-name="Trazado 12675" d="M836.406-131.433l-21.652-.746s2.129-39.337-2.013-46.73c-1.014-1.813,2.54-4.005,6.353-5.447,2.726-1.033,5.584-1.681,7-1.534a14.364,14.364,0,0,1,4.626,1.416c2.833,1.375,5.508,3.627,6.377,6.329C838.453-173.926,836.406-131.433,836.406-131.433Z" fill="#f4f4ef"/>
        <path id="Trazado_12676" data-name="Trazado 12676" d="M828.351-191.286s1.041,6.889.992,7.085c-.092.373-1.946-1.229-2.578-.864-.92.531-4.839,1.684-5.181.864-.075-.18.9-7.9.9-7.9Z" fill="#f19e86"/>
        <g id="Grupo_13370" data-name="Grupo 13370">
          <path id="Trazado_12677" data-name="Trazado 12677" d="M829.426-193.1c1.651-1.51.59-2.51,2.046-3.483a2.015,2.015,0,0,0-1.353-.042c.375-.566.5-1.355,1.057-1.652a2.322,2.322,0,0,0-1.516.32c.016-.535,1.041-1.1.857-1.785a2.549,2.549,0,0,1-1.545.653,2.173,2.173,0,0,1,1.107-1.592,2.4,2.4,0,0,0-1.959.49,1.557,1.557,0,0,1,.449-1.439,1.67,1.67,0,0,0-1.781.9c-.329-.216-.479-1.133-.495-1.753a3.8,3.8,0,0,0-.9,1.619,7.73,7.73,0,0,0-.421-1.925c-.444,1.133-1.483.858-1.561,2.265-.129-.634-1.316-1.027-1.725-1.245a2.839,2.839,0,0,1,.256,1.995c-.1.106-.865-.336-.864-1.266a2.829,2.829,0,0,0-.422,3.271,2.184,2.184,0,0,1-1.087-1.27,5.194,5.194,0,0,0,.121,3.541,1.24,1.24,0,0,1-.607-.373,6.67,6.67,0,0,0,2.134,3.714c.355.4,1.118.073,1.61.187a34.46,34.46,0,0,0,3.469.6Z" fill="#232b59"/>
          <path id="Trazado_12678" data-name="Trazado 12678" d="M829.792-195.92c.417.644.387,2.8.364,3.533-.026.839-.787,4.4-1.728,4.922a6.874,6.874,0,0,1-3.757.315c-1.4-.664-2.675-3.084-2.853-4.547-.785.042-1.645-3.921-.48-3.31.349.183.512,1.148.526,1.493s.344.769.38.661c.3-.9.455-2.826.728-2.99a1,1,0,0,1,1.369.748.888.888,0,0,0,.025-1.194,2.286,2.286,0,0,1,2.765,1.283,2.04,2.04,0,0,0-.276-1.779,2.035,2.035,0,0,1,1.614,1.447,2.1,2.1,0,0,0-.26-1.746A5.482,5.482,0,0,1,829.792-195.92Z" fill="#f5b48d"/>
        </g>
        <path id="Trazado_12679" data-name="Trazado 12679" d="M812.795-180.366c-3.313,5.3-6.256,19.336-5.587,21.957.562,2.2,7.385,4.862,15.7,4.246,1.185-.087.356-6.378.356-6.378s-7.283-.575-7.266-2.471.612-3.282.612-5.446S812.795-180.366,812.795-180.366Z" fill="#f4f4ef"/>
        <path id="Trazado_12680" data-name="Trazado 12680" d="M841.333-145.318c-.563.2-.9-.552-1.071-.5-.217.063-.274.592-.525.637a5.81,5.81,0,0,1-2.048-.442c-.216-.252-.285-1.523.064-1.671a6.784,6.784,0,0,1,1.886-.325c.192.061.254,1.076.438,1.082.414.014-.036-1.009.684-.933C841.518-147.392,841.765-145.468,841.333-145.318Z" fill="#f19e86"/>
        <path id="Trazado_12681" data-name="Trazado 12681" d="M828.12-160.461c-.141-.37-.7-.284-1.121-.146a.657.657,0,0,0,.3-.785c-.041-.144-.682.11-1.259.17-.478.05-.973-.182-1.491.111a6.251,6.251,0,0,0-1.642,1.659l.323,2.277a4.056,4.056,0,0,0,4.468.286C828.34-157.378,828.338-159.886,828.12-160.461Z" fill="#f5b48d"/>
        <g id="Grupo_13371" data-name="Grupo 13371">
          <path id="Trazado_12682" data-name="Trazado 12682" d="M824.831-160.09a.062.062,0,0,1-.053-.03.06.06,0,0,1,.023-.082,3.912,3.912,0,0,1,.909-.177,5.668,5.668,0,0,0,1.12-.217.06.06,0,0,1,.08.03.061.061,0,0,1-.03.08,5.58,5.58,0,0,1-1.154.226,4.279,4.279,0,0,0-.866.163A.059.059,0,0,1,824.831-160.09Z" fill="#d4936f"/>
        </g>
        <g id="Grupo_13372" data-name="Grupo 13372">
          <path id="Trazado_12683" data-name="Trazado 12683" d="M823.263-160.4a.14.14,0,0,1-.135-.1c-.137-.385-3.43-.971-5.013-1.253-1.884-.336-2.156-.4-2.236-.519-.114-.17-.049-.846.249-3.255.125-1.005.254-2.045.339-2.949a.141.141,0,0,1,.155-.128.141.141,0,0,1,.128.155c-.085.908-.214,1.95-.339,2.957a26.646,26.646,0,0,0-.295,3.047c.2.082,1.14.249,2.049.411,3.423.61,5.079.981,5.233,1.444a.142.142,0,0,1-.09.18A.14.14,0,0,1,823.263-160.4Zm-7.141-2.015h0Z" fill="#95c2dc"/>
        </g>
        <g id="Grupo_13373" data-name="Grupo 13373">
          <path id="Trazado_12684" data-name="Trazado 12684" d="M821.613-153.911c-1.979,0-5.376-.3-5.944-.381a.143.143,0,0,1-.122-.161.142.142,0,0,1,.161-.121c1.046.146,6.577.562,7.135.284.471-.235.825-1.585.922-2.085a.141.141,0,0,1,.167-.113.142.142,0,0,1,.113.167c-.038.2-.394,1.947-1.075,2.286A4.314,4.314,0,0,1,821.613-153.911Z" fill="#95c2dc"/>
        </g>
        <g id="Grupo_13374" data-name="Grupo 13374">
          <path id="Trazado_12685" data-name="Trazado 12685" d="M837.561-159.454h-.011a.142.142,0,0,1-.131-.153c.007-.084.667-8.384.252-12.418a.142.142,0,0,1,.127-.156.141.141,0,0,1,.157.127c.418,4.06-.245,12.386-.252,12.47A.143.143,0,0,1,837.561-159.454Z" fill="#95c2dc"/>
        </g>
        <path id="Trazado_12686" data-name="Trazado 12686" d="M829.786-174.22c-1.787.754-2.526,1.072-4.323,0-1.608-.961-6.025-7.234-6.369-10.136a29.166,29.166,0,0,1,4.21-1.257,7.649,7.649,0,0,1,2.889.387c.837.087,1.662-.364,2.611-.04a16.726,16.726,0,0,1,1.916.792A18.193,18.193,0,0,1,829.786-174.22Z" fill="#b1d3e6"/>
        <path id="Trazado_12687" data-name="Trazado 12687" d="M825.278-183.9s1.116,2.368,1.4,2.89-1.22,6-1.212,6.791a27.162,27.162,0,0,0,2.978,2.32,20.532,20.532,0,0,0,1.345-2.32c.136-1.812-2.3-6.589-2.134-7.372a28.077,28.077,0,0,1,.889-2.67l-1.355-.964h-.843Z" fill="#2d6c9c"/>
        <path id="Trazado_12688" data-name="Trazado 12688" d="M821.658-187.253c-.522,0-1.45,2.372-1.365,2.71.126.5,3.311,2.448,4.154,2.448.241,0,1.947-2.83,2.388-2.87s1.688,2.522,2.147,2.368a3.792,3.792,0,0,0,.946-2.24c-.061-.6-.536-1.972-.765-2.014s-1.605,1.4-2.328,1.505C825.981-185.227,821.98-187.253,821.658-187.253Z" fill="#9ac9e4"/>
        <g id="Grupo_13375" data-name="Grupo 13375">
          <path id="Trazado_12689" data-name="Trazado 12689" d="M828.252-132.463a.135.135,0,0,1-.048-.008.143.143,0,0,1-.087-.182c.465-1.323.679-8.514.6-20.247-.061-9.3-.288-18.077-.374-18.449-.238-.39-4.955-2.135-6.731-2.791-.9-.334-1.3-.483-1.384-.527a.2.2,0,0,1-.1-.14c-.033-.179.161-.418.567-.9.29-.343.9-1.056.772-1.222s-1.273-.045-1.953.036c-1.159.137-1.576.166-1.694-.054a4.837,4.837,0,0,1-.22-.825,14.528,14.528,0,0,0-1.718-4.725.143.143,0,0,1,.033-.2.143.143,0,0,1,.2.034,14.75,14.75,0,0,1,1.764,4.827,6.508,6.508,0,0,0,.193.753,6.735,6.735,0,0,0,1.409-.094c1.234-.147,2-.215,2.215.077.259.347-.271.972-.782,1.576a4.982,4.982,0,0,0-.487.629c.178.073.7.265,1.287.483,4.981,1.842,6.788,2.621,6.9,2.975.1.308.325,9.348.387,18.43.056,8.366-.005,18.7-.617,20.445A.143.143,0,0,1,828.252-132.463Z" fill="#95c2dc"/>
        </g>
        <g id="Grupo_13376" data-name="Grupo 13376">
          <path id="Trazado_12690" data-name="Trazado 12690" d="M828.876-171.757a.144.144,0,0,1-.13-.085.142.142,0,0,1,.072-.188c1.82-.816,3.8-3.994,3.817-4.358a6.739,6.739,0,0,0-.811-.823c-.606-.566-.76-.726-.768-.862a.188.188,0,0,1,.055-.132c.111-.1.371-.068,1.351.1a7.6,7.6,0,0,0,1.466.173,11.281,11.281,0,0,0-.485-4.114.143.143,0,0,1,.09-.181.143.143,0,0,1,.18.09c.444,1.325.75,4.151.395,4.432-.15.119-.535.077-1.694-.119-.324-.055-.737-.124-.973-.145.137.141.383.371.578.552.572.534.847.8.894.976.126.459-2.182,3.869-3.979,4.674A.133.133,0,0,1,828.876-171.757Z" fill="#95c2dc"/>
        </g>
      </g>
      <g id="Grupo_13381" data-name="Grupo 13381">
        <g id="Grupo_13378" data-name="Grupo 13378">
          <g id="Grupo_13377" data-name="Grupo 13377">
            <rect id="Rectángulo_3391" data-name="Rectángulo 3391" width="0.893" height="13.507" transform="translate(831.476 -177.792) rotate(-11.376)" fill="#212b54"/>
          </g>
          <path id="Trazado_12691" data-name="Trazado 12691" d="M831.914-178.181c-1.534.378-1.043,6.7,1.18,6.513C835.389-171.856,834.124-178.727,831.914-178.181Z" fill="#235980"/>
        </g>
        <g id="Grupo_13380" data-name="Grupo 13380">
          <g id="Grupo_13379" data-name="Grupo 13379">
            <rect id="Rectángulo_3392" data-name="Rectángulo 3392" width="0.893" height="13.507" transform="translate(824.495 -177.792) rotate(-11.376)" fill="#212b54"/>
          </g>
          <path id="Trazado_12692" data-name="Trazado 12692" d="M824.933-178.181c-1.534.378-1.043,6.7,1.18,6.513C828.408-171.856,827.143-178.727,824.933-178.181Z" fill="#235980"/>
        </g>
        <rect id="Rectángulo_3393" data-name="Rectángulo 3393" width="37.702" height="82.677" transform="translate(805.742 -165.66)" fill="#f5a06d"/>
        <path id="Trazado_12693" data-name="Trazado 12693" d="M811.462-134.066l-.441,44.76,26.567-.468-.465-.845-23.87-.919-.952-41.669Z" fill="#f3bd9b"/>
        <path id="Trazado_12694" data-name="Trazado 12694" d="M811.462-134.066l26.433-.41-.307,44.7-.465-.845-.958-42.3-23.864-.287Z" fill="#d28266"/>
        <rect id="Rectángulo_3394" data-name="Rectángulo 3394" width="37.702" height="1.021" transform="translate(805.742 -165.66)" fill="#f3bd9b"/>
        <path id="Trazado_12695" data-name="Trazado 12695" d="M805.742-147.069h37.7v2.475l-37.7-1.231Z" fill="#d28266"/>
        <path id="Trazado_12696" data-name="Trazado 12696" d="M843.444-159.619l-37.7-1.19v-1.28h37.7Z" fill="#d28266"/>
      </g>
      <g id="Grupo_13399" data-name="Grupo 13399">
        <path id="Trazado_12697" data-name="Trazado 12697" d="M832.067-308.7h-64.8a5.564,5.564,0,0,0-5.564,5.564v19.6s-6.731,16.448-5.436,14.83c.828-1.035,9.335-5.513,15.36-8.606h60.441a5.564,5.564,0,0,0,5.564-5.565v-20.261A5.564,5.564,0,0,0,832.067-308.7Z" fill="#f87314"/>
        <g id="Grupo_13382" data-name="Grupo 13382">
          <rect id="Rectángulo_3395" data-name="Rectángulo 3395" width="7.05" height="4.055" transform="translate(830.501 -299.341) rotate(180)" fill="#fff"/>
          <rect id="Rectángulo_3396" data-name="Rectángulo 3396" width="50.531" height="4.055" transform="translate(818.786 -299.341) rotate(180)" fill="#fff"/>
        </g>
        <g id="Grupo_13383" data-name="Grupo 13383">
          <rect id="Rectángulo_3397" data-name="Rectángulo 3397" width="28.791" height="4.055" transform="translate(830.501 -290.795) rotate(180)" fill="#fff"/>
          <rect id="Rectángulo_3398" data-name="Rectángulo 3398" width="28.791" height="4.055" transform="translate(797.046 -290.795) rotate(180)" fill="#fff"/>
        </g>
        <g id="Grupo_13384" data-name="Grupo 13384">
          <rect id="Rectángulo_3399" data-name="Rectángulo 3399" width="20.094" height="4.055" transform="translate(830.501 -282.249) rotate(180)" fill="#fff"/>
          <rect id="Rectángulo_3400" data-name="Rectángulo 3400" width="37.487" height="4.055" transform="translate(805.742 -282.249) rotate(180)" fill="#fff"/>
        </g>
        <g id="Grupo_13398" data-name="Grupo 13398">
          <g id="Grupo_13397" data-name="Grupo 13397" clip-path="url(#clip-path)">
            <g id="_4" data-name="4">
              <g id="Grupo_13385" data-name="Grupo 13385">
                <path id="Trazado_12698" data-name="Trazado 12698" d="M804.072-274.553a.343.343,0,0,1-.28-.144c-5.864-8.213-8.166-15.9-6.158-20.552a7.176,7.176,0,0,1,6.027-4.2.344.344,0,0,1,.387.293.344.344,0,0,1-.293.387c-2.719.373-4.566,1.65-5.491,3.794-1.912,4.433.364,11.865,6.087,19.882a.343.343,0,0,1-.08.478A.344.344,0,0,1,804.072-274.553Z" fill="#232b59"/>
              </g>
              <g id="Grupo_13386" data-name="Grupo 13386">
                <path id="Trazado_12699" data-name="Trazado 12699" d="M813.336-274.553a.345.345,0,0,1-.078-.009.343.343,0,0,1-.256-.412c2.345-10.041.771-17.245-1.485-20.639a5.375,5.375,0,0,0-3.373-2.587.342.342,0,0,1-.28-.4.341.341,0,0,1,.395-.28,6.026,6.026,0,0,1,3.83,2.883c2.334,3.514,3.976,10.922,1.581,21.175A.343.343,0,0,1,813.336-274.553Z" fill="#232b59"/>
              </g>
              <path id="Trazado_12700" data-name="Trazado 12700" d="M821.957-285.535c1.044.874,5.148,21.016,4.529,26.358-.869,7.5-5.546,18.246-5.546,18.246l-8.36,1.372S813.066-292.979,821.957-285.535Z" fill="#f19e86"/>
              <path id="Trazado_12701" data-name="Trazado 12701" d="M818.71-245.677c-.228,1.83,1.206,4.482,2.23,4.746,0,1.706-1.656,4.517-2.533,6.8-.952,2.483-4.585-4.859-4.585-4.859Z" fill="#234f73"/>
              <path id="Trazado_12702" data-name="Trazado 12702" d="M805.773-296.928c5.718.6,14.106,5.213,16.184,11.393,1.173,3.487-1.358,40.366-1.358,40.366l-30.716.765s2.106-9.224,2.325-11.637c.525-5.776-2.437-24.123-6.074-30.617C783.574-291.23,800.782-297.448,805.773-296.928Z" fill="#2d6c9c"/>
              <path id="Trazado_12703" data-name="Trazado 12703" d="M809.093-304.864s1.531,10.133,1.46,10.422c-.135.549-.932,6.287-1.862,6.824-1.353.781-9.048-5.618-9.551-6.824-.111-.266,1.317-11.618,1.317-11.618Z" fill="#f19e86"/>
              <g id="Grupo_13389" data-name="Grupo 13389">
                <path id="Trazado_12704" data-name="Trazado 12704" d="M811.122-307.654c1-5.854-.28-9.168-.841-9.973-.785-1.127-10.087-1.778-11.561.65s-.694,8.369-.087,9.323,7.372,1.822,7.372,1.822Z" fill="#232b59"/>
                <path id="Trazado_12705" data-name="Trazado 12705" d="M809.3-314.288c.932,1.176,1.2,2.578,1.228,5.029,2.067-3.468,1.373,4.294-.162,3.52-.244,2.507-1.533,5.2-3.712,6.4a3,3,0,0,1-2.947.228,8.163,8.163,0,0,1-4.224-6.357c-.762.041-1.617-2.593-1.545-4.05.05-1,.817-1.447,1.231-.087-.081-2.671.2-4.1.764-4.683.717-.732,2.879,1.477,5.854,1.488C808.573-312.79,808.713-315.029,809.3-314.288Z" fill="#f5b48d"/>
                <g id="Grupo_13387" data-name="Grupo 13387">
                  <path id="Trazado_12706" data-name="Trazado 12706" d="M802.519-305.429a22.046,22.046,0,0,1-2.587-.131.625.625,0,0,1-.368-.4,7.05,7.05,0,0,1-.3-2.947c.064-.108.185-.164.478-.22.845-.165,3.774-.372,4.461.151h0c.083.062.3.23.324,1.417,0,.172.02,1.68-.317,1.956A4.493,4.493,0,0,1,802.519-305.429Zm-2.446-.589a20.181,20.181,0,0,0,3.829.037,5.977,5.977,0,0,0,.005-2.625c-.526-.377-3.667-.217-4.239-.022A7.187,7.187,0,0,0,800.073-306.018Zm.01.01Zm-.466-2.6Z" fill="#232b59"/>
                </g>
                <g id="Grupo_13388" data-name="Grupo 13388">
                  <path id="Trazado_12707" data-name="Trazado 12707" d="M807.545-305.428a4.488,4.488,0,0,1-1.693-.179c-.336-.276-.32-1.784-.316-1.956.021-1.187.24-1.355.323-1.417h0c.688-.524,3.617-.316,4.462-.151.293.056.413.112.477.22a6.868,6.868,0,0,1-.3,2.947.627.627,0,0,1-.369.4A21.942,21.942,0,0,1,807.545-305.428Zm-1.384-.553a20.264,20.264,0,0,0,3.829-.037,7.027,7.027,0,0,0,.4-2.613c-.594-.193-3.706-.35-4.231.025A5.993,5.993,0,0,0,806.161-305.981Zm3.819-.027Zm.466-2.6Z" fill="#232b59"/>
                </g>
              </g>
              <path id="Trazado_12708" data-name="Trazado 12708" d="M785.9-287.552c-4.874,7.8-6.018,27.479-4.882,31.292,2.059,6.905,13.266,18.3,13.266,18.3l2.059-4.447s-6.2-13.983-6.176-16.772,1.605-9.126,1.605-12.31S785.9-287.552,785.9-287.552Z" fill="#f19e86"/>
              <path id="Trazado_12709" data-name="Trazado 12709" d="M780.115-266.754c.257-4.726,3.03-22.566,8.361-24.11,3.865-1.119,7.592,26.016,5.619,26.474S780.115-266.754,780.115-266.754Z" fill="#2d6c9c"/>
              <path id="Trazado_12710" data-name="Trazado 12710" d="M819.247-290.006c3.693,1.8,8.193,17.583,7.3,21.271A33.9,33.9,0,0,1,820-267.192Z" fill="#2d6c9c"/>
              <g id="Grupo_13390" data-name="Grupo 13390">
                <path id="Trazado_12711" data-name="Trazado 12711" d="M821.944-268.667h-.008a.172.172,0,0,1-.164-.179c.2-4.3,0-11.27,0-11.34a.171.171,0,0,1,.167-.176.16.16,0,0,1,.176.166c0,.07.2,7.052,0,11.365A.172.172,0,0,1,821.944-268.667Z" fill="#275a82"/>
              </g>
              <path id="Trazado_12712" data-name="Trazado 12712" d="M802.458-273.881a2.83,2.83,0,0,1,2.83-2.831,2.83,2.83,0,0,1,2.83,2.831,2.83,2.83,0,0,1-2.83,2.83A2.83,2.83,0,0,1,802.458-273.881Z" fill="#95c2dc"/>
              <g id="Grupo_13391" data-name="Grupo 13391">
                <path id="Trazado_12713" data-name="Trazado 12713" d="M794.641-264.79h-.013a.172.172,0,0,1-.159-.184c.008-.1.721-9.964-.823-15.168a.172.172,0,0,1,.115-.213.172.172,0,0,1,.214.115c1.562,5.264.844,15.192.836,15.292A.17.17,0,0,1,794.641-264.79Z" fill="#275a82"/>
              </g>
              <path id="Trazado_12714" data-name="Trazado 12714" d="M796.84-279.628c1.115,0,7.861-.086,8,0a13.9,13.9,0,0,1,.114,2.4h-7.891Z" fill="#275a82"/>
              <g id="Grupo_13392" data-name="Grupo 13392">
                <path id="Trazado_12715" data-name="Trazado 12715" d="M804.072-274.553a.343.343,0,0,1-.28-.144c-6.642-9.3-8.655-17.763-5.255-22.078a.343.343,0,0,1,.482-.057.343.343,0,0,1,.057.482c-3.155,4-1.085,12.346,5.275,21.255a.343.343,0,0,1-.08.478A.344.344,0,0,1,804.072-274.553Z" fill="#232b59"/>
              </g>
              <g id="Grupo_13393" data-name="Grupo 13393">
                <path id="Trazado_12716" data-name="Trazado 12716" d="M813.336-274.553a.345.345,0,0,1-.078-.009.343.343,0,0,1-.256-.412c2.51-10.745.524-18.171-1.94-21.266a.343.343,0,0,1,.055-.482.343.343,0,0,1,.482.055c2.682,3.369,4.634,10.877,2.071,21.849A.343.343,0,0,1,813.336-274.553Z" fill="#232b59"/>
              </g>
              <g id="Grupo_13394" data-name="Grupo 13394">
                <path id="Trazado_12717" data-name="Trazado 12717" d="M815.324-269.266a.172.172,0,0,1-.171-.157,3.188,3.188,0,0,0-2.321-2.613,3.638,3.638,0,0,0-3.988,1.461.172.172,0,0,1-.241.028.172.172,0,0,1-.028-.241,3.967,3.967,0,0,1,4.356-1.577,3.537,3.537,0,0,1,2.564,2.913.172.172,0,0,1-.156.186Z" fill="#95c2dc"/>
              </g>
              <g id="Grupo_13395" data-name="Grupo 13395">
                <path id="Trazado_12718" data-name="Trazado 12718" d="M812.192-262.646a.26.26,0,0,1-.182-.075.258.258,0,0,1,0-.364c1.435-1.434,3.781-6.362,3.22-9.334a2.346,2.346,0,0,0-1.34-1.86,2.863,2.863,0,0,0-2.876.109c-1.7,1.139-2.637,4.306-2.555,8.689a.257.257,0,0,1-.253.262.273.273,0,0,1-.262-.252c-.084-4.563.93-7.889,2.785-9.126a3.385,3.385,0,0,1,3.368-.154,2.834,2.834,0,0,1,1.639,2.237c.589,3.126-1.862,8.293-3.362,9.793A.257.257,0,0,1,812.192-262.646Z" fill="#232b59"/>
              </g>
              <g id="Grupo_13396" data-name="Grupo 13396">
                <path id="Trazado_12719" data-name="Trazado 12719" d="M805.531-271.945a1.939,1.939,0,0,1-1.937-1.937,1.939,1.939,0,0,1,1.937-1.936,1.939,1.939,0,0,1,1.937,1.936A1.939,1.939,0,0,1,805.531-271.945Zm0-3.359a1.424,1.424,0,0,0-1.422,1.422,1.424,1.424,0,0,0,1.422,1.423,1.424,1.424,0,0,0,1.423-1.423A1.424,1.424,0,0,0,805.531-275.3Z" fill="#232b59"/>
              </g>
              <path id="Trazado_12720" data-name="Trazado 12720" d="M808.2-265.733c-.841-.129-.784,1.915-.084,1.887S808.857-265.633,808.2-265.733Z" fill="#95c2dc"/>
              <path id="Trazado_12721" data-name="Trazado 12721" d="M812.739-263.545c-.613-.59-1.744,1.115-1.154,1.5S813.217-263.086,812.739-263.545Z" fill="#95c2dc"/>
              <path id="Trazado_12722" data-name="Trazado 12722" d="M808.022-264.05c-.022-.107.266-.13.289,0S808.043-263.943,808.022-264.05Z" fill="#2d6c9c"/>
              <path id="Trazado_12723" data-name="Trazado 12723" d="M811.571-262.267c.029-.105.3.006.257.132S811.541-262.161,811.571-262.267Z" fill="#2d6c9c"/>
              <path id="Trazado_12724" data-name="Trazado 12724" d="M813.693-276.254c-.557-.1-.474.514-.872.8-.283.2-1.465-.029-1.288.709.139.578.913.152,1.681.349s1.321.894,1.583.568c.454-.568-.557-.893-.771-1.3S814.27-276.151,813.693-276.254Z" fill="#95c2dc"/>
            </g>
          </g>
        </g>
      </g>
      <g id="Grupo_13408" data-name="Grupo 13408">
        <g id="Grupo_13403" data-name="Grupo 13403">
          <path id="Trazado_12725" data-name="Trazado 12725" d="M901.512-281.393H828.349a6.283,6.283,0,0,0-6.282,6.282v22.132s-7.6,18.57-6.138,16.743c.935-1.169,10.54-6.224,17.343-9.717h68.24a6.281,6.281,0,0,0,6.282-6.282v-22.876A6.282,6.282,0,0,0,901.512-281.393Z" fill="#ba1400"/>
          <g id="Grupo_13400" data-name="Grupo 13400">
            <rect id="Rectángulo_3401" data-name="Rectángulo 3401" width="4.933" height="4.578" transform="translate(878.819 -270.832) rotate(180)" fill="#fff"/>
            <rect id="Rectángulo_3402" data-name="Rectángulo 3402" width="35.353" height="4.578" transform="translate(870.623 -270.832) rotate(180)" fill="#fff"/>
          </g>
          <g id="Grupo_13401" data-name="Grupo 13401">
            <rect id="Rectángulo_3403" data-name="Rectángulo 3403" width="20.143" height="4.578" transform="translate(878.819 -261.183) rotate(180)" fill="#fff"/>
            <rect id="Rectángulo_3404" data-name="Rectángulo 3404" width="20.143" height="4.578" transform="translate(855.413 -261.183) rotate(180)" fill="#fff"/>
          </g>
          <g id="Grupo_13402" data-name="Grupo 13402">
            <rect id="Rectángulo_3405" data-name="Rectángulo 3405" width="14.059" height="4.578" transform="translate(878.819 -251.534) rotate(180)" fill="#fff"/>
            <rect id="Rectángulo_3406" data-name="Rectángulo 3406" width="26.227" height="4.578" transform="translate(861.497 -251.534) rotate(180)" fill="#fff"/>
          </g>
        </g>
        <g id="Grupo_13407" data-name="Grupo 13407">
          <g id="Grupo_13406" data-name="Grupo 13406" clip-path="url(#clip-path-2)">
            <g id="_6" data-name="6">
              <path id="Trazado_12726" data-name="Trazado 12726" d="M875.829-210.962h8.8l-4.4-14.367Z" fill="#f4f4ef"/>
              <path id="Trazado_12727" data-name="Trazado 12727" d="M895.264-249.123c5.051,10.7,5.258,35.957,4.3,37.23-1.159,1.538-7.666.768-7.666.768l-3.05-22.318S893.456-252.953,895.264-249.123Z" fill="#f4f4ef"/>
              <path id="Trazado_12728" data-name="Trazado 12728" d="M869.366-273.059c-1,.133-4.693,17.194-5.349,19.522-.693,2.459-6,17.244-6.013,17.846-.018.8,6.793,1.747,7.5,1.067s6.33-22.9,8.24-26.9C875.99-266.215,872.194-273.437,869.366-273.059Z" fill="#f4f4ef"/>
              <path id="Trazado_12729" data-name="Trazado 12729" d="M883.681-278.248c2.678.5,12.426,1.649,15.731,7.631,1.392,2.521-7.327,22.128-6.964,23.981s.92,11.114.535,11.618c-1.531,2-20.1,4.648-22.854.5-.78-1.177.794-10.716.489-12.781-.267-1.8-2.732-22.257.088-25.956C873.044-276.323,883.681-278.248,883.681-278.248Z" fill="#1aa6ab"/>
              <path id="Trazado_12730" data-name="Trazado 12730" d="M878.763-292.789c-.814,1.056-.548,6.629.213,7.009,1.716.856,7.45,2.279,8.67,1.827s2.254-4.908,1.609-7.527C888.435-294.809,880.358-294.858,878.763-292.789Z" fill="#f4f4ef"/>
              <path id="Trazado_12731" data-name="Trazado 12731" d="M887.69-287.583a87.456,87.456,0,0,0,.691,10.772c.223.754-2.881,2.045-5,1.833-2.922-.293-4.511-1.58-4.44-2.241s1.563-5.484,1.563-5.484l2.83-4.812Z" fill="#f19e86"/>
              <path id="Trazado_12732" data-name="Trazado 12732" d="M882.257-292.965c-2.172.183-3.984.94-3.684,4.732s.506,4.718,1.641,6.657,6.108-.276,6.375-.325.907-3.865,1.347-4.557,1.371-1.792,1.079-2.406-1.232.121-1.232.121S888.646-293.505,882.257-292.965Z" fill="#f5b48d"/>
              <path id="Trazado_12733" data-name="Trazado 12733" d="M881.325-285.5a6.031,6.031,0,0,0-2.9.882c-.419.407.082,4.325.937,4.942a9.3,9.3,0,0,0,3.263,1.331c.719.079,3.05-1.2,3.5-1.467s1.95-5.139,1.717-6.462.384-2.879-.105-2.641-.52,3.876-1.283,4.424S882.308-285.339,881.325-285.5Z" fill="#f4f4ef"/>
              <path id="Trazado_12734" data-name="Trazado 12734" d="M888.18-278.248c-.57.562-5.029,30.222,4.013,45.052,4.34-2,2.935-7.053,2.935-7.053s-.493-12.3,1.767-18.809,3.512-12.2,2.667-13.564C899.049-273.453,888.957-279.015,888.18-278.248Z" fill="#f4f4ef"/>
              <path id="Trazado_12735" data-name="Trazado 12735" d="M894-264.293c-.227,3.784,3.3,10.208,2.968,13.076-.369,3.191-5.074,15.526-5.074,15.526s4.72,3.8,5.76,3.408c2.369-.9,7.165-12.519,7.628-17.165.335-3.368-.916-19.137-5.722-23.174C898.394-273.6,894.366-270.389,894-264.293Z" fill="#f4f4ef"/>
              <path id="Trazado_12736" data-name="Trazado 12736" d="M890.685-232.965c-.178.58,2.4,4.446,2.661,4.241,1.582-1.255,1.9-4.514,1.854-5.29-.056-.862-1.349-2.024-2.035-1.809A6.033,6.033,0,0,0,890.685-232.965Z" fill="#f5b48d"/>
              <path id="Trazado_12737" data-name="Trazado 12737" d="M879.188-278.248c-.465-.767-7.83,3.254-9.822,5.189-.408.4-.143,12.586-1.588,25.865-1.7,15.577-5.079,32.653-4.716,33.96.453,1.626,9.825,2.621,10.639,1.821.739-.726,1.989-26.107,3.391-45.452C877.911-268.178,879.471-277.78,879.188-278.248Z" fill="#f4f4ef"/>
              <g id="Grupo_13404" data-name="Grupo 13404">
                <path id="Trazado_12738" data-name="Trazado 12738" d="M875.829-247.5a.16.16,0,0,1-.152-.108c-.527-1.514-2.389-13.225-2.076-13.973a3.145,3.145,0,0,1,.816-.891c.579-.51,1.3-1.145,1.249-1.8-.037-.469-.453-.536-1.134-.591-.537-.043-1.093-.088-1.295-.542s-.007-2.386.341-5.509c.222-2,.452-4.066.437-5.1a.16.16,0,0,1,.158-.163.15.15,0,0,1,.163.158c.015,1.055-.216,3.132-.439,5.14a28.754,28.754,0,0,0-.366,5.343c.124.28.563.315,1.027.353.609.049,1.368.11,1.428.886.063.819-.724,1.512-1.356,2.07a3.128,3.128,0,0,0-.733.775c-.228.643,1.5,12.075,2.084,13.743a.16.16,0,0,1-.1.2A.158.158,0,0,1,875.829-247.5Z" fill="#ddd"/>
              </g>
              <g id="Grupo_13405" data-name="Grupo 13405">
                <path id="Trazado_12739" data-name="Trazado 12739" d="M888.023-246.737a.16.16,0,0,1-.16-.158,64.172,64.172,0,0,1,1.382-6.414,62.854,62.854,0,0,0,1.388-6.449,4.472,4.472,0,0,0-1.059-1.313c-.9-.923-1.835-1.878-1.3-2.48.661-.745,2.4-.29,2.989-.108.134-1.289.93-8.165,3.032-11.584a.161.161,0,0,1,.221-.052.162.162,0,0,1,.053.221c-2.236,3.637-3,11.565-3.006,11.645a.156.156,0,0,1-.073.12.158.158,0,0,1-.14.016c-.609-.216-2.3-.645-2.835-.045-.335.378.566,1.3,1.291,2.043a4.133,4.133,0,0,1,1.146,1.484,49.571,49.571,0,0,1-1.392,6.577c-.68,2.84-1.383,5.777-1.374,6.334a.161.161,0,0,1-.158.163Z" fill="#ddd"/>
              </g>
              <path id="Trazado_12740" data-name="Trazado 12740" d="M860.536-235.691c-.588.357-2,3.8-2.08,4.912-.043.6,1.69,3.342,2.189,3.287s-.167-2.265,0-3.045,1.2-2.324,1.738-2.329.426,1.064.4,1.639.082,1.517.3,1.573.444-1.324.665-1.522a6.034,6.034,0,0,0,.888-2.526,3.555,3.555,0,0,0-1.208-2.218A4.245,4.245,0,0,0,860.536-235.691Z" fill="#f5b48d"/>
            </g>
          </g>
        </g>
      </g>
      <g id="Grupo_13426" data-name="Grupo 13426">
        <path id="Trazado_12741" data-name="Trazado 12741" d="M961.8-248H884.315a6.653,6.653,0,0,0-6.653,6.653v23.44s-8.049,19.668-6.5,17.733c.99-1.238,11.163-6.592,18.368-10.291H961.8a6.654,6.654,0,0,0,6.654-6.654v-24.228A6.654,6.654,0,0,0,961.8-248Z" fill="#ffb833"/>
        <g id="Grupo_13409" data-name="Grupo 13409">
          <rect id="Rectángulo_3407" data-name="Rectángulo 3407" width="5.224" height="4.849" transform="translate(932.333 -236.815) rotate(180)" fill="#fff"/>
          <rect id="Rectángulo_3408" data-name="Rectángulo 3408" width="37.442" height="4.849" transform="translate(923.653 -236.815) rotate(180)" fill="#fff"/>
        </g>
        <g id="Grupo_13410" data-name="Grupo 13410">
          <rect id="Rectángulo_3409" data-name="Rectángulo 3409" width="21.333" height="4.849" transform="translate(932.333 -226.596) rotate(180)" fill="#fff"/>
          <rect id="Rectángulo_3410" data-name="Rectángulo 3410" width="21.333" height="4.849" transform="translate(907.544 -226.596) rotate(180)" fill="#fff"/>
        </g>
        <g id="Grupo_13411" data-name="Grupo 13411">
          <rect id="Rectángulo_3411" data-name="Rectángulo 3411" width="14.89" height="4.849" transform="translate(932.333 -216.376) rotate(180)" fill="#fff"/>
          <rect id="Rectángulo_3412" data-name="Rectángulo 3412" width="27.777" height="4.849" transform="translate(913.987 -216.376) rotate(180)" fill="#fff"/>
        </g>
        <g id="Grupo_13425" data-name="Grupo 13425">
          <g id="Grupo_13424" data-name="Grupo 13424" clip-path="url(#clip-path-3)">
            <g id="_3" data-name="3">
              <path id="Trazado_12742" data-name="Trazado 12742" d="M959.092-240.183c-.744-1.71-4.081-4.747-7.431-6.3-1.8-1.119-5.29-.345-6.705.554-3.516,1.815-5.479,3.594-6.668,6.486s-3.55,15.795-2.662,18.4a33.979,33.979,0,0,0,1.515,3.174,23.45,23.45,0,0,0-1.034,2.91c-1.227,6.969.209,21.826.8,22.229,1.068.724,24.1.958,25.026-1.1s.687-16.171-.134-19.708c-.247-1.065-.62-2.361-1.066-3.775a33.2,33.2,0,0,0,1.8-5.092C962.624-223.875,961.34-235.015,959.092-240.183Z" fill="#f4f4ef"/>
              <path id="Trazado_12743" data-name="Trazado 12743" d="M939.34-213.822s-.1,12.043.938,12.721,18.073.594,18.886.07c1.012-.651,1.012-12.371,1.012-13.356S940.2-215.025,939.34-213.822Z" fill="#95c2dc"/>
              <path id="Trazado_12744" data-name="Trazado 12744" d="M952.607-207.483c-1.429,2.59-2.945,7.1-2.7,7.644s3.54.493,3.81.166a22.952,22.952,0,0,0,.873-3.6,19.494,19.494,0,0,0-.226-3.11Z" fill="#f5b48d"/>
              <path id="Trazado_12745" data-name="Trazado 12745" d="M947.485-206.031c.816,1.6,3.81,5.4,3.8,6.551,0,.61-3.07.931-3.765.754-.652-.165-1.551-3.657-1.7-5.133S947.485-206.031,947.485-206.031Z" fill="#f5b48d"/>
              <path id="Trazado_12746" data-name="Trazado 12746" d="M954.136-254.323c1.957-1.346-.04-8.37-3.166-10.839a5.6,5.6,0,0,0-6.843-.444c-1.625.988-7.9,7.4-3.529,11.6S954.136-254.323,954.136-254.323Z" fill="#232b59"/>
              <path id="Trazado_12747" data-name="Trazado 12747" d="M948.146-246.464a6.777,6.777,0,0,0-3.943,2.192c-1.016,1.306,4.068,10.378,4.488,10.378.886,0,4.524-9.491,4.093-10.611C952.493-245.259,949.365-246.658,948.146-246.464Z" fill="#2d6c9c"/>
              <path id="Trazado_12748" data-name="Trazado 12748" d="M946.265-252.4c-.2,3.148-.818,6.459-1.35,7.453-.749,1.4,3.3,2.731,5,2.281s2.2-1.348,2.248-1.948-1.99-2.579-2.348-6.792C949.53-254.759,946.347-253.679,946.265-252.4Z" fill="#f19e86"/>
              <path id="Trazado_12749" data-name="Trazado 12749" d="M952.881-259.633c.484,4.321-1.23,8.994-2.626,9.245-1.9.342-5.278-2.126-5.392-6.13a1.649,1.649,0,0,1-1.406-2.241c.683-1.172,1.6.1,1.6.1s.444-2.174,4.069-3.963C950.323-262.789,952.764-260.671,952.881-259.633Z" fill="#f5b48d"/>
              <g id="Grupo_13412" data-name="Grupo 13412">
                <path id="Trazado_12750" data-name="Trazado 12750" d="M943.57-227.547a.169.169,0,0,1-.075-.018c-3.694-1.89-3.33-4.439-1.545-7.939a.165.165,0,0,1,.222-.073.166.166,0,0,1,.073.223c-2.023,3.968-1.657,5.929,1.4,7.494a.165.165,0,0,1,.072.223A.165.165,0,0,1,943.57-227.547Z" fill="#95c2dc"/>
              </g>
              <g id="Grupo_13413" data-name="Grupo 13413">
                <path id="Trazado_12751" data-name="Trazado 12751" d="M954.241-227.757a.165.165,0,0,1-.142-.08.164.164,0,0,1,.056-.227,4.839,4.839,0,0,0,2.555-3.362A5.814,5.814,0,0,0,955.031-236a.167.167,0,0,1,.014-.234.165.165,0,0,1,.234.014,6.136,6.136,0,0,1,1.758,4.842,5.145,5.145,0,0,1-2.711,3.6A.157.157,0,0,1,954.241-227.757Z" fill="#95c2dc"/>
              </g>
              <g id="Grupo_13414" data-name="Grupo 13414">
                <path id="Trazado_12752" data-name="Trazado 12752" d="M939.1-213.987a.164.164,0,0,1-.145-.085c-.675-1.214-1.513-2.777-1.874-3.475a.167.167,0,0,1,.072-.223.166.166,0,0,1,.223.071c.359.7,1.2,2.255,1.868,3.466a.166.166,0,0,1-.064.226A.163.163,0,0,1,939.1-213.987Z" fill="#95c2dc"/>
              </g>
              <g id="Grupo_13415" data-name="Grupo 13415">
                <path id="Trazado_12753" data-name="Trazado 12753" d="M944.636-216.082a.166.166,0,0,1-.155-.106q-.258-.667-.513-1.311c-1.357-3.448-2.53-6.426-2.279-9.668a.161.161,0,0,1,.178-.152.165.165,0,0,1,.152.178c-.244,3.166.915,6.111,2.257,9.521q.255.645.514,1.313a.165.165,0,0,1-.095.214A.151.151,0,0,1,944.636-216.082Z" fill="#95c2dc"/>
              </g>
              <g id="Grupo_13416" data-name="Grupo 13416">
                <path id="Trazado_12754" data-name="Trazado 12754" d="M959.757-214.794a.149.149,0,0,1-.068-.015.166.166,0,0,1-.083-.219c.1-.228.209-.495.311-.754.138-.35.282-.713.425-1a.166.166,0,0,1,.223-.072.166.166,0,0,1,.073.223c-.137.269-.277.624-.413.967-.1.262-.21.533-.317.769A.165.165,0,0,1,959.757-214.794Z" fill="#95c2dc"/>
              </g>
              <g id="Grupo_13417" data-name="Grupo 13417">
                <path id="Trazado_12755" data-name="Trazado 12755" d="M954.288-215.184a.167.167,0,0,1-.062-.012.167.167,0,0,1-.092-.216c1.615-4.009,2.692-10.268,2.218-12.878a.166.166,0,0,1,.133-.193.166.166,0,0,1,.193.133c.538,2.961-.737,9.338-2.236,13.062A.169.169,0,0,1,954.288-215.184Z" fill="#95c2dc"/>
              </g>
              <g id="Grupo_13418" data-name="Grupo 13418">
                <path id="Trazado_12756" data-name="Trazado 12756" d="M948.924-215.53a.166.166,0,0,1-.163-.137,59.232,59.232,0,0,1-.781-7.871c-.048-2.294.153-5,.3-6.983a20.6,20.6,0,0,0,.123-2.62c-.112-.29-1.839-1.441-5.133-3.418-.265-.16-.464-.279-.566-.343a.323.323,0,0,1-.175-.291c.011-.319.518-.6,1.344-1.041a4.02,4.02,0,0,0,1.081-.691,27.972,27.972,0,0,0-3.321-3.5l-.6-.585a.165.165,0,0,1,0-.234.166.166,0,0,1,.234,0c.173.169.379.367.6.584,2.164,2.086,3.35,3.294,3.418,3.706.051.31-.4.562-1.253,1.017a4.321,4.321,0,0,0-1.164.749l.015.009c.1.063.3.182.562.34,3.7,2.219,5.177,3.232,5.282,3.615a16.015,16.015,0,0,1-.113,2.732c-.146,1.972-.346,4.673-.3,6.951a58.858,58.858,0,0,0,.775,7.82.166.166,0,0,1-.134.192Z" fill="#95c2dc"/>
              </g>
              <g id="Grupo_13419" data-name="Grupo 13419">
                <path id="Trazado_12757" data-name="Trazado 12757" d="M949.495-233.571a.3.3,0,0,1-.153-.039.167.167,0,0,1-.06-.227.165.165,0,0,1,.226-.06h.009a8.62,8.62,0,0,0,2.387-1.544,8.517,8.517,0,0,0,2.218-2.162,6.28,6.28,0,0,0-1.34-.749c-.9-.428-1.128-.549-1.054-.772a17.45,17.45,0,0,1,4.027-4.136.165.165,0,0,1,.232.03.165.165,0,0,1-.03.232,18.6,18.6,0,0,0-3.877,3.912,8.606,8.606,0,0,0,.845.435c1.063.508,1.528.761,1.528,1.049,0,.638-2.919,2.991-4.207,3.733A1.725,1.725,0,0,1,949.495-233.571Z" fill="#95c2dc"/>
              </g>
              <g id="Grupo_13420" data-name="Grupo 13420">
                <path id="Trazado_12758" data-name="Trazado 12758" d="M949.425-230.828a.166.166,0,0,1-.164-.14,3.9,3.9,0,0,1,0-.768.161.161,0,0,1,.176-.154.164.164,0,0,1,.154.176,3.663,3.663,0,0,0,0,.7.167.167,0,0,1-.139.189Z" fill="#95c2dc"/>
              </g>
              <g id="Grupo_13421" data-name="Grupo 13421">
                <path id="Trazado_12759" data-name="Trazado 12759" d="M949.133-224.838a.164.164,0,0,1-.158-.118,1.937,1.937,0,0,1,0-.861.168.168,0,0,1,.2-.13.166.166,0,0,1,.13.2,1.635,1.635,0,0,0,0,.7.167.167,0,0,1-.113.205A.189.189,0,0,1,949.133-224.838Z" fill="#95c2dc"/>
              </g>
              <g id="Grupo_13422" data-name="Grupo 13422">
                <path id="Trazado_12760" data-name="Trazado 12760" d="M949.409-218.522a.167.167,0,0,1-.163-.139,2.756,2.756,0,0,1,.008-1.066.166.166,0,0,1,.213-.1.164.164,0,0,1,.1.212,2.427,2.427,0,0,0,.008.9.165.165,0,0,1-.136.19A.133.133,0,0,1,949.409-218.522Z" fill="#95c2dc"/>
              </g>
              <path id="Trazado_12761" data-name="Trazado 12761" d="M944.824-215.7s3.476,9.209,3.26,9.927-2.164,1.893-2.658,1.609-6.086-9.662-6.086-9.662l.7-2.009Z" fill="#f4f4ef"/>
              <path id="Trazado_12762" data-name="Trazado 12762" d="M954.288-214.959s-2.444,8.087-2.478,8.491,2.306,1.277,2.806,1.277,5.141-9.42,5.141-9.42l-1.248-1.637Z" fill="#f4f4ef"/>
              <g id="Grupo_13423" data-name="Grupo 13423">
                <path id="Trazado_12763" data-name="Trazado 12763" d="M949.908-192.316H949.9a.166.166,0,0,1-.16-.172,39.69,39.69,0,0,0-.148-5.467.166.166,0,0,1,.133-.193.165.165,0,0,1,.193.133,38.95,38.95,0,0,1,.153,5.539A.165.165,0,0,1,949.908-192.316Z" fill="#95c2dc"/>
              </g>
            </g>
          </g>
        </g>
      </g>
    </g>
  </g>
</svg>
